<?xml version="1.0" encoding="UTF-8"?>
<svg id="_レイヤー_2" data-name="レイヤー 2" xmlns="http://www.w3.org/2000/svg" viewBox="0 0 116.21 116.21">
  <defs>
    <style>
      .cls-1 {
        fill: #a9c57d;
      }
    </style>
  </defs>
  <g id="_ガイドライン" data-name="ガイドライン">
    <g>
      <path class="cls-1" d="m58.1,116.21C26.06,116.21,0,90.14,0,58.1S26.06,0,58.1,0s58.1,26.06,58.1,58.1-26.06,58.1-58.1,58.1Zm0-106.21c-26.52,0-48.1,21.58-48.1,48.1s21.58,48.1,48.1,48.1,48.1-21.58,48.1-48.1S84.63,10,58.1,10Z"/>
      <g>
        <path class="cls-1" d="m33.88,80.31c.6.51-4.74-3.94-10.99,1.82-6.25,5.76-.88-11.8,10.99-1.82Z"/>
        <path class="cls-1" d="m29.76,76.8c.12.78-.94-6.09-9.44-5.91-8.5.18,7.16-9.42,9.44,5.91Z"/>
        <path class="cls-1" d="m21.41,74.32c.78-.13-6.08,1.03-5.78,9.52.3,8.49-9.52-7.03,5.78-9.52Z"/>
        <path class="cls-1" d="m24.44,87.96c1.29-.27,2.91-9.19,28.59-1.35,25.68,7.84,51.9-.93,51.9-.93,0,0-18.73,15.11-47.39,4.88-26.24-9.37-33.1-2.59-33.1-2.59Z"/>
        <path class="cls-1" d="m38.95,82.28c3.88.19,9.02,1.08,15.88,3.18,11.06,3.38,22.22,3.67,31.34,2.91l-1.85-6.2c-7.86-1.12-17.98-2.93-27.32-5.55l1.23-5.05c2.27,1.02,4.76,1.89,7.41,2.53,5.12,1.25,10.08,1.51,14.34.93-5.51-3.89-8.53-8.82-7.44-13.29,1.09-4.47,6.04-7.46,12.73-8.37-3.51-2.48-8.04-4.53-13.16-5.79-2.65-.65-5.25-1.03-7.74-1.17l.48-1.98c.86.31,1.77.58,2.71.81,2.85.7,5.61.89,7.96.66-3.11-2.03-4.84-4.54-4.3-6.78.55-2.23,3.25-3.66,6.94-4.03-1.98-1.29-4.51-2.39-7.37-3.08-.94-.23-1.87-.4-2.78-.53l2.1-8.6c.44-.15.77-.57.77-1.06,0-.62-.5-1.12-1.12-1.12s-1.12.5-1.12,1.12c0,.02,0,.05,0,.07-.48-.59-1.67-1.22-4.58-.51-4.73,1.16-11.62-2.09-11.62-2.09,0,0-.41,4.86,6.89,5.68,5.16.57,7.43,2.02,8.32,2.83l-.9,3.55c-5.61-.48-10.14,1.07-10.86,4.04-.72,2.95,2.53,6.38,7.66,8.54l-.62,2.43c-9.22-.17-16.54,3.09-17.9,8.65-1.35,5.51,3.55,11.72,11.68,15.82l-1.35,5.3c-10.38-3.05-19.55-7.16-23.21-12.51-.72-1.06-2.63,10.76,6.79,18.63Z"/>
      </g>
    </g>
  </g>
</svg>