<?xml version="1.0" encoding="UTF-8"?>
<svg id="_レイヤー_2" data-name="レイヤー 2" xmlns="http://www.w3.org/2000/svg" viewBox="0 0 116.2 116.21">
  <defs>
    <style>
      .cls-1, .cls-2 {
        fill: #7fba5d;
      }

      .cls-2 {
        fill-rule: evenodd;
      }
    </style>
  </defs>
  <g id="_ガイドライン" data-name="ガイドライン">
    <g>
      <path class="cls-1" d="m58.1,116.21C26.06,116.21,0,90.14,0,58.1S26.06,0,58.1,0s58.1,26.06,58.1,58.1-26.06,58.1-58.1,58.1Zm0-106.21c-26.52,0-48.1,21.58-48.1,48.1s21.58,48.1,48.1,48.1,48.1-21.58,48.1-48.1S84.63,10,58.1,10Z"/>
      <g>
        <path class="cls-2" d="m60.6,51.84c-.5-1.57-.99-3.14-1.49-4.71-.01-.04-.05-.07-.09-.08-.05-.01-.09,0-.12.03-.72.68-1.54,1.29-2.43,1.81-.9.52-1.83.92-2.78,1.2-.04.01-.07.05-.08.09-.01.04,0,.08.03.12,1.11,1.21,2.23,2.43,3.34,3.64.04.04.11.05.16.02,1.14-.66,2.27-1.32,3.41-1.97.05-.03.08-.09.06-.15Z"/>
        <path class="cls-2" d="m62.95,55.97c-.41-1.63-.82-3.27-1.23-4.9-.01-.04-.04-.08-.08-.09-.04-.01-.09,0-.12.02-.78.65-1.65,1.23-2.59,1.7-.95.48-1.93.83-2.92,1.06-.04,0-.08.04-.09.08-.02.04,0,.09.02.12,1.06,1.31,2.12,2.61,3.19,3.92.04.05.1.06.16.03,1.2-.6,2.4-1.2,3.61-1.8.05-.03.08-.09.07-.15Z"/>
        <path class="cls-2" d="m65.15,60.17c-.32-1.7-.64-3.4-.97-5.09,0-.05-.04-.08-.08-.1-.04-.02-.09-.01-.12.02-.84.62-1.76,1.16-2.76,1.59-1,.43-2.02.73-3.05.91-.05,0-.08.04-.1.08-.02.04-.01.09.02.13,1.01,1.4,2.02,2.8,3.03,4.2.04.05.1.07.16.04,1.27-.54,2.53-1.09,3.8-1.63.06-.03.09-.08.08-.14Z"/>
        <path class="cls-2" d="m67.16,64.48c-.23-1.76-.47-3.52-.7-5.28,0-.05-.04-.09-.08-.1-.05-.02-.09-.02-.13,0-.89.59-1.87,1.09-2.92,1.48-1.05.39-2.12.63-3.18.76-.05,0-.09.03-.11.08-.02.04-.02.09,0,.13.96,1.5,1.92,2.99,2.88,4.49.04.05.1.08.16.05,1.33-.49,2.66-.98,4-1.46.06-.02.09-.08.09-.15Z"/>
        <path class="cls-2" d="m69,68.86c-.15-1.82-.3-3.65-.44-5.47,0-.05-.03-.09-.08-.11-.04-.02-.09-.02-.13,0-.95.56-1.98,1.02-3.09,1.36-1.1.34-2.21.54-3.31.62-.05,0-.09.03-.11.07-.02.04-.02.09,0,.14.91,1.59,1.81,3.18,2.72,4.77.03.06.1.08.16.06,1.4-.43,2.79-.86,4.19-1.29.06-.02.1-.08.1-.15Z"/>
        <path class="cls-2" d="m70.62,73.33c-.06-1.89-.12-3.78-.18-5.67,0-.05-.03-.09-.07-.12-.04-.03-.09-.03-.14,0-1.01.53-2.1.95-3.25,1.25-1.15.3-2.31.45-3.45.47-.05,0-.09.03-.12.07-.03.04-.03.09,0,.14.86,1.69,1.71,3.37,2.57,5.06.03.06.1.09.16.07,1.46-.37,2.92-.75,4.38-1.12.07-.02.11-.08.11-.14Z"/>
        <path class="cls-2" d="m72.03,77.88c.03-1.95.05-3.9.08-5.86,0-.05-.02-.1-.07-.13-.05-.03-.1-.03-.14,0-1.07.5-2.21.88-3.41,1.14-1.2.25-2.4.35-3.58.32-.05,0-.1.02-.13.07-.03.04-.03.1-.01.14.8,1.78,1.6,3.56,2.41,5.34.03.06.1.1.16.08,1.53-.32,3.05-.64,4.58-.95.07-.01.12-.07.12-.14Z"/>
        <path class="cls-2" d="m73.2,82.51c.11-2.02.23-4.03.34-6.05,0-.05-.02-.1-.06-.13-.04-.03-.1-.04-.15-.02-1.13.47-2.32.82-3.58,1.02-1.25.21-2.5.26-3.72.17-.05,0-.1.02-.13.06s-.04.1-.02.15c.75,1.87,1.5,3.75,2.25,5.62.03.07.1.11.17.09,1.59-.26,3.18-.52,4.77-.78.07-.01.12-.07.13-.14Z"/>
        <path class="cls-2" d="m74.13,87.18c.2-2.08.4-4.16.6-6.24,0-.06-.02-.11-.06-.14-.04-.03-.1-.04-.15-.02-1.18.44-2.44.75-3.74.91-1.3.16-2.6.16-3.85.03-.06,0-.11.02-.14.06-.04.05-.04.1-.03.15.7,1.97,1.4,3.94,2.1,5.91.02.07.09.12.17.11,1.65-.2,3.31-.41,4.96-.61.08,0,.13-.07.14-.14Z"/>
        <path class="cls-2" d="m74.79,91.9c.29-2.14.58-4.29.86-6.43,0-.06-.01-.11-.06-.15-.05-.04-.1-.05-.16-.03-1.24.41-2.55.68-3.91.8-1.36.12-2.69.07-3.98-.12-.06,0-.11.01-.15.06-.04.04-.05.1-.03.16.65,2.06,1.3,4.13,1.94,6.19.02.07.09.12.17.11,1.72-.15,3.44-.29,5.16-.44.08,0,.14-.06.15-.14Z"/>
        <path class="cls-2" d="m75.22,96.66c.37-2.21.75-4.42,1.12-6.62,0-.06,0-.11-.05-.15-.04-.04-.1-.05-.16-.04-1.3.38-2.66.61-4.07.68-1.41.07-2.79-.02-4.12-.27-.06,0-.12,0-.16.05-.04.05-.06.1-.04.16.59,2.16,1.19,4.32,1.78,6.48.02.08.09.13.17.12,1.78-.09,3.57-.18,5.35-.27.08,0,.14-.06.16-.14Z"/>
        <path class="cls-2" d="m75.4,101.43c.46-2.27.92-4.54,1.38-6.81.01-.06,0-.12-.05-.16-.04-.04-.1-.06-.16-.04-1.36.35-2.77.54-4.23.57-1.46.03-2.89-.12-4.25-.42-.06-.01-.12,0-.16.05-.04.05-.06.1-.05.17.54,2.25,1.09,4.51,1.63,6.76.02.08.09.14.18.13,1.85-.03,3.7-.07,5.55-.1.08,0,.15-.06.17-.14Z"/>
        <path class="cls-2" d="m75.33,106.2c.55-2.34,1.1-4.67,1.64-7.01.02-.06,0-.12-.05-.17-.04-.05-.11-.06-.17-.05-1.41.32-2.89.48-4.4.46-1.51-.02-2.98-.21-4.38-.56-.06-.02-.12,0-.17.05-.05.04-.07.11-.05.17.49,2.35.98,4.69,1.48,7.04.02.08.09.14.17.14,1.91.02,3.83.05,5.74.07.09,0,.16-.05.18-.14Z"/>
        <path class="cls-2" d="m75.04,110.96c.63-2.4,1.27-4.8,1.9-7.2.02-.06,0-.13-.04-.18-.05-.05-.11-.07-.17-.06-1.47.29-3,.41-4.56.35-1.56-.06-3.07-.31-4.52-.71-.06-.02-.13,0-.17.04-.05.04-.07.11-.06.17.44,2.44.88,4.89,1.32,7.33.02.09.09.15.18.15,1.98.08,3.96.16,5.94.24.09,0,.17-.05.19-.14Z"/>
        <path class="cls-2" d="m61.28,84.56c-16.79-1.34-25.98-13.34-17.12-25.47-2.25,2.19-3.87,4.8-4.86,7.6-.07-10.19,6.27-15.29,12.46-17.65-6.57,1.62-12.36,6.45-15,14.12-.01-2.2.34-4.34,1.03-6.32-3.78,4.13-6.25,9.2-6.85,14.13-.56-2.14-.76-4.31-.59-6.42-1.58,3.09-2.68,6.55-3.16,10.29-7-12.86-.95-27.44,14.01-29.26-3.02-.13-6.1.46-9.03,1.64,8.44-6.52,15.67-5.88,20.73-3.39-4.99-3.42-11.07-4.75-16.66-2.69,1.14-1.12,2.49-1.97,3.96-2.5-4.58-.44-8.81.47-11.78,2.56.77-1.45,1.78-2.68,2.99-3.63-2.63.5-5.14,1.51-7.41,3.07,2.27-11.17,13.77-14.48,24.27-5.4-1.86-2.09-4.14-3.84-6.63-5.21,5.27,1.41,8.92,3.82,11.41,6.52.05-2.44.6-5.18,1.89-8.19-.4,2.44-.43,4.94,0,7.33-.55-12.05,7.9-18.12,16.74-13.67-2.29.71-4.33,1.88-6.08,3.41,1.3-.32,2.68-.35,4.08-.09-3.02.9-5.92,3.3-8.07,6.67,1.16-.72,2.46-1.18,3.84-1.36-4.41,2.71-6.77,7.58-7.12,12.82,1.02-4.8,4.47-10.08,13.46-12.33-2.38,1.37-4.44,3.16-5.97,5.29,9.29-9.23,22.5-5.52,27.51,6.17-2.81-1.68-5.76-2.79-8.73-3.37,1.53,1.02,2.9,2.32,4.07,3.85-3.69-2.24-8.48-3.28-13.33-2.93,1.72.59,3.37,1.51,4.87,2.69-6.58-2.29-12.91-.99-17.54,2.53,4.98-2.35,11.53-3.13,17.72,2.46-2.36-.97-4.98-1.42-7.67-1.22,12.87,1.24,15.34,14.02,6.59,25.59.32-3.3.03-6.34-.76-9.04-.26,1.86-.87,3.79-1.79,5.7.45-4.36-.73-8.79-3.25-12.36.22,1.73.1,3.62-.34,5.57-1.17-9.64-9.74-14.15-16.02-12.48-5.43,6.31-6.17,14.72.1,21.82-2.04-1.12-3.77-2.47-5.1-4,1.15,4.94,4.09,9.39,8.21,12.36-2.37-.68-4.51-1.64-6.33-2.85,1.74,2.77,4.15,5.36,7.26,7.64Z"/>
      </g>
    </g>
  </g>
</svg>