<?xml version="1.0" encoding="UTF-8"?>
<svg id="_レイヤー_2" data-name="レイヤー 2" xmlns="http://www.w3.org/2000/svg" viewBox="0 0 116.2 116.21">
  <defs>
    <style>
      .cls-1 {
        fill: #fff;
      }

      .cls-2 {
        fill: #6bb881;
      }
    </style>
  </defs>
  <g id="_ガイドライン" data-name="ガイドライン">
    <g>
      <path class="cls-2" d="m58.1,116.21C26.06,116.21,0,90.14,0,58.1S26.06,0,58.1,0s58.1,26.06,58.1,58.1-26.06,58.1-58.1,58.1Zm0-106.21c-26.52,0-48.1,21.58-48.1,48.1s21.58,48.1,48.1,48.1,48.1-21.58,48.1-48.1S84.62,10,58.1,10Z"/>
      <g>
        <path class="cls-2" d="m93.7,57.14c-2.37-2.5-6.48-4.01-11.05-4.08,4.19-1.82,7.41-4.79,8.64-8,.22-.58-.05-1.23-.61-1.48-3.14-1.4-7.52-1.23-11.77.46,3.18-3.28,5.01-7.26,4.92-10.7-.02-.62-.51-1.12-1.13-1.13-3.44-.09-7.42,1.75-10.7,4.92,1.68-4.25,1.85-8.63.46-11.77-.25-.57-.9-.83-1.48-.61-3.21,1.23-6.18,4.45-8,8.64-.07-4.57-1.59-8.68-4.08-11.05-.45-.43-1.15-.43-1.6,0-2.5,2.37-4.01,6.48-4.08,11.05-1.82-4.19-4.79-7.41-8-8.64-.58-.22-1.23.05-1.48.61-1.4,3.14-1.23,7.52.46,11.77-3.28-3.18-7.26-5.02-10.7-4.92-.62.02-1.12.51-1.13,1.13-.09,3.44,1.75,7.42,4.92,10.7-4.25-1.68-8.63-1.85-11.77-.46-.57.25-.83.9-.61,1.48,1.23,3.21,4.45,6.18,8.64,8-4.57.07-8.68,1.59-11.05,4.08-.43.45-.43,1.15,0,1.6,2.37,2.5,6.48,4.01,11.05,4.08-4.19,1.82-7.41,4.79-8.64,8-.22.58.05,1.23.61,1.48,1.41.63,3.07.94,4.86.94,2.19,0,4.57-.47,6.91-1.4-3.18,3.28-5.02,7.26-4.92,10.7.02.62.51,1.12,1.13,1.13.08,0,.16,0,.24,0,3.38,0,7.25-1.82,10.45-4.93-1.68,4.25-1.85,8.63-.45,11.77.19.43.62.69,1.06.69.14,0,.28-.02.42-.08,3.21-1.23,6.18-4.45,8-8.64.07,4.57,1.59,8.68,4.08,11.05.22.21.51.32.8.32s.58-.11.8-.32c2.5-2.37,4.01-6.48,4.08-11.05,1.82,4.19,4.79,7.41,8,8.64.14.05.28.08.42.08.45,0,.87-.26,1.06-.69,1.4-3.14,1.23-7.52-.46-11.77,3.21,3.1,7.07,4.93,10.45,4.93.08,0,.16,0,.24,0,.62-.02,1.12-.51,1.13-1.13.09-3.44-1.75-7.42-4.93-10.7,2.34.93,4.72,1.4,6.91,1.4,1.79,0,3.45-.31,4.86-.94.57-.25.83-.9.61-1.48-1.23-3.21-4.45-6.18-8.64-8,4.57-.07,8.68-1.59,11.05-4.08.43-.45.43-1.15,0-1.6h0Zm-5.1-11.83c-1.32,2.28-3.95,4.41-7.16,5.74-2.37.98-4.82,1.43-6.96,1.33-.24-.71-.53-1.4-.86-2.07,1.44-1.59,3.5-3.01,5.86-3.99,3.21-1.33,6.58-1.68,9.12-1.01h0Zm-7.16-10.71c-.35,2.61-1.96,5.58-4.42,8.04-1.81,1.81-3.91,3.17-5.94,3.89-.49-.56-1.02-1.09-1.58-1.58.72-2.02,2.08-4.12,3.89-5.94,2.46-2.46,5.43-4.07,8.04-4.42h0Zm-16.45,0c1.33-3.21,3.46-5.84,5.74-7.16.68,2.54.32,5.91-1.01,9.12-.98,2.37-2.4,4.42-3.99,5.86-.67-.33-1.36-.62-2.07-.86-.1-2.14.35-4.6,1.33-6.96Zm-6.9-9.67c1.6,2.09,2.56,5.34,2.56,8.81,0,2.56-.52,5-1.44,6.94-.37-.02-.74-.04-1.12-.04s-.75.01-1.12.04c-.92-1.94-1.44-4.38-1.44-6.94,0-3.47.96-6.72,2.56-8.81Zm-12.64,2.51c2.28,1.32,4.41,3.95,5.74,7.16.98,2.37,1.43,4.82,1.33,6.96-.71.24-1.4.53-2.07.86-1.59-1.44-3.01-3.5-3.99-5.86-1.33-3.21-1.68-6.58-1.01-9.12Zm-2.67,11.58c1.81,1.81,3.17,3.91,3.89,5.94-.56.49-1.09,1.02-1.58,1.58-2.02-.72-4.12-2.08-5.94-3.89-2.46-2.46-4.07-5.43-4.42-8.04,2.61.35,5.58,1.96,8.04,4.42Zm-15.2,6.29c2.54-.68,5.91-.32,9.12,1.01,2.37.98,4.42,2.4,5.86,3.99-.33.67-.62,1.36-.86,2.07-2.14.1-4.6-.35-6.96-1.33-3.21-1.33-5.84-3.46-7.16-5.74h0Zm6.3,10.07c2.56,0,5,.52,6.94,1.44-.02.37-.04.74-.04,1.12s.01.75.04,1.12c-1.94.92-4.38,1.44-6.94,1.44-3.47,0-6.72-.96-8.81-2.56,2.09-1.6,5.34-2.56,8.81-2.56Zm-6.3,15.2c1.32-2.28,3.95-4.41,7.16-5.74,2.37-.98,4.82-1.43,6.96-1.33.24.71.53,1.4.86,2.07-1.44,1.59-3.5,3.01-5.86,3.99-3.21,1.33-6.58,1.68-9.12,1.01Zm7.16,10.71c.35-2.61,1.96-5.58,4.42-8.04,1.81-1.81,3.91-3.17,5.94-3.89.49.56,1.02,1.09,1.58,1.58-.72,2.02-2.08,4.12-3.89,5.94-2.46,2.46-5.43,4.07-8.04,4.42h0Zm16.45,0c-1.33,3.21-3.46,5.84-5.74,7.16-.68-2.54-.32-5.91,1.01-9.12.98-2.37,2.4-4.42,3.99-5.86.67.33,1.36.62,2.07.86.1,2.14-.35,4.6-1.33,6.96h0Zm6.9,9.67c-1.6-2.09-2.56-5.34-2.56-8.81,0-2.56.52-5,1.44-6.94.37.02.74.04,1.12.04s.75-.01,1.12-.04c.92,1.94,1.44,4.38,1.44,6.94,0,3.47-.96,6.72-2.56,8.81Zm12.64-2.51c-2.28-1.32-4.41-3.95-5.74-7.16-.98-2.37-1.43-4.82-1.33-6.96.71-.24,1.4-.53,2.07-.86,1.59,1.44,3.01,3.5,3.99,5.86,1.33,3.21,1.68,6.58,1.01,9.12Zm2.67-11.58c-1.81-1.81-3.17-3.91-3.89-5.94.56-.49,1.09-1.02,1.58-1.58,2.02.72,4.12,2.08,5.94,3.89,2.46,2.46,4.07,5.43,4.42,8.04-2.61-.35-5.58-1.96-8.04-4.42h0Zm15.2-6.29c-2.54.68-5.91.32-9.12-1.01-2.37-.98-4.42-2.4-5.86-3.99.33-.67.62-1.36.86-2.07,2.14-.1,4.6.35,6.96,1.33,3.21,1.33,5.84,3.46,7.16,5.74h0Zm-6.3-10.08c-2.56,0-5-.52-6.94-1.44.02-.37.04-.74.04-1.12s-.01-.75-.04-1.12c1.94-.92,4.38-1.44,6.94-1.44,3.47,0,6.72.96,8.81,2.56-2.09,1.6-5.34,2.56-8.81,2.56Z"/>
        <path class="cls-2" d="m58.1,93.88c-.3,0-.59-.11-.81-.32-1.22-1.16-2.25-2.79-2.95-4.7-.7-1.9-1.09-4.08-1.13-6.31-.89,2.05-2.09,3.91-3.46,5.4-1.39,1.5-2.95,2.61-4.53,3.21-.14.05-.28.08-.42.08-.46,0-.88-.27-1.07-.7-.69-1.54-1.01-3.43-.93-5.47.08-2.02.55-4.19,1.37-6.27-1.57,1.51-3.34,2.76-5.13,3.6-1.8.85-3.64,1.3-5.3,1.3-.08,0-.16,0-.24,0-.62-.02-1.12-.52-1.14-1.14-.04-1.69.38-3.56,1.24-5.41.85-1.84,2.11-3.66,3.66-5.27-2.3.9-4.68,1.38-6.88,1.38-1.82,0-3.46-.32-4.86-.94-.57-.25-.84-.91-.62-1.49.6-1.58,1.72-3.14,3.21-4.53,1.49-1.38,3.35-2.57,5.4-3.46-2.23-.04-4.41-.43-6.31-1.13-1.91-.71-3.54-1.73-4.7-2.95-.43-.45-.43-1.16,0-1.61,1.16-1.22,2.79-2.25,4.7-2.95,1.9-.7,4.08-1.09,6.31-1.13-2.05-.89-3.91-2.09-5.4-3.46-1.5-1.39-2.61-2.95-3.21-4.53-.22-.58.05-1.24.62-1.49,1.54-.69,3.43-1.01,5.47-.93,2.02.08,4.19.55,6.27,1.37-1.55-1.61-2.82-3.43-3.66-5.26-.85-1.85-1.28-3.72-1.24-5.41.02-.62.52-1.12,1.14-1.14,1.69-.04,3.56.38,5.41,1.24,1.84.85,3.66,2.11,5.27,3.66-.82-2.08-1.29-4.24-1.37-6.27-.08-2.04.24-3.93.93-5.47.25-.57.91-.84,1.49-.62,1.58.6,3.14,1.72,4.53,3.21,1.38,1.49,2.57,3.35,3.46,5.4.04-2.23.43-4.41,1.13-6.31.71-1.91,1.73-3.54,2.95-4.7.45-.43,1.16-.43,1.61,0,1.22,1.16,2.25,2.79,2.95,4.7.7,1.9,1.09,4.08,1.13,6.31.89-2.05,2.09-3.91,3.46-5.4,1.39-1.5,2.95-2.61,4.53-3.21.58-.22,1.24.05,1.49.62.69,1.54,1.01,3.43.93,5.47-.08,2.02-.55,4.19-1.37,6.27,1.61-1.55,3.43-2.81,5.26-3.66,1.85-.85,3.72-1.28,5.41-1.24.62.02,1.12.52,1.14,1.14.04,1.69-.38,3.56-1.24,5.41-.85,1.84-2.11,3.66-3.66,5.26,2.08-.82,4.24-1.29,6.27-1.37,2.04-.08,3.93.24,5.47.93.57.25.84.91.62,1.49-.6,1.58-1.72,3.14-3.21,4.53-1.49,1.38-3.35,2.57-5.4,3.46,2.23.04,4.41.43,6.31,1.13,1.91.71,3.54,1.73,4.7,2.95.43.45.43,1.16,0,1.61-1.16,1.22-2.79,2.25-4.7,2.95-1.9.7-4.08,1.09-6.31,1.13,2.05.89,3.91,2.09,5.4,3.46,1.5,1.39,2.61,2.95,3.21,4.53.22.58-.05,1.24-.62,1.49-1.4.62-3.04.94-4.86.94-2.2,0-4.58-.48-6.88-1.38,1.55,1.61,2.82,3.43,3.66,5.27.85,1.85,1.28,3.72,1.24,5.41-.02.62-.52,1.12-1.14,1.14-.08,0-.16,0-.24,0-1.66,0-3.49-.45-5.3-1.3-1.79-.85-3.57-2.09-5.13-3.6.82,2.08,1.29,4.24,1.37,6.27.08,2.04-.24,3.93-.93,5.47-.19.42-.61.7-1.07.7-.14,0-.28-.03-.42-.08-1.58-.6-3.14-1.72-4.53-3.21-1.38-1.49-2.57-3.35-3.46-5.4-.04,2.23-.43,4.41-1.13,6.31-.71,1.91-1.73,3.54-2.95,4.7-.22.21-.51.32-.81.32Zm-4.88-11.41v.04c.04,2.24.43,4.44,1.13,6.35.71,1.91,1.73,3.53,2.95,4.69.22.2.5.32.8.32s.58-.11.8-.32c1.22-1.16,2.24-2.78,2.95-4.69.7-1.91,1.1-4.1,1.13-6.35v-.04s.02.04.02.04c.89,2.06,2.09,3.94,3.48,5.43,1.38,1.5,2.95,2.61,4.52,3.21.13.05.27.08.41.08.46,0,.87-.27,1.06-.69.69-1.54,1.01-3.43.93-5.47-.08-2.03-.56-4.21-1.38-6.3v-.04s.01.03.01.03c1.57,1.52,3.36,2.78,5.16,3.63,1.8.85,3.63,1.3,5.29,1.3.08,0,.16,0,.24,0,.61-.02,1.11-.51,1.12-1.12.04-1.68-.38-3.55-1.24-5.4-.85-1.85-2.13-3.68-3.69-5.29l-.03-.03h.04c2.31.93,4.7,1.41,6.91,1.41,1.82,0,3.45-.32,4.85-.94.56-.25.83-.9.61-1.47-.6-1.57-1.71-3.14-3.21-4.52-1.49-1.38-3.37-2.58-5.43-3.48l-.04-.02h.04c2.24-.04,4.44-.43,6.35-1.13,1.91-.71,3.53-1.73,4.69-2.95.42-.45.42-1.14,0-1.59h0c-1.16-1.22-2.78-2.24-4.69-2.95-1.91-.71-4.1-1.1-6.35-1.13h-.04s.04-.02.04-.02c2.06-.89,3.94-2.09,5.43-3.48,1.5-1.38,2.61-2.95,3.21-4.52.22-.57-.05-1.22-.61-1.47-1.54-.69-3.43-1.01-5.47-.93-2.03.08-4.21.56-6.3,1.38h-.04s.03-.01.03-.01c1.56-1.61,2.84-3.44,3.69-5.29.85-1.85,1.28-3.72,1.24-5.4-.02-.61-.51-1.11-1.12-1.12-1.69-.04-3.55.38-5.4,1.24-1.85.85-3.68,2.13-5.29,3.69l-.03.03v-.04c.84-2.09,1.32-4.26,1.4-6.3.08-2.04-.24-3.93-.93-5.47-.25-.56-.9-.83-1.47-.61-1.57.6-3.14,1.71-4.52,3.21-1.38,1.49-2.58,3.37-3.48,5.43l-.02.04v-.04c-.04-2.24-.43-4.44-1.13-6.35-.71-1.91-1.73-3.53-2.95-4.69-.45-.42-1.14-.42-1.59,0-1.22,1.16-2.24,2.78-2.95,4.69-.71,1.91-1.1,4.1-1.13,6.35v.04s-.02-.04-.02-.04c-.89-2.06-2.09-3.94-3.48-5.43-1.38-1.5-2.95-2.61-4.52-3.21-.57-.22-1.22.05-1.47.61-.69,1.54-1.01,3.43-.93,5.47.08,2.03.56,4.21,1.38,6.3v.04s-.01-.03-.01-.03c-1.61-1.56-3.44-2.84-5.29-3.69-1.85-.85-3.72-1.28-5.4-1.23-.61.02-1.11.51-1.12,1.12-.04,1.68.38,3.55,1.24,5.4.85,1.85,2.13,3.68,3.69,5.29l.03.03h-.04c-2.09-.84-4.26-1.32-6.3-1.4-2.04-.08-3.93.24-5.47.93-.56.25-.83.9-.61,1.47.6,1.57,1.71,3.14,3.21,4.52,1.49,1.38,3.37,2.58,5.43,3.48l.04.02h-.04c-2.24.04-4.44.43-6.35,1.13-1.91.71-3.53,1.73-4.69,2.95-.42.45-.42,1.14,0,1.59,1.16,1.22,2.78,2.24,4.69,2.95,1.91.71,4.1,1.1,6.35,1.13h.04s-.04.02-.04.02c-2.06.89-3.94,2.09-5.43,3.48-1.5,1.38-2.61,2.95-3.21,4.52-.22.57.05,1.22.61,1.47,1.4.62,3.03.94,4.85.94,2.21,0,4.6-.48,6.91-1.4h.04s-.03.01-.03.01c-1.56,1.61-2.84,3.44-3.69,5.29-.85,1.85-1.28,3.72-1.24,5.4.02.61.51,1.11,1.12,1.12.08,0,.16,0,.24,0,1.66,0,3.49-.45,5.29-1.3,1.8-.85,3.59-2.1,5.16-3.63l.03-.03v.04c-.84,2.09-1.32,4.26-1.4,6.3-.08,2.04.24,3.93.93,5.47.19.42.6.69,1.06.69.14,0,.28-.03.41-.08,1.57-.6,3.14-1.71,4.52-3.21,1.38-1.49,2.58-3.37,3.48-5.43l.02-.04Zm4.88,8.52h0c-.79-1.04-1.44-2.38-1.88-3.9-.45-1.53-.68-3.23-.68-4.93,0-2.51.51-4.98,1.44-6.95h0s0,0,0,0c.39.03.76.04,1.12.04s.73-.01,1.12-.04h0s0,0,0,0c.93,1.97,1.44,4.44,1.44,6.95,0,1.7-.24,3.4-.68,4.93-.44,1.51-1.09,2.86-1.88,3.89h0Zm-1.11-15.75c-.93,1.97-1.44,4.43-1.44,6.93,0,1.7.24,3.4.68,4.92.44,1.51,1.09,2.85,1.87,3.87.78-1.03,1.43-2.37,1.87-3.87.45-1.52.68-3.23.68-4.92,0-2.5-.51-4.97-1.44-6.93-.38.02-.76.04-1.11.04s-.73-.01-1.11-.04Zm13.76,13.24h0c-1.12-.66-2.24-1.65-3.23-2.88-1-1.24-1.86-2.72-2.51-4.29-.96-2.32-1.43-4.79-1.33-6.97h0s0,0,0,0c.7-.24,1.4-.53,2.07-.86h0s0,0,0,0c1.61,1.46,3.03,3.55,3.99,5.87.65,1.57,1.08,3.23,1.26,4.81.17,1.57.08,3.06-.25,4.31h0Zm-7.06-14.12c-.1,2.17.37,4.64,1.33,6.95.65,1.57,1.52,3.05,2.51,4.29.98,1.22,2.09,2.21,3.21,2.86.33-1.25.42-2.73.25-4.3-.17-1.58-.61-3.24-1.26-4.81-.96-2.31-2.37-4.39-3.98-5.86-.67.33-1.36.62-2.06.86Zm-18.22,14.13h0c-.33-1.26-.42-2.76-.25-4.32.17-1.58.61-3.24,1.26-4.81.96-2.32,2.38-4.4,3.99-5.87h0s0,0,0,0c.67.33,1.37.62,2.07.86h0s0,0,0,0c.1,2.18-.37,4.65-1.33,6.97h0c-.65,1.57-1.52,3.05-2.51,4.29-.99,1.23-2.1,2.22-3.23,2.87h0Zm5-14.98c-1.61,1.46-3.02,3.54-3.98,5.86-.65,1.57-1.08,3.23-1.26,4.81-.17,1.56-.09,3.05.25,4.3,1.12-.65,2.23-1.64,3.21-2.86.99-1.24,1.86-2.72,2.51-4.29h0s0,0,0,0c.96-2.31,1.43-4.78,1.33-6.95-.7-.24-1.39-.53-2.06-.86Zm31,7.83h-.01c-1.29-.17-2.7-.66-4.08-1.42-1.39-.76-2.77-1.8-3.97-3-1.78-1.78-3.16-3.89-3.9-5.94h0s0,0,0,0c.56-.49,1.09-1.02,1.58-1.58h0s0,0,0,0c2.05.74,4.16,2.12,5.94,3.9,1.2,1.2,2.24,2.57,3,3.97.76,1.38,1.25,2.79,1.42,4.08h0Zm-11.93-10.35c.74,2.05,2.12,4.15,3.89,5.93,1.2,1.2,2.57,2.24,3.96,3,1.38.75,2.78,1.24,4.06,1.42-.17-1.28-.66-2.69-1.42-4.06-.76-1.39-1.8-2.76-3-3.96-1.77-1.77-3.88-3.15-5.93-3.89-.49.56-1.02,1.08-1.57,1.57Zm-34.78,10.36h0c.17-1.3.66-2.71,1.42-4.09.76-1.39,1.8-2.77,3-3.97,1.78-1.78,3.89-3.16,5.94-3.9h0s0,0,0,0c.49.56,1.02,1.09,1.58,1.58h0s0,0,0,0c-.74,2.05-2.12,4.16-3.9,5.94-1.2,1.2-2.57,2.24-3.97,3-1.38.76-2.79,1.25-4.08,1.42h-.01Zm10.36-11.93c-2.05.74-4.15,2.12-5.93,3.89-1.2,1.2-2.24,2.57-3,3.96-.75,1.38-1.24,2.78-1.42,4.06,1.28-.17,2.69-.66,4.06-1.42,1.39-.76,2.76-1.8,3.96-3,1.77-1.77,3.15-3.88,3.89-5.93-.56-.49-1.08-1.02-1.57-1.57Zm40.73,1.56c-.5,0-1.02-.03-1.54-.09-1.58-.17-3.24-.61-4.81-1.26-2.32-.96-4.4-2.38-5.87-3.99h0s0,0,0,0c.33-.67.62-1.37.86-2.07h0s0,0,0,0c2.18-.1,4.65.37,6.97,1.33,1.57.65,3.05,1.52,4.29,2.51,1.23.99,2.22,2.1,2.87,3.23h0s-.01.01-.01.01c-.83.22-1.77.34-2.77.34Zm-12.2-5.34c1.46,1.61,3.54,3.02,5.86,3.98,1.57.65,3.23,1.08,4.81,1.26,1.56.17,3.05.09,4.3-.25-.65-1.12-1.64-2.23-2.86-3.21-1.24-.99-2.72-1.86-4.29-2.51-2.31-.96-4.78-1.43-6.95-1.33-.24.7-.53,1.39-.86,2.06Zm-43.26,5.34c-1,0-1.94-.11-2.77-.34h-.01s0-.01,0-.01c.65-1.12,1.64-2.24,2.87-3.23,1.24-1,2.72-1.87,4.29-2.51,2.32-.96,4.79-1.43,6.97-1.33h0s0,0,0,0c.24.7.53,1.4.86,2.07h0s0,0,0,0c-1.46,1.61-3.55,3.03-5.87,3.99-1.57.65-3.23,1.08-4.81,1.26-.52.06-1.04.09-1.54.09Zm-2.76-.35c1.25.33,2.73.42,4.3.25,1.58-.17,3.24-.61,4.81-1.26,2.31-.96,4.39-2.37,5.86-3.98-.33-.67-.62-1.36-.86-2.06-2.17-.1-4.64.37-6.95,1.33-1.57.65-3.05,1.52-4.29,2.51-1.22.98-2.21,2.09-2.86,3.21Zm54.7-10.06c-2.51,0-4.98-.51-6.95-1.44h0s0,0,0,0c.03-.39.04-.76.04-1.12s-.01-.73-.04-1.12h0s0,0,0,0c1.97-.93,4.44-1.44,6.95-1.44,1.7,0,3.4.24,4.93.68,1.51.44,2.86,1.09,3.89,1.88h0s0,.01,0,.01c-1.03.79-2.37,1.44-3.89,1.88-1.53.45-3.23.68-4.93.68Zm-6.93-1.45c1.97.93,4.43,1.44,6.93,1.44,1.7,0,3.4-.24,4.92-.68,1.51-.44,2.85-1.09,3.87-1.87-1.03-.78-2.37-1.43-3.87-1.87-1.52-.45-3.23-.68-4.92-.68-2.5,0-4.97.51-6.93,1.44.02.38.04.76.04,1.11s-.01.73-.04,1.11Zm-41.48,1.45c-1.7,0-3.4-.24-4.93-.68-1.51-.44-2.86-1.09-3.89-1.88h0s0-.01,0-.01c1.03-.79,2.37-1.44,3.89-1.88,1.53-.45,3.23-.68,4.93-.68,2.51,0,4.98.51,6.95,1.44h0s0,0,0,0c-.02.38-.04.76-.04,1.12s.01.73.04,1.12h0s0,0,0,0c-1.97.93-4.44,1.44-6.95,1.44Zm-8.8-2.57c1.03.78,2.37,1.43,3.87,1.87,1.52.45,3.23.68,4.92.68,2.5,0,4.97-.51,6.93-1.44-.02-.38-.04-.76-.04-1.11s.01-.73.04-1.11c-1.97-.93-4.43-1.44-6.93-1.44-1.7,0-3.4.24-4.92.68-1.51.44-2.85,1.09-3.87,1.87Zm49.99-5.55c-.2,0-.4,0-.6-.01h0s0,0,0,0c-.24-.7-.53-1.4-.86-2.07h0s0,0,0,0c1.46-1.61,3.55-3.03,5.87-3.99,1.57-.65,3.23-1.08,4.81-1.26,1.57-.17,3.06-.08,4.31.25h.01s0,.01,0,.01c-.65,1.12-1.64,2.24-2.87,3.23-1.24,1-2.72,1.86-4.29,2.51-2.11.87-4.34,1.34-6.36,1.34Zm-.6-.03c2.17.1,4.64-.37,6.95-1.33,1.57-.65,3.05-1.52,4.29-2.51,1.22-.98,2.21-2.09,2.86-3.21-1.25-.33-2.73-.42-4.3-.25-1.58.17-3.24.61-4.81,1.26-2.31.96-4.39,2.37-5.86,3.98.33.67.62,1.36.86,2.06Zm-33.37.03c-2.02,0-4.26-.47-6.36-1.34-1.57-.65-3.05-1.52-4.29-2.51-1.23-.99-2.22-2.1-2.87-3.23h0s.01-.01.01-.01c1.25-.33,2.74-.42,4.31-.25,1.58.17,3.24.61,4.81,1.26,2.32.96,4.4,2.38,5.87,3.99h0s0,0,0,0c-.33.67-.62,1.37-.86,2.07h0s0,0,0,0c-.2,0-.4.01-.6.01Zm-13.51-7.08c.65,1.12,1.64,2.23,2.86,3.21,1.24.99,2.72,1.86,4.29,2.51,2.31.96,4.78,1.43,6.95,1.33.24-.7.53-1.39.86-2.06-1.46-1.61-3.54-3.02-5.86-3.98-1.57-.65-3.23-1.08-4.81-1.26-1.56-.17-3.05-.09-4.3.25Zm17.5,1.23h0c-2.05-.74-4.16-2.12-5.94-3.9-1.2-1.2-2.24-2.57-3-3.97-.76-1.38-1.25-2.79-1.42-4.08h0s.01,0,.01,0c1.29.17,2.7.66,4.08,1.42,1.39.76,2.77,1.8,3.97,3h0c1.78,1.78,3.16,3.89,3.9,5.94h0s0,0,0,0c-.56.49-1.09,1.02-1.58,1.58h0Zm-10.35-11.93c.17,1.28.66,2.69,1.42,4.06.76,1.39,1.8,2.76,3,3.96,1.77,1.77,3.88,3.15,5.93,3.89.49-.56,1.02-1.08,1.57-1.57-.73-2.05-2.12-4.15-3.89-5.93-1.2-1.2-2.57-2.24-3.96-3-1.38-.75-2.78-1.24-4.06-1.42Zm36.33,11.93h0c-.49-.56-1.02-1.09-1.58-1.58h0s0,0,0,0c.74-2.05,2.12-4.16,3.9-5.94,1.2-1.2,2.57-2.24,3.97-3,1.38-.76,2.79-1.25,4.08-1.42h.01s0,0,0,0c-.17,1.29-.66,2.7-1.42,4.08-.76,1.39-1.8,2.77-3,3.97-1.78,1.78-3.89,3.16-5.94,3.9h0Zm-1.57-1.59c.56.49,1.08,1.02,1.57,1.57,2.05-.73,4.15-2.12,5.93-3.89,1.2-1.2,2.24-2.57,3-3.96.75-1.38,1.24-2.78,1.42-4.06-1.28.17-2.69.66-4.06,1.42-1.39.76-2.76,1.8-3.96,3-1.77,1.77-3.15,3.88-3.89,5.93Zm-3.78-2.52h0c-.67-.34-1.37-.62-2.07-.86h0s0,0,0,0c-.1-2.18.37-4.65,1.33-6.97h0s0,0,0,0c.65-1.57,1.52-3.05,2.51-4.29.99-1.23,2.1-2.22,3.23-2.87h0s0,0,0,0c.33,1.25.42,2.74.25,4.31-.17,1.58-.61,3.24-1.26,4.81-.96,2.32-2.38,4.4-3.99,5.87h0Zm-2.06-.87c.7.24,1.39.53,2.06.86,1.61-1.46,3.02-3.54,3.98-5.86.65-1.57,1.08-3.23,1.26-4.81.17-1.56.08-3.05-.25-4.3-1.12.65-2.23,1.64-3.21,2.86-.99,1.24-1.86,2.72-2.51,4.29-.96,2.31-1.43,4.78-1.33,6.95Zm-13.22.88h0c-1.61-1.47-3.03-3.55-3.99-5.87-.65-1.57-1.08-3.23-1.26-4.81-.17-1.57-.08-3.06.25-4.31h0s0,0,0,0c1.12.65,2.24,1.64,3.23,2.87,1,1.24,1.86,2.72,2.51,4.29.96,2.32,1.43,4.79,1.33,6.97h0s0,0,0,0c-.7.24-1.4.53-2.07.86h0Zm-4.99-14.98c-.33,1.25-.42,2.73-.25,4.3.17,1.58.61,3.24,1.26,4.81.96,2.31,2.37,4.39,3.98,5.86.67-.33,1.36-.62,2.06-.86.1-2.17-.37-4.64-1.33-6.95-.65-1.57-1.52-3.05-2.51-4.29-.98-1.22-2.09-2.21-3.21-2.86Zm13.76,13.24h0c-.39-.03-.76-.04-1.12-.04s-.73.01-1.12.04h0s0,0,0,0c-.93-1.97-1.44-4.44-1.44-6.95,0-1.7.24-3.4.68-4.93.44-1.51,1.09-2.86,1.88-3.89h0s0,0,0,0c.79,1.03,1.44,2.37,1.88,3.89.45,1.53.68,3.23.68,4.93,0,2.51-.51,4.98-1.44,6.95h0Zm-1.13-15.74c-.78,1.03-1.43,2.37-1.87,3.87-.45,1.52-.68,3.23-.68,4.92,0,2.5.51,4.97,1.44,6.93.38-.02.76-.04,1.11-.04s.73.01,1.11.04c.93-1.97,1.44-4.43,1.44-6.93,0-1.7-.24-3.4-.68-4.92-.44-1.51-1.09-2.85-1.87-3.87Z"/>
      </g>
      <circle class="cls-1" cx="58.1" cy="57.95" r="14.16"/>
    </g>
  </g>
</svg>