<?xml version="1.0" encoding="UTF-8"?>
<svg id="_レイヤー_2" data-name="レイヤー 2" xmlns="http://www.w3.org/2000/svg" viewBox="0 0 116.2 116.21">
  <defs>
    <style>
      .cls-1 {
        fill: #ea986d;
      }
    </style>
  </defs>
  <g id="_テキスト" data-name="テキスト">
    <g>
      <path class="cls-1" d="m58.1,116.21C26.06,116.21,0,90.14,0,58.1S26.06,0,58.1,0s58.1,26.06,58.1,58.1-26.06,58.1-58.1,58.1Zm0-106.21c-26.52,0-48.1,21.58-48.1,48.1s21.58,48.1,48.1,48.1,48.1-21.58,48.1-48.1S84.62,10,58.1,10Z"/>
      <path class="cls-1" d="m27.36,77.92c3.4,8.83,11.28,13.14,12.96,17.73,1.95,5.33,2.04,9.72,6.62,12.74,2.24,1.48,2.1-.06,1.85-.72-.89-2.33-.07-3.76.72-6.42.49-1.66,1.08-3.46.3-4.69-.45-.71.57-.26,1.5-.24.51.01,1.85.03,2.9-.4,1.51-.62,3.31-1.5,4.56-1.63,1.87-.2,3.54-.21,1.89-1.4-2.72-1.97-6.03-2.42-11.78-2.69-4.16-.2-8.74-3.34-10.38-8.96-2.85-9.72,6.33-18.18,9.98-20.26,5.88-3.36,12.21-3.14,13.47-2.81,1.73.46-2.84,5.99-4.45,6.64-3.35,1.34.38,2.55,3.01,2.52,1.95-.02,6.58-.08,9.5-3.7,2.34-2.89,2.73-3.43,4.75-3.1,2.02.33,13.03,3.39,16.59,4.34,4.47,1.2,6.62.21,6.5-2.37-.13-2.96-4.54-5.36-4.99-8.44-.49-3.4-1.15-9.78-11.19-16.95-8-5.71-20.98-6.32-27.68-5.45-2.97.39-3.76.63-5.32-.01-4.5-1.86-7.56-2.76-12.28-3.05-3.88-.24-8.33,1.62-9.98,2.97-.71.58-.66,1.26.24,1.45,2.2.46,7.4,2.08,10.31,5.29.48.53,1.45,1.06.04,2.32-8.92,7.93-15.59,21.89-9.66,37.31Zm51.52-25.48c0-2.2,3.46-2.03,3.21,0-.3,2.41-3.21,2.2-3.21,0Z"/>
    </g>
  </g>
</svg>