<?xml version="1.0" encoding="UTF-8"?>
<svg id="_レイヤー_2" data-name="レイヤー 2" xmlns="http://www.w3.org/2000/svg" viewBox="0 0 156.55 88.54">
  <defs>
    <style>
      .cls-1 {
        letter-spacing: .4em;
      }

      .cls-2 {
        letter-spacing: .4em;
      }

      .cls-3, .cls-4 {
        fill: #fff;
      }

      .cls-5 {
        letter-spacing: .38em;
      }

      .cls-4 {
        font-family: ITCAvantGardeStd-Bk, 'ITC Avant Garde Gothic Std';
        font-size: 9.47px;
      }
    </style>
  </defs>
  <g id="_テキスト" data-name="テキスト">
    <g>
      <path class="cls-3" d="m104.91,49.91h-1.34v-1h1.34v-.75c0-2.82,2.22-2.9,3.2-2.9v1c-.63.03-1.97.03-1.97,2.02v.63h1.97v1h-1.97v8.12h-1.24v-8.12Z"/>
      <path class="cls-3" d="m116.32,53.83c.07,2.29,2.02,3.39,3.56,3.37,1.41,0,2.54-.7,3.14-1.88h1.31c-.42.98-1.07,1.73-1.85,2.22-.76.49-1.66.75-2.59.75-3.17,0-4.82-2.53-4.82-4.8,0-2.68,2.07-4.83,4.8-4.83,1.29,0,2.48.46,3.34,1.29,1.05,1.02,1.56,2.42,1.42,3.88h-8.31Zm7.07-1c-.08-1.59-1.63-3.15-3.51-3.1-1.97,0-3.43,1.44-3.54,3.1h7.05Z"/>
      <path class="cls-3" d="m133.75,53.83c.07,2.29,2.02,3.39,3.56,3.37,1.41,0,2.54-.7,3.14-1.88h1.31c-.42.98-1.07,1.73-1.85,2.22-.76.49-1.66.75-2.59.75-3.17,0-4.82-2.53-4.82-4.8,0-2.68,2.07-4.83,4.8-4.83,1.29,0,2.48.46,3.34,1.29,1.05,1.02,1.56,2.42,1.42,3.88h-8.31Zm7.07-1c-.08-1.59-1.63-3.15-3.51-3.1-1.97,0-3.43,1.44-3.54,3.1h7.05Z"/>
      <path class="cls-3" d="m150.62,45.49h1.25v12.55h-1.25v-12.55Z"/>
    </g>
    <text class="cls-4" transform="translate(102.3 26.85)"><tspan class="cls-2" x="0" y="0">onoj</tspan><tspan class="cls-5" x="35.89" y="0">y</tspan><tspan class="cls-1" x="44.31" y="0">o</tspan></text>
    <g>
      <path class="cls-3" d="m105.32,73.95c0-.97-.64-1.51-1.56-1.51-1,0-1.61.68-1.57,1.47.03.86.69,1.22,1.79,1.54,1.3.36,2.76.73,2.83,2.67.07,1.68-1.29,2.89-3.01,2.89-1.47,0-3.09-.93-3.11-2.84h1.23c.05,1.25.98,1.81,1.9,1.81,1.05,0,1.78-.78,1.76-1.71-.03-1.03-.71-1.46-2.28-1.91-1.3-.39-2.32-.91-2.35-2.35,0-1.64,1.3-2.61,2.84-2.61,1.27,0,2.69.69,2.78,2.54h-1.23Z"/>
      <path class="cls-3" d="m115.06,76.2c0-2.54,1.89-4.79,4.82-4.79s4.84,2.25,4.84,4.81-1.89,4.79-4.84,4.79-4.82-2.23-4.82-4.79v-.02Zm1.23.03c0,2.06,1.57,3.62,3.59,3.62s3.59-1.56,3.59-3.64-1.56-3.64-3.59-3.64-3.59,1.56-3.59,3.64v.02Z"/>
      <path class="cls-3" d="m133.37,71.66h1.18v1.49c.66-1.35,1.84-1.71,2.91-1.74v1.24h-.12c-1.76,0-2.74,1.1-2.74,3.16v4.96h-1.23v-9.1Z"/>
      <path class="cls-3" d="m154.02,80.77h-1.25v-1.88c-.71,1.37-2.1,2.13-3.72,2.13-2.96,0-4.72-2.3-4.72-4.81,0-2.67,1.95-4.81,4.72-4.81,1.94,0,3.28,1.13,3.72,2.17v-1.91h1.25v9.1Zm-8.46-4.53c.02,1.64,1.15,3.62,3.65,3.62,1.61,0,2.79-.93,3.28-2.22.2-.44.31-.95.31-1.44.02-.51-.09-1.01-.29-1.45-.51-1.25-1.73-2.18-3.33-2.18-2.1,0-3.62,1.62-3.62,3.65v.02Z"/>
    </g>
    <path class="cls-3" d="m44.27,0C19.82,0,0,19.82,0,44.27s19.82,44.27,44.27,44.27,44.27-19.82,44.27-44.27S68.72,0,44.27,0Zm0,81.1c-20.34,0-36.83-16.49-36.83-36.83S23.93,7.44,44.27,7.44s36.83,16.49,36.83,36.83-16.49,36.83-36.83,36.83Z"/>
    <path class="cls-3" d="m14.15,50.83c-2.2,2.79,1.53,6.19,6.77-.4,1.82-2.29,5.66-2.75,8.32-3.87,1.07-.45,2.11-.89,3.11-1.29.36-.15.71-.29,1.06-.43,2.37,2.21,6.56,5.01,12.45,7.29,3.44,1.33,1.44-2.87-.38-7.52-.34-.87-.68-1.75-.97-2.62-.27-.8-.5-1.59-.67-2.33l1.02-.24c.18.8.45,1.67.75,2.55,1.46.01,4.32.81,5.4,1.23,3.88,1.49,5.4,3.26,8.22,5.97,5.42,9.19-2.61,11.13-2.19,16.34.51.42,5.34.19,8.52-1.76,0,0,3.41,3.74,8.79,4.98-.12-3.19-1.68-7.77-3.89-12.07-1.22-2.38-1.07-3.79-1.68-6.97-.9-9.89-6.21-18.09-16.04-23.75-.13-.08-.29-.11-.43-.16-.63-3.34,3.53-8.51-.77-8.71-4.38-.2-8.4,4.33-12.47,6.67-11.22.63-21.12,7.41-22.38,20.52-.43,4.45-.34,3.79-2.54,6.59Zm9.45-10.36c.27-.7,1.05-1.04,1.74-.77s1.04,1.05.77,1.74-1.05,1.04-1.74.77-1.04-1.05-.77-1.74Z"/>
  </g>
</svg>