<?xml version="1.0" encoding="UTF-8"?>
<svg id="_レイヤー_2" data-name="レイヤー 2" xmlns="http://www.w3.org/2000/svg" xmlns:xlink="http://www.w3.org/1999/xlink" viewBox="0 0 116.21 116.21">
  <defs>
    <style>
      .cls-1 {
        fill: none;
      }

      .cls-2 {
        clip-path: url(#clippath);
      }

      .cls-3 {
        fill: #e78385;
      }
    </style>
    <clipPath id="clippath">
      <circle class="cls-1" cx="58.1" cy="58.1" r="58.1"/>
    </clipPath>
  </defs>
  <g id="_テキスト" data-name="テキスト">
    <g>
      <path class="cls-3" d="m58.1,116.21C26.06,116.21,0,90.14,0,58.1S26.06,0,58.1,0s58.1,26.06,58.1,58.1-26.06,58.1-58.1,58.1Zm0-106.21c-26.52,0-48.1,21.58-48.1,48.1s21.58,48.1,48.1,48.1,48.1-21.58,48.1-48.1S84.63,10,58.1,10Z"/>
      <g class="cls-2">
        <path class="cls-3" d="m-23.42,56.56c4.12,1.15,5.34,4.07,8.63,4.13,2.3.04,1.66.59.9,1.72-.9,1.33-.92,2.69-.82,4.58.1,2.01,1.53,5.77.47,8.01-.72,1.53,2.6,1.09,4.87-1.24,4.65-4.76,2.45-8.38,5.16-12.11,1.56-2.15,12.08-6.9,24.34-5.72,14.28,1.38,27.15,6.52,29.67,7.48,2.96,1.12,5.47,2.11,5.07,3.12-1.12,2.81-8.22,3.88-12.43,2.75-3.2-.85-1.04,4.07,4.95,5.78,7.48,2.13,12.65-1.74,16.72-3.27,2.12-.79,3.96-.15,5.81.47,1.77.6,8.96,3.28,15.17,4.72,6.21,1.44,7.31,2.17,10.2,1,2.47-1,2.2-5.58-.22-7.66-2.14-1.83-2.84-3.41-3.27-4.69-1.07-3.18-.35-5.64-4.28-12.12-4.03-6.64-11.45-9.89-19.61-12.48-4.33-1.37-7.34-2.38-8.18-3.46-4.8-6.24-10.2-8.47-13.56-9.09-5.7-1.05-9.12-.06-7.83.94,2.72,2.11,4.95,4.32,6.19,5.87,1.06,1.33-1.2,1.22-2.39,1.16-2.55-.14-7.66-.32-18.78,2.71-16.64,4.53-26.37,13.18-28.82,14.25-1.3.57-3.67,2.14-5.97,2.17-2.02.02-4.97-.48-7.44-.57-5.14-.19-6.36,1.06-4.57,1.56Zm100.63,7.47c.23-2.19,3.65-1.66,3.19.33-.55,2.36-3.42,1.86-3.19-.33Z"/>
      </g>
    </g>
  </g>
</svg>