<?xml version="1.0" encoding="UTF-8"?>
<svg id="_レイヤー_2" data-name="レイヤー 2" xmlns="http://www.w3.org/2000/svg" viewBox="0 0 52.35 47.99">
  <defs>
    <style>
      .cls-1 {
        fill: #efb66d;
      }
    </style>
  </defs>
  <g id="_テキスト" data-name="テキスト">
    <g>
      <path class="cls-1" d="m28.37,29.13c.25-1.45.74-2.55,1.44-3.27.48-.5.93-.67,1.16-.73l2.16.88c.21.08.45.04.61-.12.16-.16.22-.39.14-.61,0-.01-.36-1.01-.75-2.05.04-.28.1-.86-.01-1.53-.21-1.26-.89-2.22-1.97-2.78-.72-.38-1.49-.52-2.29-.42-.69.08-1.39.34-2.14.79-1.32.78-2.57,2.01-3.78,3.19-.15.14-.29.29-.43.42-.51-1.56-.84-3.19-1.14-4.7-.33-1.63-.64-3.16-1.12-4.34-1.23-2.99-3.13-5.16-5.83-6.63-2.31-1.26-4.83-1.81-7.04-2.29-1.44-.31-2.79-.61-3.84-1.05-.21-.09-.46-.04-.63.12-.17.16-.21.41-.12.63.17.41.23.9.29,1.42.1.85.21,1.82.85,2.76.71,1.04,1.97,1.84,3.83,2.44.3.1.62-.07.72-.37.1-.3-.07-.62-.37-.72-3.54-1.15-3.71-2.65-3.9-4.24-.02-.2-.05-.4-.08-.6.91.29,1.93.51,3,.74,4.25.93,9.54,2.08,12.06,8.24.44,1.08.74,2.56,1.06,4.14.48,2.37,1.01,5.05,2.21,7.34.1.19.3.31.5.31.09,0,.18-.02.27-.07.28-.15.39-.49.24-.77-.19-.37-.37-.76-.53-1.15.27-.26.54-.52.81-.78,1.16-1.14,2.36-2.31,3.56-3.02,1.27-.75,2.32-.86,3.31-.34.75.39,1.21,1.04,1.37,1.92.12.69,0,1.28,0,1.31-.02.11-.02.22.02.32.12.33.25.67.36.97l-1.13-.46c-.09-.04-.19-.05-.29-.04-.24.03-1.1.21-1.96,1.09-.87.89-1.46,2.2-1.75,3.88,0,0,0,0,0,0-.7,4.33-2.74,7.42-6.04,9.17-2.3,1.22-4.76,1.53-6.44,1.42.13-.38.26-.76.39-1.16.1-.3-.07-.62-.37-.72-.3-.1-.62.07-.72.37-.95,2.97-2.02,5.27-3.16,6.82-1.14,1.54-2.02,1.9-2.45,1.97-.37.06-.68-.03-.86-.27-.21-.28-.23-.7-.05-1.09.13-.29.01-.63-.28-.76-.29-.13-.63-.01-.76.28-.37.78-.3,1.65.17,2.27.22.28.51.5.84.62.22.08.45.12.69.13.14,0,.29-.01.44-.04.73-.13,1.87-.65,3.17-2.42.9-1.22,1.75-2.86,2.53-4.88.28.03.59.04.91.05,1.81.02,4.22-.37,6.48-1.57,1.65-.88,3.03-2.08,4.12-3.58,1.27-1.75,2.12-3.91,2.52-6.42Z"/>
      <path class="cls-1" d="m4.43,42.57c-1.03.68-1.6,1.76-1.45,2.74.11.72.61,1.27,1.33,1.48.05.01.1.02.15.02.25,0,.49-.16.56-.42.09-.3-.09-.62-.4-.71-.29-.08-.46-.27-.51-.55-.07-.44.2-1.11.95-1.61.26-.17.34-.53.16-.79-.17-.26-.53-.34-.79-.16Z"/>
      <path class="cls-1" d="m13.6,31.59c.5.13.97.24,1.42.35.13.03.26.06.39.09.04.01.09.02.13.02.26,0,.5-.17.56-.44.08-.31-.11-.62-.42-.69-.13-.03-.26-.06-.39-.09-1.67-.41-3.75-.91-5.61-1.67-2.08-.85-3.46-1.86-4.1-3-.16-.28-.5-.37-.78-.22-.28.16-.37.5-.22.78.78,1.39,2.31,2.54,4.67,3.5,1.03.42,2.12.77,3.17,1.06-2.25,3.34-5.49,7.32-10.67,9.45-.02,0-.04.01-.06.02-.47.17-.88.44-1.17.78-.29.34-.47.74-.51,1.16-.08.77.29,1.48.99,1.91.09.06.19.08.29.09.19,0,.39-.1.49-.27.17-.27.08-.62-.19-.79-.33-.2-.49-.49-.45-.81.04-.39.37-.75.86-.95.03,0,.07-.02.1-.03,1.33-.54,2.62-1.23,3.83-2.06,1.08-.74,2.14-1.61,3.13-2.58,1.56-1.53,3-3.3,4.53-5.6Z"/>
      <path class="cls-1" d="m13.05,5.08s.05,0,.08,0c.31-.04.53-.33.49-.64-.05-.42.01-.99.09-1.66.03-.3.07-.62.1-.95.96.83,1.93,1.55,2.88,2.26,3.99,2.96,7.14,5.29,6.36,13.25-.03.32.2.6.51.63.02,0,.03,0,.05,0,.29,0,.55-.22.58-.52.2-2.05.16-3.82-.14-5.39-.27-1.44-.74-2.7-1.45-3.85-1.31-2.13-3.22-3.55-5.23-5.04-1.23-.91-2.49-1.85-3.69-3-.17-.16-.41-.2-.63-.11-.21.09-.35.3-.35.53,0,.72-.07,1.44-.14,2.06-.08.74-.16,1.38-.08,1.94.04.29.28.5.56.5Z"/>
      <path class="cls-1" d="m30.71,21.83c0-.41-.32-.74-.73-.74-.41,0-.74.32-.74.73,0,.41.32.74.73.74.41,0,.74-.32.74-.73Z"/>
      <path class="cls-1" d="m6.14,15.41c1.34.65,2.67.89,2.72.9.03,0,.06,0,.09,0,.28,0,.52-.19.57-.48.05-.31-.15-.61-.47-.66-.01,0-1.24-.22-2.44-.81-1.47-.72-2.21-1.63-2.2-2.71,0-.32-.25-.58-.57-.58-.32,0-.58.25-.58.57-.02,1.54.98,2.84,2.87,3.76Z"/>
      <path class="cls-1" d="m5.81,19.91c1.22.68,2.43.94,2.48.95.04,0,.08.01.11.01.27,0,.51-.18.57-.45.07-.31-.13-.61-.44-.68-.04,0-4.18-.93-4.18-3.62,0-.31-.25-.57-.57-.57h0c-.32,0-.57.26-.57.57,0,1.53.91,2.83,2.62,3.79Z"/>
      <path class="cls-1" d="m3.11,21.4c.4,2.37,2.34,3.01,3.62,3.44.06.02.12.03.18.03.24,0,.47-.15.55-.39.1-.3-.06-.63-.36-.73-1.2-.4-2.57-.86-2.85-2.55-.05-.31-.35-.52-.66-.47-.31.05-.52.35-.47.66Z"/>
      <path class="cls-1" d="m52.09,30.88l-7.41-12.09c-.51-.83-1.59-1.09-2.42-.58l-7.73,4.73c-.26.16-.34.5-.18.77.16.26.5.34.77.18l7.65-4.68-4.9,13.18c-.05.14-.14.25-.26.32-.12.08-.26.11-.41.09l-7.85-.92h0s0,0,0,0h0c-.29-.03-.55.16-.61.45-.05.3.14.59.45.64.01,0,.02,0,.04,0h0s4.92.58,4.92.58l-3.89,10.47-3.89-6.35h0c-.08-.14-.21-.24-.38-.27-.3-.05-.59.14-.64.45-.02.14,0,.27.07.38h0s0,0,0,0c0,0,0,0,0,0l3.99,6.52c.51.83,1.59,1.09,2.42.58l19.69-12.06c.83-.51,1.09-1.59.58-2.42Zm-20.77,13.48l3.96-10.67,1.79.21c.39.05.79-.04,1.12-.25.33-.2.59-.52.73-.88l.63-1.69,11.3,1.32-19.53,11.96Zm8.63-14.35l3.89-10.47,7.21,11.77-11.1-1.29Z"/>
    </g>
  </g>
</svg>