<?xml version="1.0" encoding="UTF-8"?>
<svg id="_レイヤー_2" data-name="レイヤー 2" xmlns="http://www.w3.org/2000/svg" viewBox="0 0 18.89 29.54">
  <defs>
    <style>
      .cls-1 {
        fill: #61bccc;
      }
    </style>
  </defs>
  <g id="_テキスト" data-name="テキスト">
    <g>
      <path class="cls-1" d="m6.66,15.72c.58,1.42,1.48,3.13,2.36,4.31.32.43.76.93.76.93.14.18.39.23.6.13l2.54-1.3c.22-.11.32-.38.23-.61l-.93-2.28c-.09-.23-.34-.35-.58-.28l-1.12.32c-.22.06-.46-.04-.56-.25,0,0-.51-.78-.97-1.9-.46-1.12-.64-2.04-.64-2.04-.07-.22.03-.46.23-.57l1.03-.55c.22-.12.31-.38.22-.61l-.93-2.28c-.09-.23-.35-.35-.59-.28l-2.73.84c-.22.07-.36.28-.34.51,0,0,.04.67.11,1.2.2,1.46.75,3.3,1.33,4.73Z"/>
      <path class="cls-1" d="m15.45,0H3.43C1.54,0,0,1.54,0,3.43v20.62c0,3.03,2.46,5.49,5.49,5.49h7.9c3.03,0,5.49-2.46,5.49-5.49V3.43c0-1.9-1.54-3.43-3.43-3.43Zm-6.01,27.76c-.47,0-.85-.38-.85-.85s.38-.85.85-.85.85.38.85.85-.38.85-.85.85ZM6.5.79h4.36c.25,0,.44.2.44.44s-.2.44-.44.44h-4.36c-.25,0-.44-.2-.44-.44,0-.24.2-.44.44-.44ZM1.94,24.05V4.12h15.01v19.93c0,.22-.02.44-.06.65H2c-.04-.21-.06-.43-.06-.65Z"/>
    </g>
  </g>
</svg>