<?xml version="1.0" encoding="UTF-8"?>
<svg id="_レイヤー_2" data-name="レイヤー 2" xmlns="http://www.w3.org/2000/svg" viewBox="0 0 116.2 116.21">
  <defs>
    <style>
      .cls-1 {
        fill: #64bbba;
      }
    </style>
  </defs>
  <g id="_ガイドライン" data-name="ガイドライン">
    <g>
      <path class="cls-1" d="m58.1,116.21C26.06,116.21,0,90.14,0,58.1S26.06,0,58.1,0s58.1,26.06,58.1,58.1-26.06,58.1-58.1,58.1Zm0-106.21c-26.52,0-48.1,21.58-48.1,48.1s21.58,48.1,48.1,48.1,48.1-21.58,48.1-48.1S84.62,10,58.1,10Z"/>
      <g>
        <path class="cls-1" d="m49.72,74.01c-.32.94-.86,1.48-1.55,2.36-.88,1.13-1.29,2.86-1.17,4.27.14,1.58.97,2.48,1.4,3.91.69,2.28-2.91,4-4.16,5.55-1.29,1.61-3.08,4.56-1.35,6.53,1.32,1.51,3.37,1.5,5.14.83,3.29-1.26,6.51-2.79,9.66-4.36,3.31-1.65,7.3-3.32,9.78-6.15,2.73-3.12,4.48-7.23,3.62-11.41-.46-2.21-1.83-3.87-1.83-6.25,0-.17,0-.35,0-.53,4.19-1.85,8.16-4.31,11.18-7.83,1.66-1.94,3.35-4.13,4.67-6.33.86-1.43,1.57-2.37,2.84-3.44.05-.04.1-.09.16-.13,0,.96-.12,1.92-.4,2.84-.22.7.92.94,1.11.3.42-1.35.51-2.71.44-4.11.52-.45,1.04-.9,1.55-1.37.36-.33.52-.93-.05-1.16-.65-.25-1.31-.44-1.98-.58-.84-3.48-2.24-6.53-4.82-9.11-1.04-1.03-2.15-1.99-3.26-2.94.47,0,.93-.13,1.37-.38,1.45-.83,1.99-2.54,1.32-4.06-.01-.03-.03-.05-.04-.08,0-.02-.02-.04-.03-.06-.83-1.43-2.69-2.1-4.19-1.24-1.07.62-1.72,1.83-1.62,3.02-.78-.73-1.53-1.48-2.22-2.3.83-1.19.99-2.74.35-4.19-.01-.03-.03-.05-.04-.07,0-.02-.02-.04-.03-.06-1.11-1.92-3.61-2.88-5.63-1.71-1.91,1.11-2.89,3.62-1.72,5.64,1.11,1.92,3.61,2.88,5.63,1.71.24-.14.47-.3.67-.47.29.33.58.64.88.95-.78-.2-1.63-.12-2.4.32-1.59.92-2.37,3.01-1.41,4.68.92,1.6,3,2.36,4.67,1.4,1.47-.85,2.1-2.48,1.65-4.05,1.38,1.2,2.8,2.36,4.13,3.63,2.81,2.67,4.48,5.54,5.45,9.16-1.16-.19-1.05-.66-1.85-1.54-1.19-1.31-2.71-2.45-4.49-2.82-3.39-.71-6.7.27-8.92,2.98-1.62,1.97-2.44,3.43-4.82,4.68h-.03c-.36-2.02-.05-3.83.14-5.92.09-1.01.16-2.09-.33-3.02-1.02-1.96-2.9-3.16-4.9-3.99-2.8-1.16-5.77-1.84-8.74-2.46-1.92-.4-4.94-1.75-6.88-1.21-1.82.51-2.98,2.11-2.47,4.04.32,1.21,1,2.32,1.95,3.15.63.55,1.27,1.07,2.01,1.48,1.1.61.86.8.58,1.72-.28.89-.58,1.84-.49,2.79.09.87,1.1,2.44.79,3.18-.73,1.77-.54,3.21.28,4.72-1.9.15-3.81.26-5.72.38-4.55.28-9.1-3.03-12.69-5.42-1.56-1.04-3.17-1.9-4.97-.89-1.73.97-2.54,3-1.5,4.78.77,1.33,1.96,2.34,3.31,3.13-3.7-.33-7.43.07-7.46,3.49-.02,2.2,1.81,3.45,4.07,4.15-1.61.4-3.02,1.08-3.82,2.25-1.22,1.81.08,3.41,1.97,3.93,4.85,1.34,9.87-1.25,14.79-.76,2.24.22,3.88,1.52,5.86,2.47,2.1,1.01,4.23,1.71,6.54,1.99Zm26.97-40.06c.47,1.18.12,2.71-1.23,3.14-1.13.36-2.55-.1-2.94-1.33-.87-2.73,2.74-4.16,4.17-1.81Zm-3.71-3.71c-1.49.47-3.35-.13-3.86-1.74-1.14-3.57,3.6-5.49,5.47-2.4.64,1.55.17,3.58-1.61,4.15Zm5.84,2.23c-.73-2.31,2.3-3.49,3.51-1.52.39.99.11,2.28-1.03,2.64-.95.3-2.15-.08-2.48-1.12Zm-12.78,18.24c-2.14,1.01-4.36,1.82-6.67,2.36-2.75.64-5.54,1.01-8.33,1.28-.81-1.2-1.32-2.36-.73-3.78.22-.53.38-1.01.38-1.59-.01-1.18-1.14-1.95-.9-3.29.13-.76.4-1.46.59-2.2.5-1.95-.72-2.12-2.1-3.16-1.1-.83-3.42-2.82-2.56-4.53.7-1.39,2.24-.89,3.42-.6,4.35,1.08,8.98,1.55,13.06,3.51,2.23,1.07,4.22,2.53,3.9,5.25-.28,2.38-.52,4.45-.06,6.75Zm-25.94,17.98c-3.28-1.39-7.58-.21-10.94.25-.98.13-7.79,1.24-7.69-1.36.09-2.35,5.75-2.61,8.62-2.62.52.02.98.01,1.38,0,.8-.02,1.31-1.37.32-1.37-1.97.04-3.99-.15-5.89-.69-1.1-.32-4.16-1.05-4.14-2.64.03-4.35,9.69-1.72,12.24-1.4.68.08,1.32-1.11.5-1.34-2.75-.78-7.79-2.14-8.88-5.28-.92-2.66,1.97-3.14,3.69-2.04,2.07,1.33,4.01,2.81,6.25,3.86,1.87.88,3.83,1.6,5.85,2.03,1.7.36,3.45.08,5.17-.03,1.27-.08,2.55-.18,3.83-.29.09,0,.17,0,.26-.02,5.55-.51,11.12-1.46,16.11-3.94.2-.02.4-.12.56-.27.42-.23.84-.46,1.26-.71,1.44-.86,2.3-1.48,3.24-2.81.77-1.09,1.65-2.51,2.78-3.25,3.63-2.36,8.91-1.3,10.75,2.84.1.23.28.35.53.37,1.11.09,2.18.24,3.24.54-.63.56-1.27,1.11-1.92,1.65-.62.52-1.88,1.18-2.23,1.93-1.16,2.48-2.94,4.83-4.64,6.98-2.94,3.7-6.73,6.29-10.97,8.24.18-1.61.65-3.36,1.85-4.13.67-.43.41-1.73-.44-1.18-1.77,1.14-2.55,3.72-2.74,5.97-.07.29-.08.57-.05.94,0,.31,0,.61.01.89.12,2.22,1.09,3.75,1.69,5.81.75,2.55.31,5.38-1.01,7.68-2.25,3.96-6.07,5.92-9.99,7.9-3.14,1.59-6.33,3.11-9.59,4.45-1.73.71-6.17,1.67-5.59-1.74.64-3.76,5.75-4.89,6.21-8.53.13-1-.15-1.79-.64-2.65-1.14-2-1.2-4.54.56-6.25,1.79-1.73,2.11-5.37,1.23-7.61-.33-.83-1.46.16-1.19.83.34.88.4,1.96.3,2.94-3.76-.49-6.5-2.49-9.9-3.93Z"/>
        <path class="cls-1" d="m80.33,50.32c0,.12.01.24.06.35.04.09.1.16.17.21.12.16.27.29.44.37.07.12.19.2.35.12h0c.26.04.53,0,.78-.12.29-.15.5-.4.6-.68.07-.09.11-.21.14-.33.03-.14.02-.39-.11-.48,0,0,0,0,0,0-.02-.06-.04-.12-.07-.18-.31-.62-1.07-.86-1.69-.55-.49.25-.74.78-.67,1.3Z"/>
      </g>
    </g>
  </g>
</svg>