<?xml version="1.0" encoding="UTF-8"?>
<svg id="_レイヤー_2" data-name="レイヤー 2" xmlns="http://www.w3.org/2000/svg" viewBox="0 0 116.21 116.21">
  <defs>
    <style>
      .cls-1 {
        fill: #5dbddd;
      }
    </style>
  </defs>
  <g id="_ガイドライン" data-name="ガイドライン">
    <g>
      <path class="cls-1" d="m58.1,116.21C26.06,116.21,0,90.14,0,58.1S26.06,0,58.1,0s58.1,26.06,58.1,58.1-26.06,58.1-58.1,58.1Zm0-106.21c-26.52,0-48.1,21.58-48.1,48.1s21.58,48.1,48.1,48.1,48.1-21.58,48.1-48.1S84.63,10,58.1,10Z"/>
      <g>
        <path class="cls-1" d="m80.08,61.84l-.15-3.32-4.53,4.37-3.17-3.06c-.38-1.85-.84-3.59-1.28-5.14-.46-1.63-.91-3.06-1.24-4.19.48-.62.9-1.29,1.28-1.98.88-.29,4.96-1.62,6.78-1.99-1.13-3.01-4.5-4.63-5.04-4.88,0-.04,0-.07,0-.11,0-2.04-.41-3.99-1.16-5.76-1.12-2.66-3-4.92-5.36-6.51-2.36-1.6-5.22-2.53-8.28-2.53-2.04,0-3.99.41-5.76,1.16-2.66,1.12-4.92,3-6.51,5.36-1.6,2.36-2.53,5.22-2.53,8.28,0,2.68.72,5.21,1.97,7.37l-2.95,11.95-2.11,2.04-4.64-4.47-.15,3.31c-.03.66-.05,1.33-.05,2.01,0,4.64.69,8.64,1.92,12.04.92,2.55,2.15,4.75,3.61,6.62,2.18,2.8,4.88,4.84,7.8,6.16,2.92,1.32,6.05,1.94,9.14,1.94,2.74,0,5.52-.49,8.16-1.52,1.98-.78,3.87-1.86,5.59-3.28,2.58-2.13,4.78-5.01,6.31-8.66,1.53-3.65,2.41-8.06,2.41-13.28,0-.64-.02-1.27-.04-1.89Zm-32.12-13.98c-1.17-1.83-1.84-4-1.84-6.33,0-1.63.33-3.18.93-4.6.9-2.12,2.39-3.92,4.28-5.2,1.89-1.27,4.15-2.02,6.6-2.02,1.63,0,3.18.33,4.6.93,2.12.9,3.92,2.39,5.2,4.28,1.27,1.89,2.02,4.15,2.02,6.6,0,2.92-1.06,5.59-2.82,7.65l-.51.6.2.76c.36,1.34.9,3.02,1.45,4.96.22.78.44,1.6.66,2.45l-5.11,4.93-5.9-5.69-5.9,5.69-5.73-5.53,2.22-8.96-.34-.54Zm27.42,26.89c-.82,2.27-1.9,4.19-3.15,5.79-1.88,2.41-4.17,4.14-6.67,5.27-2.5,1.13-5.21,1.67-7.9,1.67-2.39,0-4.8-.42-7.06-1.31-1.7-.67-3.31-1.6-4.78-2.81-2.2-1.82-4.1-4.28-5.45-7.51-1.21-2.87-1.99-6.37-2.14-10.55l1.81,1.75,3.98-3.84.6.15.24-.95,1.08-1.05,5.9,5.69,5.9-5.69,5.9,5.69,5.87-5.66c.04.19.07.38.11.58l.46-.08,5.35,5.16,1.04-1,.65-.62c-.15,3.61-.76,6.7-1.71,9.32Z"/>
        <path class="cls-1" d="m58.84,43.65c1.5,0,2.72-1.22,2.72-2.72s-1.22-2.72-2.72-2.72-2.72,1.22-2.72,2.72,1.22,2.72,2.72,2.72Z"/>
      </g>
    </g>
  </g>
</svg>