<?xml version="1.0" encoding="UTF-8"?>
<svg id="_レイヤー_2" data-name="レイヤー 2" xmlns="http://www.w3.org/2000/svg" viewBox="0 0 116.21 116.21">
  <defs>
    <style>
      .cls-1 {
        fill: #61bccc;
      }
    </style>
  </defs>
  <g id="_ガイドライン" data-name="ガイドライン">
    <g>
      <path class="cls-1" d="m58.1,116.21C26.06,116.21,0,90.14,0,58.1S26.06,0,58.1,0s58.1,26.06,58.1,58.1-26.06,58.1-58.1,58.1Zm0-106.21c-26.52,0-48.1,21.58-48.1,48.1s21.58,48.1,48.1,48.1,48.1-21.58,48.1-48.1S84.63,10,58.1,10Z"/>
      <g>
        <path class="cls-1" d="m85.47,48.4l-.03-.17-.07-.16c-.09-.22-.23-.59-.41-1.03-.49-1.2-1.26-2.96-2.69-4.56,0-.08,0-.16,0-.25,0-4.03-1.64-7.69-4.28-10.33-2.64-2.64-6.3-4.28-10.33-4.28-4.03,0-7.69,1.64-10.33,4.28-2.64,2.64-4.28,6.3-4.28,10.33,0,1.33.16,2.49.37,3.56.22,1.07.49,2.05.73,3.11.09.39.2.72.31,1.01-2.89-.28-5.51-.42-7.86-.42-2.55,0-4.79.16-6.75.48-1.47.24-2.77.57-3.93,1-1.72.64-3.13,1.51-4.13,2.69-.5.59-.89,1.25-1.15,1.96-.26.71-.38,1.47-.38,2.23,0,1.32.35,2.66.98,4.03.62,1.37,1.53,2.77,2.69,4.24.81,1.02,1.4,1.78,1.9,2.52.5.74.93,1.49,1.45,2.55,1.6,3.34,3.85,6.24,6.73,8.33,1.76,1.28,3.77,2.24,5.97,2.79l-2.98,6.24h9.02v-2.74h-4.67l1.45-3.04c.53.05,1.08.07,1.63.07,2.94,0,5.73-.65,8.24-1.81l3.78,5.94,7.38-2.6-.91-2.58-5.33,1.88-2.52-3.95c1.17-.76,2.26-1.63,3.24-2.61,3.55-3.55,5.75-8.46,5.75-13.88h0c0-.14.01-.28.01-.42,0-.98-.13-2.09-.24-3.21-.12-1.11-.23-2.23-.23-3.07,0-.44.04-.8.08-.99,2.08-.94,3.89-2.35,5.31-4.09,1.4-.04,2.62-.15,3.6-.33.29-.05.57-.12.83-.19.39-.12.75-.24,1.14-.49.19-.13.4-.3.6-.58.1-.14.19-.3.25-.49.07-.19.1-.4.1-.61,0-.13-.01-.25-.04-.36Zm-4.8-.24c-.72.07-1.57.11-2.5.12h-.8s-.47.66-.47.66c-1.22,1.67-2.87,3.01-4.79,3.82-.45.19-.81.52-1.04.85-.17.25-.29.5-.38.75-.13.37-.19.72-.24,1.08-.04.36-.06.73-.06,1.1,0,1.09.13,2.28.24,3.41.12,1.12.23,2.18.23,2.88,0,.12,0,.23,0,.32v.05s0,.05,0,.05c0,4.54-1.84,8.64-4.81,11.62-2.98,2.98-7.08,4.81-11.62,4.81-3.34,0-6.15-1-8.54-2.72-2.38-1.72-4.31-4.18-5.73-7.13-.08-.17-.16-.32-.24-.48,1.5.5,2.86.85,4.07,1.07,2.07.39,3.7.44,4.79.44.43,0,.78,0,1.01,0,.63,0,1.14-.51,1.14-1.14s-.51-1.14-1.14-1.14c-.28,0-.61,0-1.01,0-1.01,0-2.47-.05-4.37-.4-1.78-.33-3.94-.94-6.43-2.03-.45-.62-.95-1.25-1.54-2-1.04-1.31-1.8-2.51-2.28-3.57-.49-1.06-.69-1.97-.69-2.7,0-.76.19-1.34.6-1.91.31-.42.76-.84,1.42-1.24.97-.59,2.39-1.11,4.25-1.46,1.86-.36,4.15-.55,6.87-.55,2.44,0,5.22.16,8.34.48l.24.02.24-.05c.3-.06.57-.13.82-.21.19-.06.38-.14.58-.24.15-.07.29-.17.44-.29.22-.18.44-.44.59-.74.15-.31.2-.63.2-.9,0-.4-.09-.67-.16-.9-.12-.34-.24-.59-.34-.86-.11-.26-.2-.53-.27-.83-.26-1.14-.53-2.1-.71-3.03-.19-.93-.31-1.83-.31-2.92,0-3.16,1.27-6,3.34-8.07,2.07-2.07,4.91-3.34,8.07-3.34,3.16,0,6,1.27,8.07,3.34,2.07,2.07,3.34,4.91,3.34,8.07,0,.23-.01.48-.03.75l-.05.73.52.51c.83.81,1.44,1.78,1.89,2.7.18.37.34.73.48,1.07-.34.06-.75.11-1.23.16Z"/>
        <path class="cls-1" d="m70.49,40.8c-1.01,0-1.82.82-1.82,1.83s.82,1.83,1.82,1.83,1.83-.82,1.83-1.83c0-1.01-.82-1.83-1.83-1.83Z"/>
      </g>
    </g>
  </g>
</svg>