<?xml version="1.0" encoding="UTF-8"?>
<svg id="_レイヤー_2" data-name="レイヤー 2" xmlns="http://www.w3.org/2000/svg" viewBox="0 0 209.81 96.8">
  <defs>
    <style>
      .cls-1 {
        letter-spacing: .4em;
      }

      .cls-2, .cls-3 {
        fill: #61bccc;
      }

      .cls-3 {
        font-size: 9.43px;
      }

      .cls-3, .cls-4 {
        font-family: ITCAvantGardeStd-Bk, 'ITC Avant Garde Gothic Std';
      }

      .cls-4 {
        fill: #dcdddd;
        font-size: 75.9px;
      }

      .cls-5 {
        letter-spacing: .38em;
      }
    </style>
  </defs>
  <g id="_テキスト" data-name="テキスト">
    <text class="cls-4" transform="translate(164.1 76.23)"><tspan x="0" y="0">2</tspan></text>
    <text class="cls-3" transform="translate(101.62 22.47)"><tspan class="cls-1" x="0" y="0">onoj</tspan><tspan class="cls-5" x="35.71" y="0">y</tspan><tspan class="cls-1" x="44.09" y="0">o</tspan></text>
    <g>
      <path class="cls-2" d="m106.03,46.7c0-.96-.64-1.5-1.55-1.5-.99,0-1.6.67-1.57,1.46.03.86.69,1.21,1.78,1.53,1.3.35,2.74.72,2.81,2.66.07,1.67-1.28,2.88-3,2.88-1.46,0-3.08-.93-3.1-2.83h1.23c.05,1.25.98,1.8,1.89,1.8,1.04,0,1.77-.77,1.75-1.7-.03-1.03-.71-1.45-2.27-1.9-1.3-.39-2.31-.91-2.34-2.34,0-1.63,1.3-2.59,2.83-2.59,1.26,0,2.68.69,2.76,2.53h-1.23Z"/>
      <path class="cls-2" d="m116.28,41.03h1.25v1.73h-1.25v-1.73Zm0,3.4h1.25v9.06h-1.25v-9.06Z"/>
      <path class="cls-2" d="m126.68,44.43h1.18c0,.5,0,1.01-.02,1.62.52-1.18,1.75-1.9,3.37-1.87,2.81.03,3.8,1.95,3.8,4.16v5.15h-1.23v-4.9c0-1.95-.87-3.28-2.91-3.25-1.87.02-2.95,1.14-2.95,3.03v5.12h-1.25v-9.06Z"/>
      <path class="cls-2" d="m144.38,45.42h-1.33v-.99h1.33v-.74c0-2.79,2.21-2.88,3.18-2.88v.99c-.62.03-1.95.03-1.95,2v.62h1.95v.99h-1.95v8.06h-1.23v-8.06Z"/>
      <path class="cls-2" d="m154.61,48.94c0-2.52,1.88-4.76,4.8-4.76s4.81,2.24,4.81,4.78-1.88,4.76-4.81,4.76-4.8-2.22-4.8-4.76v-.02Zm1.23.03c0,2.05,1.57,3.6,3.57,3.6s3.57-1.55,3.57-3.62-1.55-3.62-3.57-3.62-3.57,1.55-3.57,3.62v.02Z"/>
      <path class="cls-2" d="m172.83,44.43h1.18c0,.5,0,1.01-.02,1.62.52-1.18,1.75-1.9,3.37-1.87,2.81.03,3.8,1.95,3.8,4.16v5.15h-1.23v-4.9c0-1.95-.87-3.28-2.91-3.25-1.87.02-2.95,1.14-2.95,3.03v5.12h-1.25v-9.06Z"/>
      <path class="cls-2" d="m190.31,41.03h1.25v1.73h-1.25v-1.73Zm0,3.4h1.25v9.06h-1.25v-9.06Z"/>
      <path class="cls-2" d="m209.81,53.48h-1.25v-1.87c-.71,1.36-2.09,2.12-3.7,2.12-2.95,0-4.7-2.29-4.7-4.78,0-2.66,1.94-4.78,4.7-4.78,1.93,0,3.26,1.13,3.7,2.15v-1.9h1.25v9.06Zm-8.42-4.51c.02,1.63,1.14,3.6,3.64,3.6,1.6,0,2.78-.93,3.26-2.2.2-.44.3-.94.3-1.43.02-.5-.09-1.01-.29-1.45-.5-1.25-1.72-2.17-3.32-2.17-2.09,0-3.6,1.62-3.6,3.64v.02Z"/>
      <path class="cls-2" d="m106.03,69.34c0-.96-.64-1.5-1.55-1.5-.99,0-1.6.67-1.57,1.46.03.86.69,1.21,1.78,1.53,1.3.35,2.74.72,2.81,2.66.07,1.67-1.28,2.88-3,2.88-1.46,0-3.08-.93-3.1-2.83h1.23c.05,1.25.98,1.8,1.89,1.8,1.04,0,1.77-.77,1.75-1.7-.03-1.03-.71-1.45-2.27-1.9-1.3-.39-2.31-.91-2.34-2.34,0-1.63,1.3-2.59,2.83-2.59,1.26,0,2.68.69,2.76,2.53h-1.23Z"/>
      <path class="cls-2" d="m115.72,71.58c0-2.52,1.88-4.76,4.8-4.76s4.81,2.24,4.81,4.78-1.88,4.76-4.81,4.76-4.8-2.22-4.8-4.76v-.02Zm1.23.03c0,2.05,1.57,3.6,3.57,3.6s3.57-1.55,3.57-3.62-1.55-3.62-3.57-3.62-3.57,1.55-3.57,3.62v.02Z"/>
      <path class="cls-2" d="m133.94,67.07h1.18v1.48c.66-1.35,1.84-1.7,2.9-1.74v1.23h-.12c-1.75,0-2.73,1.09-2.73,3.15v4.93h-1.23v-9.06Z"/>
      <path class="cls-2" d="m154.48,76.12h-1.25v-1.87c-.71,1.36-2.09,2.12-3.7,2.12-2.95,0-4.7-2.29-4.7-4.78,0-2.66,1.94-4.78,4.7-4.78,1.93,0,3.26,1.13,3.7,2.15v-1.9h1.25v9.06Zm-8.42-4.51c.02,1.63,1.14,3.6,3.64,3.6,1.6,0,2.78-.93,3.26-2.2.2-.44.3-.94.3-1.43.02-.5-.09-1.01-.29-1.45-.5-1.25-1.72-2.17-3.32-2.17-2.09,0-3.6,1.62-3.6,3.64v.02Z"/>
    </g>
    <path class="cls-2" d="m44.04,0C19.72,0,0,19.72,0,44.05s19.72,44.04,44.04,44.04,44.04-19.72,44.04-44.04S68.37,0,44.04,0Zm0,80.69c-20.24,0-36.65-16.41-36.65-36.65S23.81,7.4,44.04,7.4s36.65,16.41,36.65,36.65-16.41,36.65-36.65,36.65Z"/>
    <g>
      <path class="cls-2" d="m35.47,18.1c4.46,5.33,4.64,12.48,1.77,20.93,4.63,4.16,11.03-4.51,12.49-14.38-1.55-.65-2.93.09-4.05,3.12-2.69-6.93-6.26-9.31-10.22-9.68Z"/>
      <path class="cls-2" d="m19.86,38.37s4.66-1.85-.31-8.25c0,0-4.47,5.74.31,8.25Z"/>
      <path class="cls-2" d="m16.06,37.07c8.78,4.87,10.78,18.04,10.78,18.04h-1.23c-1.56-8.98-5.36-13.87-9.85-17.47-4.58,3.42-8-3.54-8-3.54,7.43-2.14,8.24,1.79,8.31,2.97Z"/>
      <path class="cls-2" d="m19.19,41.88s-1.96-5.09-8.94.25c0,0,6.18,4.92,8.94-.25Z"/>
      <path class="cls-2" d="m22.12,47.16s-1.96-5.09-8.94.25c0,0,6.18,4.92,8.94-.25Z"/>
      <path class="cls-2" d="m20.67,41.81c10.91,2,.66,16.19,25.67,18.39,11.31,5.88,17.87,14.78,27.18-3.12-8.95.24-18.74-.85-21.86-4.05,9.71-.77,13.96-7.48,7.4-7.63,5.55-1.81,6.21-8.98.81-7.52,4.59-5.55,1.54-10.06-3.12-5.9,1.08-6.98-.72-11.12-4.16-13.65.12,9.14-3.04,20.36-10.29,23.48-7.36,3.16-8.67-6.75-14.46-6.48-4.44.21-3.89,4.24-7.17,6.48Zm5.24-2.84c0-.63.51-1.14,1.14-1.14s1.14.51,1.14,1.14c0,.63-.51,1.14-1.14,1.14s-1.14-.51-1.14-1.14Z"/>
    </g>
  </g>
</svg>