<?xml version="1.0" encoding="UTF-8"?>
<svg id="_レイヤー_2" data-name="レイヤー 2" xmlns="http://www.w3.org/2000/svg" viewBox="0 0 245.04 138.59">
  <defs>
    <style>
      .cls-1 {
        letter-spacing: .4em;
      }

      .cls-2 {
        letter-spacing: .4em;
      }

      .cls-3, .cls-4 {
        fill: #efb66d;
      }

      .cls-4 {
        font-family: ITCAvantGardeStd-Bk, 'ITC Avant Garde Gothic Std';
        font-size: 14.83px;
      }

      .cls-5 {
        letter-spacing: .38em;
      }
    </style>
  </defs>
  <g id="_テキスト" data-name="テキスト">
    <g>
      <path class="cls-3" d="m164.2,78.12h-2.1v-1.57h2.1v-1.17c0-4.41,3.48-4.54,5.02-4.54v1.57c-.98.05-3.08.05-3.08,3.16v.98h3.08v1.57h-3.08v12.72h-1.94v-12.72Z"/>
      <path class="cls-3" d="m182.07,84.26c.11,3.58,3.16,5.31,5.57,5.28,2.2,0,3.98-1.09,4.91-2.95h2.04c-.66,1.54-1.67,2.71-2.89,3.48-1.19.77-2.6,1.17-4.06,1.17-4.96,0-7.54-3.95-7.54-7.51,0-4.19,3.24-7.56,7.51-7.56,2.02,0,3.88.72,5.23,2.02,1.64,1.59,2.44,3.8,2.23,6.08h-13.01Zm11.07-1.57c-.13-2.5-2.55-4.94-5.49-4.86-3.08,0-5.36,2.26-5.55,4.86h11.04Z"/>
      <path class="cls-3" d="m209.35,84.26c.11,3.58,3.16,5.31,5.57,5.28,2.2,0,3.98-1.09,4.91-2.95h2.04c-.66,1.54-1.67,2.71-2.89,3.48-1.19.77-2.6,1.17-4.06,1.17-4.96,0-7.54-3.95-7.54-7.51,0-4.19,3.24-7.56,7.51-7.56,2.02,0,3.88.72,5.23,2.02,1.64,1.59,2.44,3.8,2.23,6.08h-13.01Zm11.07-1.57c-.13-2.5-2.55-4.94-5.49-4.86-3.08,0-5.36,2.26-5.55,4.86h11.04Z"/>
      <path class="cls-3" d="m235.77,71.2h1.96v19.64h-1.96v-19.64Z"/>
    </g>
    <text class="cls-4" transform="translate(160.12 42.02)"><tspan class="cls-1" x="0" y="0">onoj</tspan><tspan class="cls-5" x="56.18" y="0">y</tspan><tspan class="cls-2" x="69.36" y="0">o</tspan></text>
    <g>
      <path class="cls-3" d="m164.86,115.75c0-1.51-1.01-2.36-2.44-2.36-1.56,0-2.51,1.06-2.46,2.3.05,1.35,1.09,1.91,2.81,2.41,2.04.56,4.32,1.14,4.42,4.18.11,2.62-2.01,4.53-4.71,4.53-2.3,0-4.84-1.46-4.87-4.45h1.93c.08,1.96,1.54,2.83,2.97,2.83,1.64,0,2.78-1.22,2.75-2.67-.05-1.62-1.11-2.28-3.58-2.99-2.04-.61-3.63-1.43-3.68-3.68,0-2.57,2.04-4.08,4.45-4.08,1.99,0,4.21,1.09,4.34,3.97h-1.93Z"/>
      <path class="cls-3" d="m180.09,119.27c0-3.97,2.97-7.5,7.55-7.5s7.57,3.52,7.57,7.52-2.97,7.49-7.57,7.49-7.55-3.5-7.55-7.49v-.03Zm1.93.05c0,3.23,2.46,5.67,5.61,5.67s5.61-2.43,5.61-5.69-2.44-5.69-5.61-5.69-5.61,2.43-5.61,5.69v.03Z"/>
      <path class="cls-3" d="m208.76,112.17h1.85v2.33c1.03-2.12,2.89-2.68,4.56-2.73v1.94h-.19c-2.75,0-4.29,1.72-4.29,4.95v7.76h-1.93v-14.25Z"/>
      <path class="cls-3" d="m241.08,126.42h-1.96v-2.94c-1.11,2.14-3.28,3.34-5.82,3.34-4.63,0-7.39-3.6-7.39-7.52,0-4.18,3.05-7.52,7.39-7.52,3.04,0,5.14,1.77,5.82,3.39v-2.99h1.96v14.25Zm-13.24-7.1c.03,2.57,1.8,5.67,5.72,5.67,2.51,0,4.37-1.46,5.14-3.47.32-.69.48-1.48.48-2.25.03-.79-.13-1.59-.45-2.28-.79-1.96-2.7-3.42-5.22-3.42-3.28,0-5.67,2.54-5.67,5.72v.03Z"/>
    </g>
    <path class="cls-3" d="m69.29,0C31.02,0,0,31.02,0,69.29s31.02,69.29,69.29,69.29,69.29-31.02,69.29-69.29S107.56,0,69.29,0Zm0,126.94c-31.84,0-57.65-25.81-57.65-57.65S37.45,11.64,69.29,11.64s57.65,25.81,57.65,57.65-25.81,57.65-57.65,57.65Z"/>
    <path class="cls-3" d="m22.15,79.55c-3.44,4.37,2.4,9.69,10.6-.62,2.85-3.58,8.86-4.31,13.02-6.06,1.68-.71,3.3-1.39,4.87-2.03.56-.23,1.11-.45,1.65-.67,3.71,3.47,10.26,7.85,19.49,11.41,5.38,2.08,2.26-4.49-.6-11.77-.53-1.36-1.06-2.75-1.52-4.1-.42-1.25-.79-2.48-1.05-3.65l1.59-.38c.29,1.26.7,2.61,1.18,3.99,2.29.02,6.76,1.27,8.45,1.92,6.07,2.34,8.46,5.1,12.86,9.35,8.49,14.38-4.09,17.43-3.43,25.57.8.66,8.36.3,13.34-2.75,0,0,5.34,5.86,13.77,7.8-.18-5-2.63-12.17-6.09-18.89-1.91-3.72-1.67-5.93-2.63-10.91-1.42-15.47-9.71-28.32-25.1-37.18-.21-.12-.45-.17-.68-.25-.99-5.23,5.52-13.32-1.21-13.63-6.86-.32-13.14,6.78-19.52,10.43-17.56.99-33.06,11.6-35.03,32.11-.67,6.96-.54,5.93-3.97,10.31Zm14.79-16.22c.42-1.09,1.64-1.63,2.72-1.21,1.09.42,1.63,1.64,1.21,2.73-.42,1.09-1.64,1.63-2.73,1.21s-1.63-1.64-1.21-2.73Z"/>
  </g>
</svg>