<?xml version="1.0" encoding="UTF-8"?>
<svg id="_レイヤー_2" data-name="レイヤー 2" xmlns="http://www.w3.org/2000/svg" viewBox="0 0 327.51 137.51">
  <defs>
    <style>
      .cls-1 {
        letter-spacing: .4em;
      }

      .cls-2, .cls-3 {
        fill: #61bccc;
      }

      .cls-3 {
        font-family: ITCAvantGardeStd-Bk, 'ITC Avant Garde Gothic Std';
        font-size: 14.71px;
      }

      .cls-4 {
        letter-spacing: .4em;
      }
    </style>
  </defs>
  <g id="_写真" data-name="写真">
    <text class="cls-3" transform="translate(157.06 35.08)"><tspan class="cls-4" x="0" y="0">c</tspan><tspan class="cls-1" x="15.08" y="0">hikushino</tspan></text>
    <g>
      <path class="cls-2" d="m165.52,72.9c0-1.5-1-2.34-2.42-2.34-1.55,0-2.5,1.05-2.44,2.28.05,1.34,1.08,1.89,2.79,2.39,2.02.55,4.28,1.13,4.39,4.15.11,2.6-2,4.5-4.68,4.5-2.28,0-4.81-1.45-4.83-4.42h1.92c.08,1.94,1.52,2.81,2.94,2.81,1.63,0,2.76-1.21,2.73-2.65-.05-1.6-1.1-2.26-3.55-2.97-2.02-.6-3.6-1.42-3.65-3.65,0-2.55,2.02-4.05,4.41-4.05,1.97,0,4.18,1.08,4.31,3.94h-1.92Z"/>
      <path class="cls-2" d="m181.51,64.05h1.94v2.71h-1.94v-2.71Zm0,5.31h1.94v14.14h-1.94v-14.14Z"/>
      <path class="cls-2" d="m197.75,69.35h1.84c0,.79,0,1.58-.03,2.52.81-1.84,2.73-2.97,5.26-2.92,4.39.05,5.94,3.05,5.94,6.49v8.04h-1.92v-7.65c0-3.05-1.37-5.12-4.55-5.07-2.92.03-4.6,1.78-4.6,4.73v7.99h-1.94v-14.14Z"/>
      <path class="cls-2" d="m225.38,70.9h-2.08v-1.55h2.08v-1.16c0-4.36,3.44-4.49,4.97-4.49v1.55c-.97.05-3.05.05-3.05,3.13v.97h3.05v1.55h-3.05v12.59h-1.92v-12.59Z"/>
      <path class="cls-2" d="m241.34,76.4c0-3.94,2.94-7.44,7.49-7.44s7.51,3.5,7.51,7.46-2.94,7.43-7.51,7.43-7.49-3.47-7.49-7.43v-.03Zm1.92.05c0,3.21,2.44,5.62,5.57,5.62s5.57-2.42,5.57-5.65-2.42-5.65-5.57-5.65-5.57,2.42-5.57,5.65v.03Z"/>
      <path class="cls-2" d="m269.79,69.35h1.84c0,.79,0,1.58-.03,2.52.81-1.84,2.73-2.97,5.26-2.92,4.39.05,5.94,3.05,5.94,6.49v8.04h-1.92v-7.65c0-3.05-1.37-5.12-4.55-5.07-2.92.03-4.6,1.78-4.6,4.73v7.99h-1.94v-14.14Z"/>
      <path class="cls-2" d="m297.08,64.05h1.94v2.71h-1.94v-2.71Zm0,5.31h1.94v14.14h-1.94v-14.14Z"/>
      <path class="cls-2" d="m327.51,83.49h-1.94v-2.92c-1.1,2.13-3.26,3.31-5.78,3.31-4.6,0-7.33-3.57-7.33-7.46,0-4.15,3.02-7.46,7.33-7.46,3.02,0,5.1,1.76,5.78,3.36v-2.97h1.94v14.14Zm-13.14-7.04c.03,2.55,1.79,5.62,5.68,5.62,2.5,0,4.34-1.45,5.1-3.44.32-.68.47-1.47.47-2.23.03-.79-.13-1.58-.45-2.26-.79-1.95-2.68-3.39-5.18-3.39-3.26,0-5.62,2.52-5.62,5.68v.03Z"/>
      <path class="cls-2" d="m165.52,108.24c0-1.5-1-2.34-2.42-2.34-1.55,0-2.5,1.05-2.44,2.28.05,1.34,1.08,1.89,2.79,2.39,2.02.55,4.28,1.13,4.39,4.15.11,2.6-2,4.5-4.68,4.5-2.28,0-4.81-1.45-4.83-4.42h1.92c.08,1.94,1.52,2.81,2.94,2.81,1.63,0,2.76-1.21,2.73-2.65-.05-1.6-1.1-2.26-3.55-2.97-2.02-.6-3.6-1.42-3.65-3.65,0-2.55,2.02-4.05,4.41-4.05,1.97,0,4.18,1.08,4.31,3.94h-1.92Z"/>
      <path class="cls-2" d="m180.64,111.73c0-3.94,2.94-7.44,7.49-7.44s7.51,3.5,7.51,7.46-2.94,7.43-7.51,7.43-7.49-3.47-7.49-7.43v-.03Zm1.92.05c0,3.21,2.44,5.62,5.57,5.62s5.57-2.42,5.57-5.65-2.42-5.65-5.57-5.65-5.57,2.42-5.57,5.65v.03Z"/>
      <path class="cls-2" d="m209.09,104.69h1.84v2.31c1.02-2.1,2.87-2.65,4.52-2.71v1.92h-.18c-2.73,0-4.26,1.71-4.26,4.91v7.7h-1.92v-14.14Z"/>
      <path class="cls-2" d="m241.15,118.83h-1.94v-2.92c-1.1,2.13-3.26,3.31-5.78,3.31-4.6,0-7.33-3.57-7.33-7.46,0-4.15,3.02-7.46,7.33-7.46,3.02,0,5.1,1.76,5.78,3.36v-2.97h1.94v14.14Zm-13.14-7.04c.03,2.55,1.79,5.62,5.68,5.62,2.5,0,4.34-1.45,5.1-3.44.32-.68.47-1.47.47-2.23.03-.79-.13-1.58-.45-2.26-.79-1.95-2.68-3.39-5.18-3.39-3.26,0-5.62,2.52-5.62,5.68v.03Z"/>
    </g>
    <path class="cls-2" d="m68.75,0C30.78,0,0,30.78,0,68.75s30.78,68.75,68.75,68.75,68.75-30.78,68.75-68.75S106.73,0,68.75,0Zm0,125.96c-31.59,0-57.2-25.61-57.2-57.2S37.16,11.55,68.75,11.55s57.2,25.61,57.2,57.2-25.61,57.2-57.2,57.2Z"/>
    <g>
      <path class="cls-2" d="m55.37,28.25c6.96,8.32,7.25,19.48,2.77,32.68,7.22,6.5,17.21-7.04,19.5-22.45-2.42-1.01-4.58.14-6.32,4.87-4.2-10.82-9.77-14.53-15.95-15.1Z"/>
      <path class="cls-2" d="m31,59.9s7.28-2.89-.48-12.88c0,0-6.98,8.97.48,12.88Z"/>
      <path class="cls-2" d="m25.07,57.86c13.71,7.6,16.82,28.16,16.82,28.16h-1.93c-2.44-14.02-8.36-21.65-15.38-27.27-7.15,5.34-12.49-5.53-12.49-5.53,11.6-3.33,12.86,2.79,12.98,4.64Z"/>
      <path class="cls-2" d="m29.95,65.37s-3.05-7.94-13.96.39c0,0,9.64,7.68,13.96-.39Z"/>
      <path class="cls-2" d="m34.53,73.62s-3.05-7.94-13.96.39c0,0,9.64,7.68,13.96-.39Z"/>
      <path class="cls-2" d="m32.26,65.26c17.03,3.13,1.02,25.27,40.08,28.7,17.66,9.18,27.9,23.08,42.43-4.87-13.96.38-29.25-1.32-34.12-6.32,15.16-1.2,21.78-11.67,11.55-11.92,8.67-2.83,9.69-14.02,1.26-11.73,7.16-8.67,2.41-15.71-4.87-9.21,1.69-10.89-1.12-17.35-6.5-21.3.18,14.26-4.74,31.79-16.07,36.65-11.49,4.93-13.54-10.53-22.57-10.11-6.94.32-6.08,6.62-11.19,10.11Zm8.18-4.44c0-.98.79-1.78,1.78-1.78s1.78.79,1.78,1.78c0,.98-.79,1.78-1.78,1.78s-1.78-.79-1.78-1.78Z"/>
    </g>
  </g>
</svg>