<?xml version="1.0" encoding="UTF-8"?>
<svg id="_レイヤー_2" data-name="レイヤー 2" xmlns="http://www.w3.org/2000/svg" xmlns:xlink="http://www.w3.org/1999/xlink" viewBox="0 0 282.92 252.7">
  <defs>
    <style>
      .cls-1 {
        letter-spacing: .22em;
      }

      .cls-2 {
        fill: #231815;
        font-family: ITCAvantGardeStd-Bk, 'ITC Avant Garde Gothic Std';
        font-size: 11.72px;
      }

      .cls-3 {
        fill: #b7cdda;
      }

      .cls-4 {
        letter-spacing: .18em;
      }

      .cls-5 {
        letter-spacing: .26em;
      }

      .cls-6 {
        letter-spacing: .18em;
      }

      .cls-7 {
        fill: url(#_新規グラデーションスウォッチ_1);
      }

      .cls-8 {
        fill: url(#_新規グラデーションスウォッチ_1-5);
      }

      .cls-9 {
        fill: url(#_新規グラデーションスウォッチ_1-2);
      }

      .cls-10 {
        fill: url(#_新規グラデーションスウォッチ_1-4);
      }

      .cls-11 {
        fill: url(#_新規グラデーションスウォッチ_1-3);
      }
    </style>
    <linearGradient id="_新規グラデーションスウォッチ_1" data-name="新規グラデーションスウォッチ 1" x1="17.68" y1="206.25" x2="17.68" y2="-73.14" gradientUnits="userSpaceOnUse">
      <stop offset="0" stop-color="#2aa7d5"/>
      <stop offset="1" stop-color="#205099"/>
    </linearGradient>
    <linearGradient id="_新規グラデーションスウォッチ_1-2" data-name="新規グラデーションスウォッチ 1" x1="96.45" y1="206.25" x2="96.45" y2="-73.14" xlink:href="#_新規グラデーションスウォッチ_1"/>
    <linearGradient id="_新規グラデーションスウォッチ_1-3" data-name="新規グラデーションスウォッチ 1" x1="254.88" y1="206.25" x2="254.88" y2="-73.14" xlink:href="#_新規グラデーションスウォッチ_1"/>
    <linearGradient id="_新規グラデーションスウォッチ_1-4" data-name="新規グラデーションスウォッチ 1" x1="179.28" y1="206.25" x2="179.28" y2="-73.14" xlink:href="#_新規グラデーションスウォッチ_1"/>
    <linearGradient id="_新規グラデーションスウォッチ_1-5" data-name="新規グラデーションスウォッチ 1" x1="137.54" y1="206.25" x2="137.54" y2="-73.14" xlink:href="#_新規グラデーションスウォッチ_1"/>
  </defs>
  <g id="_テキスト" data-name="テキスト">
    <text class="cls-2" transform="translate(55.46 249.52)"><tspan class="cls-5" x="0" y="0">ww</tspan><tspan class="cls-4" x="24.56" y="0">w</tspan><tspan class="cls-5" x="35.91" y="0">.so</tspan><tspan class="cls-1" x="61.31" y="0">r</tspan><tspan class="cls-5" x="67.64" y="0">a-net.o</tspan><tspan class="cls-6" x="129.67" y="0">r</tspan><tspan class="cls-5" x="135.51" y="0">.jp</tspan></text>
    <g>
      <path class="cls-7" d="m26.75,173.25c0-5.57-3.71-8.69-8.98-8.69-5.76,0-9.27,3.9-9.08,8.49.2,4.98,4.01,7.03,10.35,8.88,7.52,2.05,15.91,4.2,16.3,15.42.39,9.67-7.42,16.7-17.38,16.7-8.49,0-17.85-5.37-17.96-16.4h7.12c.3,7.22,5.67,10.44,10.94,10.44,6.05,0,10.24-4.49,10.15-9.85-.19-5.96-4.1-8.4-13.18-11.04-7.52-2.24-13.37-5.27-13.56-13.57,0-9.46,7.52-15.03,16.4-15.03,7.33,0,15.53,4.01,16.01,14.65h-7.12Z"/>
      <g>
        <path class="cls-3" d="m26.5,174.39c-.64,3.21-3.09,5.03-6.97,6.49l.09.03c2.79.76,5.85,1.6,8.58,3,3.2-2.05,5.34-4.93,5.65-9.51h-7.35Z"/>
        <path class="cls-3" d="m7.33,196.5c.7-3.77,3.36-5.94,8.54-7.86-.38-.11-.76-.23-1.16-.34-2.49-.74-5.23-1.68-7.62-3.1-3.73,2.06-6.58,5.31-7.03,11.3h7.27Z"/>
      </g>
      <path class="cls-9" d="m68.57,186.24c0-14.65,10.94-27.64,27.83-27.64s27.93,13,27.93,27.74-10.94,27.63-27.93,27.63-27.83-12.89-27.83-27.63v-.1Zm7.13.19c0,11.92,9.08,20.9,20.71,20.9s20.71-8.98,20.71-20.99-8.99-20.99-20.71-20.99-20.71,8.98-20.71,20.99v.1Z"/>
    </g>
    <path class="cls-11" d="m275.65,158.48v8.8c-4.9-5.35-12.06-8.8-20.82-8.8-17,0-27.99,13.07-27.99,27.8v.1c0,14.83,11,27.79,27.99,27.79,8.77,0,15.93-3.42,20.82-8.74v8.41h7.26v-55.36h-7.26Zm-20.82,49.01c-11.69,0-20.82-9.03-20.82-21.02v-.1c0-12.08,9.14-21.11,20.82-21.11s20.82,9.03,20.82,21.11-9.04,21.11-20.82,21.11Z"/>
    <path class="cls-10" d="m172.22,167.8v-9.32h-7.27v55.36h7.57v-27.54c.23-12.01,9.4-20.94,21.1-20.94v-6.88c-9.06,0-16.44,3.67-21.4,9.32Z"/>
    <path class="cls-8" d="m137.54,0c-36.12,0-65.4,29.28-65.4,65.4s29.28,65.4,65.4,65.4,65.4-29.28,65.4-65.4S173.66,0,137.54,0Zm53.08,55.72h-26.95V18.18c13.9,7.71,24.02,21.37,26.95,37.54Zm-56.88,19.16l-10.53,10.53v-10.53h10.53Zm.27-23.01l-29.29-29.29c8.22-6.31,18.31-10.31,29.29-11.02v40.31Zm0,39.01v3.93l-10.79,10.79v-3.93l10.79-10.79Zm-10.79,25.59l10.79-10.79v13.56c-3.71-.24-7.32-.86-10.79-1.81v-.95Zm18.41-41.59h2.88v44.01c-.95.12-1.91.22-2.88.29v-44.31Zm0-19.16V11.61c.97.07,1.93.17,2.88.29v43.82h-2.88Zm-39.91-30.67l30.67,30.67h-47.93c2.2-12.11,8.43-22.82,17.26-30.67Zm-17.29,49.83h27.29v22.03l-9.37,9.37c-9.21-7.94-15.7-18.92-17.92-31.4Zm79.24,37.73v-25.61l14.22,14.22c-4.05,4.55-8.85,8.42-14.22,11.4Zm16.69-14.39l-16.69-16.69v-6.65h26.99c-1.54,8.67-5.14,16.63-10.3,23.34Z"/>
  </g>
</svg>