<?xml version="1.0" encoding="UTF-8"?>
<svg id="_レイヤー_2" data-name="レイヤー 2" xmlns="http://www.w3.org/2000/svg" viewBox="0 0 109.57 203.63">
  <defs>
    <style>
      .cls-1 {
        fill: #7ecef4;
      }

      .cls-2 {
        fill: #bae3f9;
      }

      .cls-3 {
        fill: none;
        stroke: #040000;
        stroke-linecap: round;
        stroke-linejoin: round;
        stroke-width: 1.49px;
      }
    </style>
  </defs>
  <g id="_レイヤー_4" data-name="レイヤー 4">
    <rect class="cls-2" x="43.25" y="108.93" width="54.94" height="54.94" transform="translate(-75.74 89.96) rotate(-45)"/>
    <g>
      <path class="cls-1" d="m70.38,120.59c-.46.46-1.21.46-1.66,0s-.46-1.21,0-1.66c.46-.46,1.21-.46,1.66,0s.46,1.21,0,1.66Z"/>
      <path class="cls-1" d="m75.93,126.14c-.46.46-1.21.46-1.66,0-.46-.46-.46-1.21,0-1.66.46-.46,1.21-.46,1.66,0s.46,1.21,0,1.66Z"/>
      <path class="cls-1" d="m81.48,131.69c-.46.46-1.21.46-1.66,0s-.46-1.21,0-1.66,1.21-.46,1.66,0c.46.46.46,1.21,0,1.66Z"/>
      <path class="cls-1" d="m87.03,137.24c-.46.46-1.21.46-1.66,0-.46-.46-.46-1.21,0-1.66s1.21-.46,1.66,0,.46,1.21,0,1.66Z"/>
      <path class="cls-1" d="m92.57,142.78c-.46.46-1.21.46-1.66,0s-.46-1.21,0-1.66c.46-.46,1.21-.46,1.66,0s.46,1.21,0,1.66Z"/>
      <path class="cls-1" d="m98.12,148.33c-.46.46-1.21.46-1.66,0-.46-.46-.46-1.21,0-1.66s1.21-.46,1.66,0,.46,1.21,0,1.66Z"/>
      <path class="cls-1" d="m103.67,153.88c-.46.46-1.21.46-1.66,0s-.46-1.21,0-1.66c.46-.46,1.21-.46,1.66,0s.46,1.21,0,1.66Z"/>
      <path class="cls-1" d="m70.38,126.14c-.46.46-1.21.46-1.66,0-.46-.46-.46-1.21,0-1.66s1.21-.46,1.66,0,.46,1.21,0,1.66Z"/>
      <path class="cls-1" d="m75.93,131.69c-.46.46-1.21.46-1.66,0-.46-.46-.46-1.21,0-1.66.46-.46,1.21-.46,1.66,0,.46.46.46,1.21,0,1.66Z"/>
      <path class="cls-1" d="m81.48,137.24c-.46.46-1.21.46-1.66,0-.46-.46-.46-1.21,0-1.66s1.21-.46,1.66,0,.46,1.21,0,1.66Z"/>
      <path class="cls-1" d="m87.03,142.78c-.46.46-1.21.46-1.66,0-.46-.46-.46-1.21,0-1.66.46-.46,1.21-.46,1.66,0s.46,1.21,0,1.66Z"/>
      <path class="cls-1" d="m92.57,148.33c-.46.46-1.21.46-1.66,0-.46-.46-.46-1.21,0-1.66s1.21-.46,1.66,0,.46,1.21,0,1.66Z"/>
      <path class="cls-1" d="m98.12,153.88c-.46.46-1.21.46-1.66,0-.46-.46-.46-1.21,0-1.66.46-.46,1.21-.46,1.66,0s.46,1.21,0,1.66Z"/>
      <path class="cls-1" d="m64.83,126.14c-.46.46-1.21.46-1.66,0-.46-.46-.46-1.21,0-1.66.46-.46,1.21-.46,1.66,0s.46,1.21,0,1.66Z"/>
      <path class="cls-1" d="m70.38,131.69c-.46.46-1.21.46-1.66,0s-.46-1.21,0-1.66c.46-.46,1.21-.46,1.66,0s.46,1.21,0,1.66Z"/>
      <path class="cls-1" d="m75.93,137.24c-.46.46-1.21.46-1.66,0-.46-.46-.46-1.21,0-1.66.46-.46,1.21-.46,1.66,0,.46.46.46,1.21,0,1.66Z"/>
      <path class="cls-1" d="m81.48,142.78c-.46.46-1.21.46-1.66,0s-.46-1.21,0-1.66c.46-.46,1.21-.46,1.66,0s.46,1.21,0,1.66Z"/>
      <path class="cls-1" d="m87.03,148.33c-.46.46-1.21.46-1.66,0-.46-.46-.46-1.21,0-1.66s1.21-.46,1.66,0,.46,1.21,0,1.66Z"/>
      <path class="cls-1" d="m92.57,153.88c-.46.46-1.21.46-1.66,0s-.46-1.21,0-1.66c.46-.46,1.21-.46,1.66,0s.46,1.21,0,1.66Z"/>
      <path class="cls-1" d="m98.12,159.43c-.46.46-1.21.46-1.66,0-.46-.46-.46-1.21,0-1.66.46-.46,1.21-.46,1.66,0s.46,1.21,0,1.66Z"/>
      <path class="cls-1" d="m64.83,131.69c-.46.46-1.21.46-1.66,0-.46-.46-.46-1.21,0-1.66.46-.46,1.21-.46,1.66,0s.46,1.21,0,1.66Z"/>
      <path class="cls-1" d="m70.38,137.24c-.46.46-1.21.46-1.66,0-.46-.46-.46-1.21,0-1.66s1.21-.46,1.66,0,.46,1.21,0,1.66Z"/>
      <path class="cls-1" d="m75.93,142.78c-.46.46-1.21.46-1.66,0-.46-.46-.46-1.21,0-1.66s1.21-.46,1.66,0,.46,1.21,0,1.66Z"/>
      <path class="cls-1" d="m81.48,148.33c-.46.46-1.21.46-1.66,0-.46-.46-.46-1.21,0-1.66s1.21-.46,1.66,0,.46,1.21,0,1.66Z"/>
      <path class="cls-1" d="m87.03,153.88c-.46.46-1.21.46-1.66,0-.46-.46-.46-1.21,0-1.66.46-.46,1.21-.46,1.66,0s.46,1.21,0,1.66Z"/>
      <path class="cls-1" d="m92.57,159.43c-.46.46-1.21.46-1.66,0-.46-.46-.46-1.21,0-1.66s1.21-.46,1.66,0,.46,1.21,0,1.66Z"/>
      <path class="cls-1" d="m59.28,131.69c-.46.46-1.2.46-1.66,0s-.46-1.2,0-1.66c.46-.46,1.21-.46,1.66,0,.46.46.46,1.21,0,1.66Z"/>
      <path class="cls-1" d="m64.83,137.24c-.46.46-1.2.46-1.66,0s-.46-1.2,0-1.66c.46-.46,1.21-.46,1.66,0s.46,1.21,0,1.66Z"/>
      <path class="cls-1" d="m70.38,142.78c-.46.46-1.2.46-1.66,0-.46-.46-.46-1.2,0-1.66s1.21-.46,1.66,0c.46.46.46,1.21,0,1.66Z"/>
      <path class="cls-1" d="m75.93,148.33c-.46.46-1.2.46-1.66,0s-.46-1.2,0-1.66,1.21-.46,1.66,0,.46,1.21,0,1.66Z"/>
      <path class="cls-1" d="m81.48,153.88c-.46.46-1.2.46-1.66,0s-.46-1.2,0-1.66c.46-.46,1.21-.46,1.66,0,.46.46.46,1.21,0,1.66Z"/>
      <path class="cls-1" d="m87.03,159.43c-.46.46-1.2.46-1.66,0s-.46-1.2,0-1.66,1.21-.46,1.66,0,.46,1.21,0,1.66Z"/>
      <path class="cls-1" d="m92.57,164.98c-.46.46-1.2.46-1.66,0s-.46-1.2,0-1.66c.46-.46,1.21-.46,1.66,0,.46.46.46,1.21,0,1.66Z"/>
      <path class="cls-1" d="m59.28,137.24c-.46.46-1.21.46-1.66,0-.46-.46-.46-1.21,0-1.66s1.21-.46,1.66,0,.46,1.21,0,1.66Z"/>
      <path class="cls-1" d="m64.83,142.78c-.46.46-1.21.46-1.66,0-.46-.46-.46-1.21,0-1.66.46-.46,1.21-.46,1.66,0s.46,1.21,0,1.66Z"/>
      <path class="cls-1" d="m70.38,148.33c-.46.46-1.21.46-1.66,0s-.46-1.21,0-1.66,1.21-.46,1.66,0,.46,1.21,0,1.66Z"/>
      <path class="cls-1" d="m75.93,153.88c-.46.46-1.21.46-1.66,0s-.46-1.21,0-1.66c.46-.46,1.21-.46,1.66,0s.46,1.21,0,1.66Z"/>
      <path class="cls-1" d="m81.48,159.43c-.46.46-1.21.46-1.66,0s-.46-1.21,0-1.66,1.21-.46,1.66,0,.46,1.21,0,1.66Z"/>
      <path class="cls-1" d="m87.03,164.98c-.46.46-1.21.46-1.66,0s-.46-1.21,0-1.66c.46-.46,1.21-.46,1.66,0s.46,1.21,0,1.66Z"/>
      <path class="cls-1" d="m53.73,137.24c-.46.46-1.21.46-1.66,0s-.46-1.21,0-1.66,1.21-.46,1.66,0,.46,1.21,0,1.66Z"/>
      <path class="cls-1" d="m59.28,142.78c-.46.46-1.21.46-1.66,0-.46-.46-.46-1.21,0-1.66s1.21-.46,1.66,0c.46.46.46,1.21,0,1.66Z"/>
      <path class="cls-1" d="m64.83,148.33c-.46.46-1.21.46-1.66,0s-.46-1.21,0-1.66c.46-.46,1.21-.46,1.66,0s.46,1.21,0,1.66Z"/>
      <path class="cls-1" d="m70.38,153.88c-.46.46-1.21.46-1.66,0-.46-.46-.46-1.21,0-1.66.46-.46,1.21-.46,1.66,0s.46,1.21,0,1.66Z"/>
      <path class="cls-1" d="m75.93,159.43c-.46.46-1.21.46-1.66,0s-.46-1.21,0-1.66,1.21-.46,1.66,0,.46,1.21,0,1.66Z"/>
      <path class="cls-1" d="m81.48,164.98c-.46.46-1.21.46-1.66,0s-.46-1.21,0-1.66,1.21-.46,1.66,0,.46,1.21,0,1.66Z"/>
      <path class="cls-1" d="m87.03,170.53c-.46.46-1.21.46-1.66,0s-.46-1.21,0-1.66,1.21-.46,1.66,0,.46,1.21,0,1.66Z"/>
      <path class="cls-1" d="m53.73,142.78c-.46.46-1.21.46-1.66,0s-.46-1.21,0-1.66c.46-.46,1.21-.46,1.66,0s.46,1.21,0,1.66Z"/>
      <path class="cls-1" d="m59.28,148.33c-.46.46-1.21.46-1.66,0s-.46-1.21,0-1.66,1.21-.46,1.66,0,.46,1.21,0,1.66Z"/>
      <path class="cls-1" d="m64.83,153.88c-.46.46-1.21.46-1.66,0s-.46-1.21,0-1.66,1.21-.46,1.66,0,.46,1.21,0,1.66Z"/>
      <path class="cls-1" d="m70.38,159.43c-.46.46-1.21.46-1.66,0-.46-.46-.46-1.21,0-1.66s1.21-.46,1.66,0,.46,1.21,0,1.66Z"/>
      <path class="cls-1" d="m75.93,164.98c-.46.46-1.21.46-1.66,0s-.46-1.21,0-1.66c.46-.46,1.21-.46,1.66,0s.46,1.21,0,1.66Z"/>
      <path class="cls-1" d="m81.48,170.53c-.46.46-1.21.46-1.66,0s-.46-1.21,0-1.66,1.21-.46,1.66,0,.46,1.21,0,1.66Z"/>
      <path class="cls-1" d="m48.18,142.78c-.46.46-1.21.46-1.66,0s-.46-1.21,0-1.66,1.21-.46,1.66,0,.46,1.21,0,1.66Z"/>
      <path class="cls-1" d="m53.73,148.33c-.46.46-1.21.46-1.66,0-.46-.46-.46-1.21,0-1.66.46-.46,1.21-.46,1.66,0s.46,1.21,0,1.66Z"/>
      <path class="cls-1" d="m59.28,153.88c-.46.46-1.21.46-1.66,0s-.46-1.21,0-1.66,1.21-.46,1.66,0,.46,1.21,0,1.66Z"/>
      <path class="cls-1" d="m64.83,159.43c-.46.46-1.21.46-1.66,0-.46-.46-.46-1.21,0-1.66s1.21-.46,1.66,0,.46,1.21,0,1.66Z"/>
      <path class="cls-1" d="m70.38,164.98c-.46.46-1.21.46-1.66,0s-.46-1.21,0-1.66,1.21-.46,1.66,0,.46,1.21,0,1.66Z"/>
      <path class="cls-1" d="m75.93,170.53c-.46.46-1.21.46-1.66,0-.46-.46-.46-1.21,0-1.66s1.21-.46,1.66,0,.46,1.21,0,1.66Z"/>
      <path class="cls-1" d="m81.48,176.08c-.46.46-1.21.46-1.66,0s-.46-1.21,0-1.66,1.21-.46,1.66,0,.46,1.21,0,1.66Z"/>
      <path class="cls-1" d="m48.18,148.33c-.46.46-1.21.46-1.66,0s-.46-1.21,0-1.66,1.21-.46,1.66,0,.46,1.21,0,1.66Z"/>
      <path class="cls-1" d="m53.73,153.88c-.46.46-1.21.46-1.66,0s-.46-1.21,0-1.66,1.21-.46,1.66,0c.46.46.46,1.21,0,1.66Z"/>
      <path class="cls-1" d="m59.28,159.43c-.46.46-1.21.46-1.66,0s-.46-1.21,0-1.66,1.21-.46,1.66,0,.46,1.21,0,1.66Z"/>
      <path class="cls-1" d="m64.83,164.98c-.46.46-1.21.46-1.66,0s-.46-1.21,0-1.66c.46-.46,1.21-.46,1.66,0,.46.46.46,1.21,0,1.66Z"/>
      <path class="cls-1" d="m70.38,170.53c-.46.46-1.21.46-1.66,0s-.46-1.21,0-1.66,1.21-.46,1.66,0c.46.46.46,1.21,0,1.66Z"/>
      <path class="cls-1" d="m75.93,176.08c-.46.46-1.21.46-1.66,0s-.46-1.21,0-1.66c.46-.46,1.21-.46,1.66,0,.46.46.46,1.21,0,1.66Z"/>
      <path class="cls-1" d="m42.63,148.33c-.46.46-1.21.46-1.66,0s-.46-1.21,0-1.66,1.21-.46,1.66,0,.46,1.21,0,1.66Z"/>
      <path class="cls-1" d="m48.18,153.88c-.46.46-1.21.46-1.66,0s-.46-1.21,0-1.66,1.21-.46,1.66,0,.46,1.21,0,1.66Z"/>
      <path class="cls-1" d="m53.73,159.43c-.46.46-1.21.46-1.66,0-.46-.46-.46-1.21,0-1.66s1.21-.46,1.66,0c.46.46.46,1.21,0,1.66Z"/>
      <path class="cls-1" d="m59.28,164.98c-.46.46-1.21.46-1.66,0s-.46-1.21,0-1.66c.46-.46,1.21-.46,1.66,0s.46,1.21,0,1.66Z"/>
      <path class="cls-1" d="m64.83,170.53c-.46.46-1.21.46-1.66,0-.46-.46-.46-1.21,0-1.66s1.21-.46,1.66,0,.46,1.21,0,1.66Z"/>
      <path class="cls-1" d="m70.38,176.08c-.46.46-1.21.46-1.66,0s-.46-1.21,0-1.66,1.21-.46,1.66,0,.46,1.21,0,1.66Z"/>
      <path class="cls-1" d="m75.93,181.63c-.46.46-1.21.46-1.66,0s-.46-1.21,0-1.66,1.21-.46,1.66,0,.46,1.21,0,1.66Z"/>
      <path class="cls-1" d="m42.63,153.88c-.46.46-1.21.46-1.66,0-.46-.46-.46-1.21,0-1.66.46-.46,1.21-.46,1.66,0s.46,1.21,0,1.66Z"/>
      <path class="cls-1" d="m48.18,159.43c-.46.46-1.21.46-1.66,0-.46-.46-.46-1.21,0-1.66s1.21-.46,1.66,0,.46,1.21,0,1.66Z"/>
      <path class="cls-1" d="m53.73,164.98c-.46.46-1.21.46-1.66,0-.46-.46-.46-1.21,0-1.66s1.21-.46,1.66,0,.46,1.21,0,1.66Z"/>
      <path class="cls-1" d="m59.28,170.53c-.46.46-1.21.46-1.66,0-.46-.46-.46-1.21,0-1.66s1.21-.46,1.66,0,.46,1.21,0,1.66Z"/>
      <path class="cls-1" d="m64.83,176.08c-.46.46-1.21.46-1.66,0-.46-.46-.46-1.21,0-1.66.46-.46,1.21-.46,1.66,0s.46,1.21,0,1.66Z"/>
      <path class="cls-1" d="m70.38,181.63c-.46.46-1.21.46-1.66,0-.46-.46-.46-1.21,0-1.66s1.21-.46,1.66,0,.46,1.21,0,1.66Z"/>
      <path class="cls-1" d="m37.08,153.88c-.46.46-1.21.46-1.66,0s-.46-1.21,0-1.66c.46-.46,1.21-.46,1.66,0s.46,1.21,0,1.66Z"/>
      <path class="cls-1" d="m42.63,159.43c-.46.46-1.21.46-1.66,0s-.46-1.21,0-1.66c.46-.46,1.21-.46,1.66,0,.46.46.46,1.21,0,1.66Z"/>
      <path class="cls-1" d="m48.18,164.98c-.46.46-1.21.46-1.66,0-.46-.46-.46-1.21,0-1.66.46-.46,1.21-.46,1.66,0s.46,1.21,0,1.66Z"/>
      <path class="cls-1" d="m53.73,170.53c-.46.46-1.21.46-1.66,0s-.46-1.21,0-1.66,1.21-.46,1.66,0c.46.46.46,1.21,0,1.66Z"/>
      <path class="cls-1" d="m59.28,176.08c-.46.46-1.21.46-1.66,0s-.46-1.21,0-1.66c.46-.46,1.21-.46,1.66,0s.46,1.21,0,1.66Z"/>
      <path class="cls-1" d="m64.83,181.63c-.46.46-1.21.46-1.66,0s-.46-1.21,0-1.66c.46-.46,1.21-.46,1.66,0s.46,1.21,0,1.66Z"/>
      <path class="cls-1" d="m70.38,187.18c-.46.46-1.21.46-1.66,0s-.46-1.21,0-1.66c.46-.46,1.21-.46,1.66,0s.46,1.21,0,1.66Z"/>
    </g>
    <g>
      <path class="cls-2" d="m28.4,168.38c-.38.38-1,.38-1.39,0s-.38-1,0-1.39c.38-.38,1-.38,1.39,0,.38.38.38,1,0,1.39Z"/>
      <path class="cls-2" d="m30.34,170.33c-.38.38-1,.38-1.39,0-.38-.38-.38-1,0-1.39.38-.38,1-.38,1.39,0s.38,1,0,1.39Z"/>
      <path class="cls-2" d="m32.28,172.27c-.38.38-1,.38-1.39,0-.38-.38-.38-1,0-1.39s1-.38,1.39,0,.38,1,0,1.39Z"/>
      <path class="cls-2" d="m26.45,170.33c-.38.38-1,.38-1.39,0s-.38-1,0-1.39c.38-.38,1-.38,1.39,0,.38.38.38,1,0,1.39Z"/>
      <path class="cls-2" d="m28.4,172.27c-.38.38-1,.38-1.39,0s-.38-1,0-1.39c.38-.38,1-.38,1.39,0s.38,1,0,1.39Z"/>
      <path class="cls-2" d="m30.34,174.21c-.38.38-1,.38-1.39,0-.38-.38-.38-1,0-1.39.38-.38,1-.38,1.39,0,.38.38.38,1,0,1.39Z"/>
      <path class="cls-2" d="m24.51,172.27c-.38.38-1,.38-1.39,0s-.38-1,0-1.39,1-.38,1.39,0,.38,1,0,1.39Z"/>
      <path class="cls-2" d="m26.45,174.21c-.38.38-1,.38-1.39,0-.38-.38-.38-1,0-1.39.38-.38,1-.38,1.39,0,.38.38.38,1,0,1.39Z"/>
      <path class="cls-2" d="m28.4,176.15c-.38.38-1,.38-1.39,0-.38-.38-.38-1,0-1.39s1-.38,1.39,0c.38.38.38,1,0,1.39Z"/>
      <path class="cls-2" d="m34.22,174.21c-.38.38-1,.38-1.39,0s-.38-1,0-1.39c.38-.38,1-.38,1.39,0s.38,1,0,1.39Z"/>
      <path class="cls-2" d="m32.28,176.15c-.38.38-1,.38-1.39,0s-.38-1,0-1.39,1-.38,1.39,0,.38,1,0,1.39Z"/>
      <path class="cls-2" d="m30.34,178.1c-.38.38-1,.38-1.39,0s-.38-1,0-1.39,1-.38,1.39,0c.38.38.38,1,0,1.39Z"/>
      <path class="cls-2" d="m36.16,176.15c-.38.38-1,.38-1.39,0-.38-.38-.38-1,0-1.39.38-.38,1-.38,1.39,0s.38,1,0,1.39Z"/>
      <path class="cls-2" d="m34.22,178.1c-.38.38-1,.38-1.39,0s-.38-1,0-1.39c.38-.38,1-.38,1.39,0s.38,1,0,1.39Z"/>
      <path class="cls-2" d="m32.28,180.04c-.38.38-1,.38-1.39,0-.38-.38-.38-1,0-1.39s1-.38,1.39,0,.38,1,0,1.39Z"/>
      <path class="cls-2" d="m22.57,174.21c-.38.38-1,.38-1.39,0s-.38-1,0-1.39c.38-.38,1-.38,1.39,0,.38.38.38,1,0,1.39Z"/>
      <path class="cls-2" d="m24.51,176.15c-.38.38-1,.38-1.39,0s-.38-1,0-1.39c.38-.38,1-.38,1.39,0,.38.38.38,1,0,1.39Z"/>
      <path class="cls-2" d="m26.45,178.1c-.38.38-1,.38-1.39,0s-.38-1,0-1.39c.38-.38,1-.38,1.39,0s.38,1,0,1.39Z"/>
      <path class="cls-2" d="m28.4,180.04c-.38.38-1,.38-1.39,0s-.38-1,0-1.39,1-.38,1.39,0c.38.38.38,1,0,1.39Z"/>
      <path class="cls-2" d="m30.34,181.98c-.38.38-1,.38-1.39,0s-.38-1,0-1.39c.38-.38,1-.38,1.39,0,.38.38.38,1,0,1.39Z"/>
      <path class="cls-2" d="m20.63,176.15c-.38.38-1,.38-1.39,0-.38-.38-.38-1,0-1.39s1-.38,1.39,0c.38.38.38,1,0,1.39Z"/>
      <path class="cls-2" d="m22.57,178.1c-.38.38-1,.38-1.39,0s-.38-1,0-1.39c.38-.38,1-.38,1.39,0,.38.38.38,1,0,1.39Z"/>
      <path class="cls-2" d="m24.51,180.04c-.38.38-1,.38-1.39,0-.38-.38-.38-1,0-1.39s1-.38,1.39,0,.38,1,0,1.39Z"/>
      <path class="cls-2" d="m26.45,181.98c-.38.38-1,.38-1.39,0s-.38-1,0-1.39,1-.38,1.39,0c.38.38.38,1,0,1.39Z"/>
      <path class="cls-2" d="m28.4,183.92c-.38.38-1,.38-1.39,0s-.38-1,0-1.39c.38-.38,1-.38,1.39,0s.38,1,0,1.39Z"/>
      <path class="cls-2" d="m38.11,178.1c-.38.38-1,.38-1.39,0s-.38-1,0-1.39c.38-.38,1-.38,1.39,0s.38,1,0,1.39Z"/>
      <path class="cls-2" d="m36.16,180.04c-.38.38-1,.38-1.39,0s-.38-1,0-1.39,1-.38,1.39,0c.38.38.38,1,0,1.39Z"/>
      <path class="cls-2" d="m34.22,181.98c-.38.38-1,.38-1.39,0s-.38-1,0-1.39,1-.38,1.39,0,.38,1,0,1.39Z"/>
      <path class="cls-2" d="m32.28,183.92c-.38.38-1,.38-1.39,0-.38-.38-.38-1,0-1.39s1-.38,1.39,0c.38.38.38,1,0,1.39Z"/>
      <path class="cls-2" d="m30.34,185.87c-.38.38-1,.38-1.39,0-.38-.38-.38-1,0-1.39.38-.38,1-.38,1.39,0,.38.38.38,1,0,1.39Z"/>
      <path class="cls-2" d="m40.05,180.04c-.38.38-1,.38-1.39,0-.38-.38-.38-1,0-1.39.38-.38,1-.38,1.39,0s.38,1,0,1.39Z"/>
      <path class="cls-2" d="m38.11,181.98c-.38.38-1,.38-1.39,0s-.38-1,0-1.39c.38-.38,1-.38,1.39,0s.38,1,0,1.39Z"/>
      <path class="cls-2" d="m36.17,183.92c-.38.38-1,.38-1.39,0-.38-.38-.38-1,0-1.39s1-.38,1.39,0c.38.38.38,1,0,1.39Z"/>
      <path class="cls-2" d="m34.22,185.87c-.38.38-1,.38-1.39,0s-.38-1,0-1.39c.38-.38,1-.38,1.39,0s.38,1,0,1.39Z"/>
      <path class="cls-2" d="m32.28,187.81c-.38.38-1,.38-1.39,0s-.38-1,0-1.39c.38-.38,1-.38,1.39,0,.38.38.38,1,0,1.39Z"/>
      <path class="cls-2" d="m41.99,181.98c-.38.38-1,.38-1.39,0-.38-.38-.38-1,0-1.39.38-.38,1-.38,1.39,0s.38,1,0,1.39Z"/>
      <path class="cls-2" d="m40.05,183.92c-.38.38-1,.38-1.39,0-.38-.38-.38-1,0-1.39.38-.38,1-.38,1.39,0,.38.38.38,1,0,1.39Z"/>
      <path class="cls-2" d="m38.11,185.87c-.38.38-1,.38-1.39,0-.38-.38-.38-1,0-1.39.38-.38,1-.38,1.39,0s.38,1,0,1.39Z"/>
      <path class="cls-2" d="m36.16,187.81c-.38.38-1,.38-1.39,0-.38-.38-.38-1,0-1.39.38-.38,1-.38,1.39,0,.38.38.38,1,0,1.39Z"/>
      <path class="cls-2" d="m34.22,189.75c-.38.38-1,.38-1.39,0-.38-.38-.38-1,0-1.39s1-.38,1.39,0,.38,1,0,1.39Z"/>
      <path class="cls-2" d="m43.93,183.92c-.38.38-1,.38-1.39,0-.38-.38-.38-1,0-1.39.38-.38,1-.38,1.39,0,.38.38.38,1,0,1.39Z"/>
      <path class="cls-2" d="m41.99,185.87c-.38.38-1,.38-1.39,0-.38-.38-.38-1,0-1.39.38-.38,1-.38,1.39,0s.38,1,0,1.39Z"/>
      <path class="cls-2" d="m40.05,187.81c-.38.38-1,.38-1.39,0-.38-.38-.38-1,0-1.39.38-.38,1-.38,1.39,0,.38.38.38,1,0,1.39Z"/>
      <path class="cls-2" d="m38.11,189.75c-.38.38-1,.38-1.39,0-.38-.38-.38-1,0-1.39.38-.38,1-.38,1.39,0s.38,1,0,1.39Z"/>
      <path class="cls-2" d="m36.16,191.69c-.38.38-1,.38-1.39,0s-.38-1,0-1.39c.38-.38,1-.38,1.39,0s.38,1,0,1.39Z"/>
      <path class="cls-2" d="m45.88,185.87c-.38.38-1,.38-1.39,0-.38-.38-.38-1,0-1.39.38-.38,1-.38,1.39,0,.38.38.38,1,0,1.39Z"/>
      <path class="cls-2" d="m43.93,187.81c-.38.38-1,.38-1.39,0s-.38-1,0-1.39c.38-.38,1-.38,1.39,0,.38.38.38,1,0,1.39Z"/>
      <path class="cls-2" d="m41.99,189.75c-.38.38-1,.38-1.39,0-.38-.38-.38-1,0-1.39s1-.38,1.39,0c.38.38.38,1,0,1.39Z"/>
      <path class="cls-2" d="m40.05,191.69c-.38.38-1,.38-1.39,0-.38-.38-.38-1,0-1.39.38-.38,1-.38,1.39,0,.38.38.38,1,0,1.39Z"/>
      <path class="cls-2" d="m38.11,193.63c-.38.38-1,.38-1.39,0-.38-.38-.38-1,0-1.39s1-.38,1.39,0c.38.38.38,1,0,1.39Z"/>
      <path class="cls-2" d="m18.68,178.1c-.38.38-1,.38-1.39,0s-.38-1,0-1.39c.38-.38,1-.38,1.39,0,.38.38.38,1,0,1.39Z"/>
      <path class="cls-2" d="m20.63,180.04c-.38.38-1,.38-1.39,0-.38-.38-.38-1,0-1.39s1-.38,1.39,0,.38,1,0,1.39Z"/>
      <path class="cls-2" d="m22.57,181.98c-.38.38-1,.38-1.39,0s-.38-1,0-1.39,1-.38,1.39,0c.38.38.38,1,0,1.39Z"/>
      <path class="cls-2" d="m24.51,183.92c-.38.38-1,.38-1.39,0s-.38-1,0-1.39c.38-.38,1-.38,1.39,0s.38,1,0,1.39Z"/>
      <path class="cls-2" d="m26.45,185.87c-.38.38-1,.38-1.39,0-.38-.38-.38-1,0-1.39.38-.38,1-.38,1.39,0s.38,1,0,1.39Z"/>
      <path class="cls-2" d="m28.4,187.81c-.38.38-1,.38-1.39,0-.38-.38-.38-1,0-1.39.38-.38,1-.38,1.39,0,.38.38.38,1,0,1.39Z"/>
      <path class="cls-2" d="m30.34,189.75c-.38.38-1,.38-1.39,0-.38-.38-.38-1,0-1.39.38-.38,1-.38,1.39,0s.38,1,0,1.39Z"/>
      <path class="cls-2" d="m32.28,191.69c-.38.38-1,.38-1.39,0s-.38-1,0-1.39,1-.38,1.39,0,.38,1,0,1.39Z"/>
      <path class="cls-2" d="m34.22,193.63c-.38.38-1,.38-1.39,0-.38-.38-.38-1,0-1.39s1-.38,1.39,0,.38,1,0,1.39Z"/>
      <path class="cls-2" d="m36.16,195.58c-.38.38-1,.38-1.39,0s-.38-1,0-1.39c.38-.38,1-.38,1.39,0s.38,1,0,1.39Z"/>
      <path class="cls-2" d="m16.74,180.04c-.38.38-1,.38-1.39,0s-.38-1,0-1.39c.38-.38,1-.38,1.39,0,.38.38.38,1,0,1.39Z"/>
      <path class="cls-2" d="m18.68,181.98c-.38.38-1,.38-1.39,0s-.38-1,0-1.39c.38-.38,1-.38,1.39,0s.38,1,0,1.39Z"/>
      <circle class="cls-2" cx="19.93" cy="183.23" r=".98"/>
      <path class="cls-2" d="m22.57,185.87c-.38.38-1,.38-1.39,0s-.38-1,0-1.39,1-.38,1.39,0,.38,1,0,1.39Z"/>
      <path class="cls-2" d="m24.51,187.81c-.38.38-1,.38-1.39,0s-.38-1,0-1.39c.38-.38,1-.38,1.39,0s.38,1,0,1.39Z"/>
      <circle class="cls-2" cx="25.76" cy="189.06" r=".98"/>
      <path class="cls-2" d="m28.4,191.69c-.38.38-1,.38-1.39,0s-.38-1,0-1.39c.38-.38,1-.38,1.39,0s.38,1,0,1.39Z"/>
      <path class="cls-2" d="m30.34,193.63c-.38.38-1,.38-1.39,0-.38-.38-.38-1,0-1.39.38-.38,1-.38,1.39,0,.38.38.38,1,0,1.39Z"/>
      <path class="cls-2" d="m32.28,195.58c-.38.38-1,.38-1.39,0-.38-.38-.38-1,0-1.39.38-.38,1-.38,1.39,0s.38,1,0,1.39Z"/>
      <path class="cls-2" d="m34.22,197.52c-.38.38-1,.38-1.39,0-.38-.38-.38-1,0-1.39s1-.38,1.39,0c.38.38.38,1,0,1.39Z"/>
      <path class="cls-2" d="m14.8,181.98c-.38.38-1,.38-1.39,0s-.38-1,0-1.39c.38-.38,1-.38,1.39,0,.38.38.38,1,0,1.39Z"/>
      <path class="cls-2" d="m16.74,183.92c-.38.38-1,.38-1.39,0-.38-.38-.38-1,0-1.39.38-.38,1-.38,1.39,0s.38,1,0,1.39Z"/>
      <path class="cls-2" d="m18.68,185.87c-.38.38-1,.38-1.39,0-.38-.38-.38-1,0-1.39s1-.38,1.39,0,.38,1,0,1.39Z"/>
      <path class="cls-2" d="m20.63,187.81c-.38.38-1,.38-1.39,0s-.38-1,0-1.39c.38-.38,1-.38,1.39,0s.38,1,0,1.39Z"/>
      <path class="cls-2" d="m22.57,189.75c-.38.38-1,.38-1.39,0-.38-.38-.38-1,0-1.39.38-.38,1-.38,1.39,0s.38,1,0,1.39Z"/>
      <path class="cls-2" d="m24.51,191.69c-.38.38-1,.38-1.39,0s-.38-1,0-1.39c.38-.38,1-.38,1.39,0s.38,1,0,1.39Z"/>
      <path class="cls-2" d="m26.45,193.63c-.38.38-1,.38-1.39,0-.38-.38-.38-1,0-1.39.38-.38,1-.38,1.39,0s.38,1,0,1.39Z"/>
      <path class="cls-2" d="m28.4,195.58c-.38.38-1,.38-1.39,0-.38-.38-.38-1,0-1.39.38-.38,1-.38,1.39,0s.38,1,0,1.39Z"/>
      <path class="cls-2" d="m30.34,197.52c-.38.38-1,.38-1.39,0-.38-.38-.38-1,0-1.39.38-.38,1-.38,1.39,0,.38.38.38,1,0,1.39Z"/>
      <path class="cls-2" d="m32.28,199.46c-.38.38-1,.38-1.39,0-.38-.38-.38-1,0-1.39.38-.38,1-.38,1.39,0,.38.38.38,1,0,1.39Z"/>
      <path class="cls-2" d="m12.86,183.92c-.38.38-1,.38-1.39,0s-.38-1,0-1.39c.38-.38,1-.38,1.39,0,.38.38.38,1,0,1.39Z"/>
      <path class="cls-2" d="m14.8,185.87c-.38.38-1,.38-1.39,0s-.38-1,0-1.39c.38-.38,1-.38,1.39,0s.38,1,0,1.39Z"/>
      <path class="cls-2" d="m16.74,187.81c-.38.38-1,.38-1.39,0-.38-.38-.38-1,0-1.39s1-.38,1.39,0c.38.38.38,1,0,1.39Z"/>
      <path class="cls-2" d="m18.68,189.75c-.38.38-1,.38-1.39,0s-.38-1,0-1.39,1-.38,1.39,0,.38,1,0,1.39Z"/>
      <path class="cls-2" d="m20.63,191.69c-.38.38-1,.38-1.39,0s-.38-1,0-1.39c.38-.38,1-.38,1.39,0s.38,1,0,1.39Z"/>
      <path class="cls-2" d="m22.57,193.63c-.38.38-1,.38-1.39,0s-.38-1,0-1.39,1-.38,1.39,0c.38.38.38,1,0,1.39Z"/>
      <path class="cls-2" d="m24.51,195.58c-.38.38-1,.38-1.39,0s-.38-1,0-1.39c.38-.38,1-.38,1.39,0s.38,1,0,1.39Z"/>
      <path class="cls-2" d="m26.45,197.52c-.38.38-1,.38-1.39,0-.38-.38-.38-1,0-1.39.38-.38,1-.38,1.39,0,.38.38.38,1,0,1.39Z"/>
      <path class="cls-2" d="m28.4,199.46c-.38.38-1,.38-1.39,0-.38-.38-.38-1,0-1.39.38-.38,1-.38,1.39,0s.38,1,0,1.39Z"/>
      <path class="cls-2" d="m30.34,201.4c-.38.38-1,.38-1.39,0s-.38-1,0-1.39,1-.38,1.39,0c.38.38.38,1,0,1.39Z"/>
      <path class="cls-2" d="m10.91,185.87c-.38.38-1,.38-1.39,0s-.38-1,0-1.39c.38-.38,1-.38,1.39,0,.38.38.38,1,0,1.39Z"/>
      <path class="cls-2" d="m12.86,187.81c-.38.38-1,.38-1.39,0-.38-.38-.38-1,0-1.39.38-.38,1-.38,1.39,0,.38.38.38,1,0,1.39Z"/>
      <path class="cls-2" d="m14.8,189.75c-.38.38-1,.38-1.39,0-.38-.38-.38-1,0-1.39s1-.38,1.39,0,.38,1,0,1.39Z"/>
      <path class="cls-2" d="m16.74,191.69c-.38.38-1,.38-1.39,0s-.38-1,0-1.39,1-.38,1.39,0,.38,1,0,1.39Z"/>
      <path class="cls-2" d="m18.68,193.63c-.38.38-1,.38-1.39,0-.38-.38-.38-1,0-1.39s1-.38,1.39,0,.38,1,0,1.39Z"/>
      <path class="cls-2" d="m20.63,195.58c-.38.38-1,.38-1.39,0s-.38-1,0-1.39c.38-.38,1-.38,1.39,0s.38,1,0,1.39Z"/>
      <path class="cls-2" d="m22.57,197.52c-.38.38-1,.38-1.39,0-.38-.38-.38-1,0-1.39s1-.38,1.39,0c.38.38.38,1,0,1.39Z"/>
      <path class="cls-2" d="m24.51,199.46c-.38.38-1,.38-1.39,0-.38-.38-.38-1,0-1.39.38-.38,1-.38,1.39,0s.38,1,0,1.39Z"/>
      <path class="cls-2" d="m26.45,201.4c-.38.38-1,.38-1.39,0-.38-.38-.38-1,0-1.39.38-.38,1-.38,1.39,0s.38,1,0,1.39Z"/>
      <path class="cls-2" d="m28.4,203.35c-.38.38-1,.38-1.39,0-.38-.38-.38-1,0-1.39.38-.38,1-.38,1.39,0s.38,1,0,1.39Z"/>
    </g>
    <g>
      <line class="cls-3" x1=".74" y1="57.42" x2="10.3" y2="57.42"/>
      <line class="cls-3" x1="27.57" y1="57.42" x2="18.01" y2="57.42"/>
      <line class="cls-3" x1="14.16" y1="70.84" x2="14.16" y2="61.28"/>
      <line class="cls-3" x1="14.16" y1="44.01" x2="14.16" y2="53.56"/>
    </g>
    <g>
      <line class="cls-3" x1="34.95" y1="75.42" x2="44.51" y2="75.42"/>
      <line class="cls-3" x1="61.78" y1="75.42" x2="52.22" y2="75.42"/>
      <line class="cls-3" x1="48.37" y1="88.84" x2="48.37" y2="79.28"/>
      <line class="cls-3" x1="48.37" y1="62.01" x2="48.37" y2="71.56"/>
    </g>
    <g>
      <line class="cls-3" x1="10.21" y1="100.17" x2="19.76" y2="100.17"/>
      <line class="cls-3" x1="37.03" y1="100.17" x2="27.48" y2="100.17"/>
      <line class="cls-3" x1="23.62" y1="113.58" x2="23.62" y2="104.03"/>
      <line class="cls-3" x1="23.62" y1="86.76" x2="23.62" y2="96.31"/>
    </g>
  </g>
</svg>