<?xml version="1.0" encoding="UTF-8"?>
<svg id="_レイヤー_2" data-name="レイヤー 2" xmlns="http://www.w3.org/2000/svg" viewBox="0 0 74.83 67.52">
  <defs>
    <style>
      .cls-1 {
        fill: none;
        stroke: #040000;
        stroke-linecap: round;
        stroke-linejoin: round;
        stroke-width: 1.71px;
      }
    </style>
  </defs>
  <g id="_レイヤー_4" data-name="レイヤー 4">
    <g>
      <line class="cls-1" x1="37.59" y1="24.41" x2="19.36" y2="53.81"/>
      <path class="cls-1" d="m45.62,17.28c-.89,1.44-2.78,1.88-4.21.99-1.44-.89-1.88-2.78-.99-4.22.89-1.44,2.78-1.88,4.22-.99,1.44.89,1.88,2.78.99,4.22Z"/>
      <line class="cls-1" x1="3.6" y1="14.2" x2="2.5" y2="48.77"/>
      <path class="cls-1" d="m6.98,4.01c-.05,1.69-1.47,3.02-3.16,2.96-1.69-.05-3.02-1.46-2.97-3.16S2.33.8,4.02.86c1.69.05,3.02,1.47,2.96,3.16Z"/>
      <line class="cls-1" x1="61.85" y1="50.33" x2="31.36" y2="66.67"/>
      <path class="cls-1" d="m69.47,42.77c-1.49.8-2.05,2.65-1.25,4.14.8,1.49,2.66,2.05,4.15,1.25,1.49-.8,2.05-2.66,1.25-4.15-.8-1.49-2.66-2.05-4.15-1.25Z"/>
    </g>
  </g>
</svg>