<?xml version="1.0" encoding="UTF-8"?>
<svg id="_レイヤー_2" data-name="レイヤー 2" xmlns="http://www.w3.org/2000/svg" viewBox="0 0 127.25 103.18">
  <defs>
    <style>
      .cls-1 {
        fill: #fff;
        stroke: #040000;
        stroke-linecap: round;
        stroke-linejoin: round;
        stroke-width: 2.04px;
      }
    </style>
  </defs>
  <g id="_レイヤー_4" data-name="レイヤー 4">
    <path class="cls-1" d="m126.23,32c-25.94,2.79-28.2,5.04-30.98,30.98-2.79-25.94-5.04-28.2-30.98-30.98,25.94-2.79,28.2-5.04,30.98-30.98,2.79,25.94,5.04,28.2,30.98,30.98Z"/>
    <path class="cls-1" d="m60.95,78.3c-19.97,2.14-21.71,3.88-23.86,23.86-2.14-19.97-3.88-21.71-23.86-23.86,19.97-2.14,21.71-3.88,23.86-23.86,2.15,19.97,3.89,21.71,23.86,23.86Z"/>
    <path class="cls-1" d="m37.76,30.3c-15.38,1.65-16.72,2.99-18.37,18.37-1.65-15.38-2.99-16.72-18.37-18.37,15.38-1.65,16.72-2.99,18.37-18.37,1.65,15.38,2.99,16.72,18.37,18.37Z"/>
  </g>
</svg>