<?xml version="1.0" encoding="UTF-8"?>
<svg id="_レイヤー_2" data-name="レイヤー 2" xmlns="http://www.w3.org/2000/svg" xmlns:xlink="http://www.w3.org/1999/xlink" viewBox="0 0 154.64 142.16">
  <defs>
    <style>
      .cls-1 {
        fill: url(#_名称未設定グラデーション_160);
      }

      .cls-2 {
        fill: #a5d3f2;
      }

      .cls-3 {
        fill: url(#_名称未設定グラデーション_160-2);
      }

      .cls-4 {
        fill: none;
        stroke: #a5d3f2;
        stroke-linecap: round;
        stroke-linejoin: round;
        stroke-width: 5.8px;
      }
    </style>
    <linearGradient id="_名称未設定グラデーション_160" data-name="名称未設定グラデーション 160" x1="65.22" y1="89.41" x2="152.17" y2="2.47" gradientUnits="userSpaceOnUse">
      <stop offset="0" stop-color="#abdad2"/>
      <stop offset="1" stop-color="#bdddb1"/>
    </linearGradient>
    <linearGradient id="_名称未設定グラデーション_160-2" data-name="名称未設定グラデーション 160" x1="58.54" y1="54.07" x2="104.07" y2="8.55" xlink:href="#_名称未設定グラデーション_160"/>
  </defs>
  <g id="_レイヤー_4" data-name="レイヤー 4">
    <g>
      <path class="cls-1" d="m71.18,91.88c-.14,0-.28,0-.42,0-.14,0-.28-.02-.41-.03-.14-.02-.27-.03-.41-.05-.14-.02-.27-.05-.41-.07-.14-.03-.27-.06-.4-.09-.13-.03-.27-.07-.4-.11-.26-.08-.52-.17-.77-.28-.25-.11-.5-.22-.75-.35-.12-.06-.24-.13-.36-.2-.12-.07-.24-.14-.35-.22-.11-.07-.23-.16-.34-.24-.11-.08-.22-.17-.32-.25-.11-.08-.21-.18-.31-.27-.1-.09-.2-.19-.3-.29-.1-.1-.19-.2-.29-.3-.09-.1-.18-.21-.27-.32-.09-.11-.17-.22-.25-.33s-.16-.22-.24-.34c-.07-.11-.15-.23-.22-.35-.07-.12-.14-.24-.2-.36-.13-.24-.25-.49-.35-.74-.11-.25-.2-.52-.28-.78-.04-.13-.08-.27-.11-.4-.03-.13-.07-.27-.09-.4-.03-.14-.05-.27-.07-.41-.02-.14-.04-.28-.05-.41-.01-.14-.03-.28-.03-.41,0-.14,0-.28,0-.42s0-.28,0-.41c0-.14.02-.28.03-.42.01-.14.03-.27.05-.41.02-.14.04-.27.07-.41.03-.13.06-.27.09-.4.03-.13.07-.27.11-.4.08-.26.17-.52.28-.78.1-.25.22-.5.35-.74.07-.12.13-.24.2-.36.07-.12.15-.23.22-.35.07-.12.16-.23.24-.34.08-.11.17-.22.25-.32.09-.11.18-.21.27-.32.09-.1.19-.2.29-.3s.2-.19.3-.29c.1-.09.21-.19.31-.27.1-.08.21-.17.32-.25.11-.08.22-.16.34-.24.11-.07.23-.15.35-.22.12-.07.24-.14.36-.2.24-.13.49-.25.75-.35.25-.1.51-.2.77-.28.13-.04.27-.07.4-.11.13-.03.27-.06.4-.09.13-.03.27-.05.41-.07.14-.02.27-.04.41-.05.14-.01.28-.02.41-.03.28-.02.56-.02.83,0,.14,0,.28.02.41.03.14.01.27.03.41.05.14.02.27.05.41.07.14.03.27.06.4.09.13.04.27.07.4.11.26.08.52.18.77.28.25.1.5.22.75.35.12.06.24.13.36.2.12.07.24.14.35.22.11.08.23.16.34.24.11.08.22.17.32.25.11.09.21.18.31.27.1.09.2.19.3.29.1.1.19.2.29.3.09.1.18.21.27.32.09.11.17.21.25.32.08.11.16.22.24.34.07.11.15.23.22.35.07.12.14.24.2.36.13.24.25.49.35.74.11.25.2.51.28.78.04.13.08.26.11.4.04.13.07.27.09.4.03.13.05.27.07.41.02.14.04.27.05.41.02.14.03.28.03.42,0,.14,0,.28,0,.41s0,.28,0,.42c0,.14-.02.28-.03.41-.01.14-.03.28-.05.41-.02.13-.04.27-.07.41-.03.13-.06.27-.09.4-.03.13-.07.27-.11.4-.08.26-.17.52-.28.78-.1.25-.22.5-.35.74-.07.12-.13.24-.2.36-.07.12-.15.23-.22.35-.07.11-.16.23-.24.34s-.17.22-.25.33c-.09.11-.18.21-.27.32-.09.1-.19.2-.29.3-.1.1-.2.19-.3.29-.1.09-.21.19-.31.27-.1.09-.21.17-.32.25-.11.08-.22.16-.34.24-.11.08-.23.15-.35.22-.12.07-.24.14-.36.2-.24.13-.49.25-.75.35-.25.1-.51.2-.77.28-.13.04-.27.08-.4.11-.13.04-.27.06-.4.09-.13.03-.27.05-.41.07-.14.02-.27.04-.41.05-.14.01-.28.02-.41.03-.14,0-.28,0-.42,0Zm22.84-19.35l58.16-58.16c3.29-3.29,3.29-8.62,0-11.9s-8.62-3.29-11.9,0l-58.16,58.16c-3.29,3.29-3.29,8.62,0,11.9,1.64,1.64,3.8,2.47,5.95,2.47s4.31-.82,5.95-2.47Z"/>
      <path class="cls-3" d="m64.5,56.54c-2.15,0-4.31-.82-5.95-2.47-3.29-3.29-3.29-8.62,0-11.9L92.16,8.55c3.29-3.29,8.62-3.29,11.9,0,3.29,3.29,3.29,8.62,0,11.9l-33.62,33.62c-1.64,1.64-3.8,2.47-5.95,2.47Z"/>
    </g>
    <path class="cls-4" d="m2.9,23.87c0-6.5,5.27-11.78,11.78-11.78s11.78,5.27,11.78,11.78c0,6.5-5.27,11.78-11.78,11.78S2.9,30.38,2.9,23.87Z"/>
    <g>
      <polygon class="cls-2" points="127.81 99.58 135.18 97.17 133.73 92.86 127.81 99.58"/>
      <polygon class="cls-2" points="124.37 103.49 117.12 111.71 137.81 104.96 136.03 99.68 124.37 103.49"/>
      <polygon class="cls-2" points="113.68 115.62 106.43 123.85 140.43 112.75 138.65 107.47 113.68 115.62"/>
      <polygon class="cls-2" points="102.98 127.76 99.34 131.89 104.87 133.01 143.06 120.54 141.28 115.26 102.98 127.76"/>
      <polygon class="cls-2" points="110.14 134.07 121.25 136.31 145.68 128.33 143.9 123.05 110.14 134.07"/>
      <polygon class="cls-2" points="126.53 137.37 137.64 139.6 148.31 136.13 146.53 130.84 126.53 137.37"/>
      <polygon class="cls-2" points="150.34 142.16 149.15 138.63 142.92 140.67 150.34 142.16"/>
    </g>
  </g>
</svg>