<?xml version="1.0" encoding="UTF-8"?>
<svg id="_レイヤー_2" data-name="レイヤー 2" xmlns="http://www.w3.org/2000/svg" xmlns:xlink="http://www.w3.org/1999/xlink" viewBox="0 0 77.72 97.63">
  <defs>
    <style>
      .cls-1 {
        fill: url(#_名称未設定グラデーション_138);
      }
    </style>
    <linearGradient id="_名称未設定グラデーション_138" data-name="名称未設定グラデーション 138" x1="15.95" y1="61.77" x2="66.52" y2="11.21" gradientUnits="userSpaceOnUse">
      <stop offset="0" stop-color="#abdad2"/>
      <stop offset="1" stop-color="#a5d3f2"/>
    </linearGradient>
  </defs>
  <g id="_レイヤー_4" data-name="レイヤー 4">
    <path class="cls-1" d="m74.64,20.09c2.26.65,3.56,3.01,2.91,5.26-.65,2.26-3,3.56-5.26,2.91-2.26-.65-3.56-3.01-2.91-5.26s3-3.56,5.26-2.91Zm-9.24,16.75c-.65,2.26.65,4.61,2.91,5.26,2.26.65,4.61-.65,5.26-2.91s-.66-4.61-2.91-5.26c-2.26-.65-4.61.65-5.26,2.91Zm-9.86-17.82c-.65,2.26.65,4.61,2.91,5.26,2.26.65,4.61-.65,5.26-2.91.65-2.26-.66-4.61-2.91-5.26-2.26-.65-4.61.65-5.26,2.91Zm-13.84-3.98c-.65,2.26.66,4.61,2.91,5.26,2.26.65,4.61-.65,5.26-2.91.65-2.26-.65-4.61-2.91-5.26-2.26-.65-4.61.65-5.26,2.91Zm9.86,17.82c-.65,2.26.65,4.61,2.91,5.26,2.26.65,4.61-.65,5.26-2.91.65-2.26-.66-4.61-2.91-5.26-2.26-.65-4.61.65-5.26,2.91Zm-13.84-3.98c-.65,2.26.65,4.61,2.91,5.26,2.26.65,4.61-.65,5.26-2.91.65-2.26-.66-4.61-2.91-5.26-2.26-.65-4.61.65-5.26,2.91Zm23.71,21.81c-.65,2.26.66,4.61,2.91,5.26,2.26.65,4.61-.65,5.26-2.91.65-2.26-.65-4.61-2.91-5.26-2.26-.65-4.61.65-5.26,2.91Zm-13.84-3.98c-.65,2.26.65,4.61,2.91,5.26,2.26.65,4.61-.65,5.26-2.91.65-2.26-.65-4.61-2.91-5.26-2.26-.65-4.61.65-5.26,2.91Zm-13.84-3.98c-.65,2.26.66,4.61,2.91,5.26,2.26.65,4.61-.65,5.26-2.91s-.65-4.61-2.91-5.26c-2.26-.65-4.61.65-5.26,2.91Zm-5.88-31.66c-.65,2.26.66,4.61,2.91,5.26,2.26.65,4.61-.65,5.26-2.91.65-2.26-.65-4.61-2.91-5.26-2.26-.65-4.61.65-5.26,2.91Zm-3.98,13.84c-.65,2.26.66,4.61,2.91,5.26,2.26.65,4.61-.65,5.26-2.91.65-2.26-.65-4.61-2.91-5.26-2.26-.65-4.61.65-5.26,2.91ZM14.01,7.06c-.65,2.26.65,4.61,2.91,5.26,2.26.65,4.61-.65,5.26-2.91.65-2.26-.65-4.61-2.91-5.26-2.26-.65-4.61.65-5.26,2.91ZM.17,3.08c-.65,2.26.65,4.61,2.91,5.26,2.26.65,4.61-.65,5.26-2.91.65-2.26-.65-4.61-2.91-5.26C3.17-.48.82.82.17,3.08Zm9.86,17.82c-.65,2.26.65,4.61,2.91,5.26,2.26.65,4.61-.65,5.26-2.91.65-2.26-.65-4.61-2.91-5.26-2.26-.65-4.61.65-5.26,2.91Zm9.86,17.82c-.65,2.26.66,4.61,2.91,5.26,2.26.65,4.61-.65,5.26-2.91.65-2.26-.66-4.61-2.91-5.26-2.26-.65-4.61.65-5.26,2.91Zm37.55,25.79c-.65,2.26.65,4.61,2.91,5.26,2.26.65,4.61-.65,5.26-2.91.65-2.26-.65-4.61-2.91-5.26s-4.61.65-5.26,2.91Zm-3.98,13.84c-.65,2.26.65,4.61,2.91,5.26,2.26.65,4.61-.65,5.26-2.91.65-2.26-.65-4.61-2.91-5.26-2.26-.65-4.61.65-5.26,2.91Zm-9.86-17.82c-.65,2.26.65,4.61,2.91,5.26,2.26.65,4.61-.65,5.26-2.91.65-2.26-.65-4.61-2.91-5.26-2.26-.65-4.61.65-5.26,2.91Zm-13.84-3.98c-.65,2.26.65,4.61,2.91,5.26,2.26.65,4.61-.65,5.26-2.91.65-2.26-.66-4.61-2.91-5.26-2.26-.65-4.61.65-5.26,2.91Zm9.86,17.82c-.65,2.26.65,4.61,2.91,5.26,2.26.65,4.61-.65,5.26-2.91.65-2.26-.65-4.61-2.91-5.26-2.26-.65-4.61.65-5.26,2.91Zm9.86,17.82c-.65,2.26.65,4.61,2.91,5.26,2.26.65,4.61-.65,5.26-2.91.65-2.26-.65-4.61-2.91-5.26-2.26-.65-4.61.65-5.26,2.91Z"/>
  </g>
</svg>