<?xml version="1.0" encoding="UTF-8"?>
<svg id="_レイヤー_2" data-name="レイヤー 2" xmlns="http://www.w3.org/2000/svg" viewBox="0 0 154.32 111.98">
  <defs>
    <style>
      .cls-1 {
        fill: #7ecef4;
      }

      .cls-2 {
        fill: #bae3f9;
      }

      .cls-3 {
        fill: #a1cbed;
      }
    </style>
  </defs>
  <g id="_レイヤー_4" data-name="レイヤー 4">
    <rect class="cls-2" x="14.16" y="14.16" width="68.38" height="68.38" transform="translate(-20.03 48.35) rotate(-45)"/>
    <g>
      <path class="cls-1" d="m47.92,28.66c-.57.57-1.5.57-2.07,0s-.57-1.5,0-2.07c.57-.57,1.5-.57,2.07,0s.57,1.5,0,2.07Z"/>
      <path class="cls-1" d="m54.83,35.57c-.57.57-1.5.57-2.07,0-.57-.57-.57-1.5,0-2.07.57-.57,1.5-.57,2.07,0s.57,1.5,0,2.07Z"/>
      <path class="cls-1" d="m61.73,42.48c-.57.57-1.5.57-2.07,0s-.57-1.5,0-2.07,1.5-.57,2.07,0c.57.57.57,1.5,0,2.07Z"/>
      <path class="cls-1" d="m68.64,49.39c-.57.57-1.5.57-2.07,0-.57-.57-.57-1.5,0-2.07s1.5-.57,2.07,0,.57,1.5,0,2.07Z"/>
      <path class="cls-1" d="m75.55,56.29c-.57.57-1.5.57-2.07,0s-.57-1.5,0-2.07c.57-.57,1.5-.57,2.07,0s.57,1.5,0,2.07Z"/>
      <path class="cls-1" d="m82.46,63.2c-.57.57-1.5.57-2.07,0-.57-.57-.57-1.5,0-2.07s1.5-.57,2.07,0,.57,1.5,0,2.07Z"/>
      <path class="cls-1" d="m89.36,70.11c-.57.57-1.5.57-2.07,0s-.57-1.5,0-2.07c.57-.57,1.5-.57,2.07,0s.57,1.5,0,2.07Z"/>
      <path class="cls-1" d="m47.92,35.57c-.57.57-1.5.57-2.07,0-.57-.57-.57-1.5,0-2.07s1.5-.57,2.07,0,.57,1.5,0,2.07Z"/>
      <path class="cls-1" d="m54.83,42.48c-.57.57-1.5.57-2.07,0-.57-.57-.57-1.5,0-2.07.57-.57,1.5-.57,2.07,0,.57.57.57,1.5,0,2.07Z"/>
      <path class="cls-1" d="m61.73,49.39c-.57.57-1.5.57-2.07,0-.57-.57-.57-1.5,0-2.07s1.5-.57,2.07,0,.57,1.5,0,2.07Z"/>
      <path class="cls-1" d="m68.64,56.29c-.57.57-1.5.57-2.07,0-.57-.57-.57-1.5,0-2.07.57-.57,1.5-.57,2.07,0s.57,1.5,0,2.07Z"/>
      <path class="cls-1" d="m75.55,63.2c-.57.57-1.5.57-2.07,0-.57-.57-.57-1.5,0-2.07s1.5-.57,2.07,0,.57,1.5,0,2.07Z"/>
      <path class="cls-1" d="m82.46,70.11c-.57.57-1.5.57-2.07,0-.57-.57-.57-1.5,0-2.07.57-.57,1.5-.57,2.07,0s.57,1.5,0,2.07Z"/>
      <path class="cls-1" d="m41.01,35.57c-.57.57-1.5.57-2.07,0-.57-.57-.57-1.5,0-2.07.57-.57,1.5-.57,2.07,0s.57,1.5,0,2.07Z"/>
      <path class="cls-1" d="m47.92,42.48c-.57.57-1.5.57-2.07,0s-.57-1.5,0-2.07c.57-.57,1.5-.57,2.07,0s.57,1.5,0,2.07Z"/>
      <path class="cls-1" d="m54.83,49.39c-.57.57-1.5.57-2.07,0-.57-.57-.57-1.5,0-2.07.57-.57,1.5-.57,2.07,0,.57.57.57,1.5,0,2.07Z"/>
      <path class="cls-1" d="m61.73,56.29c-.57.57-1.5.57-2.07,0s-.57-1.5,0-2.07c.57-.57,1.5-.57,2.07,0s.57,1.5,0,2.07Z"/>
      <path class="cls-1" d="m68.64,63.2c-.57.57-1.5.57-2.07,0-.57-.57-.57-1.5,0-2.07s1.5-.57,2.07,0,.57,1.5,0,2.07Z"/>
      <path class="cls-1" d="m75.55,70.11c-.57.57-1.5.57-2.07,0s-.57-1.5,0-2.07c.57-.57,1.5-.57,2.07,0s.57,1.5,0,2.07Z"/>
      <path class="cls-1" d="m82.46,77.01c-.57.57-1.5.57-2.07,0-.57-.57-.57-1.5,0-2.07.57-.57,1.5-.57,2.07,0s.57,1.5,0,2.07Z"/>
      <path class="cls-1" d="m41.01,42.48c-.57.57-1.5.57-2.07,0-.57-.57-.57-1.5,0-2.07.57-.57,1.5-.57,2.07,0s.57,1.5,0,2.07Z"/>
      <path class="cls-1" d="m47.92,49.39c-.57.57-1.5.57-2.07,0-.57-.57-.57-1.5,0-2.07s1.5-.57,2.07,0,.57,1.5,0,2.07Z"/>
      <path class="cls-1" d="m54.83,56.29c-.57.57-1.5.57-2.07,0-.57-.57-.57-1.5,0-2.07s1.5-.57,2.07,0,.57,1.5,0,2.07Z"/>
      <path class="cls-1" d="m61.73,63.2c-.57.57-1.5.57-2.07,0-.57-.57-.57-1.5,0-2.07s1.5-.57,2.07,0,.57,1.5,0,2.07Z"/>
      <path class="cls-1" d="m68.64,70.11c-.57.57-1.5.57-2.07,0-.57-.57-.57-1.5,0-2.07.57-.57,1.5-.57,2.07,0s.57,1.5,0,2.07Z"/>
      <path class="cls-1" d="m75.55,77.01c-.57.57-1.5.57-2.07,0-.57-.57-.57-1.5,0-2.07s1.5-.57,2.07,0,.57,1.5,0,2.07Z"/>
      <path class="cls-1" d="m34.11,42.48c-.57.57-1.5.57-2.07,0s-.57-1.5,0-2.07c.57-.57,1.5-.57,2.07,0,.57.57.57,1.5,0,2.07Z"/>
      <path class="cls-1" d="m41.01,49.39c-.57.57-1.5.57-2.07,0s-.57-1.5,0-2.07c.57-.57,1.5-.57,2.07,0s.57,1.5,0,2.07Z"/>
      <path class="cls-1" d="m47.92,56.29c-.57.57-1.5.57-2.07,0-.57-.57-.57-1.5,0-2.07s1.5-.57,2.07,0c.57.57.57,1.5,0,2.07Z"/>
      <path class="cls-1" d="m54.83,63.2c-.57.57-1.5.57-2.07,0s-.57-1.5,0-2.07,1.5-.57,2.07,0,.57,1.5,0,2.07Z"/>
      <path class="cls-1" d="m61.73,70.11c-.57.57-1.5.57-2.07,0s-.57-1.5,0-2.07c.57-.57,1.5-.57,2.07,0,.57.57.57,1.5,0,2.07Z"/>
      <path class="cls-1" d="m68.64,77.01c-.57.57-1.5.57-2.07,0s-.57-1.5,0-2.07,1.5-.57,2.07,0,.57,1.5,0,2.07Z"/>
      <path class="cls-1" d="m75.55,83.92c-.57.57-1.5.57-2.07,0s-.57-1.5,0-2.07c.57-.57,1.5-.57,2.07,0,.57.57.57,1.5,0,2.07Z"/>
      <path class="cls-1" d="m34.11,49.39c-.57.57-1.5.57-2.07,0-.57-.57-.57-1.5,0-2.07s1.5-.57,2.07,0,.57,1.5,0,2.07Z"/>
      <path class="cls-1" d="m41.01,56.29c-.57.57-1.5.57-2.07,0-.57-.57-.57-1.5,0-2.07.57-.57,1.5-.57,2.07,0s.57,1.5,0,2.07Z"/>
      <path class="cls-1" d="m47.92,63.2c-.57.57-1.5.57-2.07,0s-.57-1.5,0-2.07,1.5-.57,2.07,0,.57,1.5,0,2.07Z"/>
      <path class="cls-1" d="m54.83,70.11c-.57.57-1.5.57-2.07,0s-.57-1.5,0-2.07c.57-.57,1.5-.57,2.07,0s.57,1.5,0,2.07Z"/>
      <path class="cls-1" d="m61.73,77.01c-.57.57-1.5.57-2.07,0s-.57-1.5,0-2.07,1.5-.57,2.07,0,.57,1.5,0,2.07Z"/>
      <path class="cls-1" d="m68.64,83.92c-.57.57-1.5.57-2.07,0s-.57-1.5,0-2.07c.57-.57,1.5-.57,2.07,0s.57,1.5,0,2.07Z"/>
      <path class="cls-1" d="m27.2,49.39c-.57.57-1.5.57-2.07,0s-.57-1.5,0-2.07,1.5-.57,2.07,0,.57,1.5,0,2.07Z"/>
      <path class="cls-1" d="m34.11,56.29c-.57.57-1.5.57-2.07,0-.57-.57-.57-1.5,0-2.07s1.5-.57,2.07,0c.57.57.57,1.5,0,2.07Z"/>
      <path class="cls-1" d="m41.01,63.2c-.57.57-1.5.57-2.07,0s-.57-1.5,0-2.07c.57-.57,1.5-.57,2.07,0s.57,1.5,0,2.07Z"/>
      <path class="cls-1" d="m47.92,70.11c-.57.57-1.5.57-2.07,0-.57-.57-.57-1.5,0-2.07.57-.57,1.5-.57,2.07,0s.57,1.5,0,2.07Z"/>
      <path class="cls-1" d="m54.83,77.01c-.57.57-1.5.57-2.07,0s-.57-1.5,0-2.07,1.5-.57,2.07,0,.57,1.5,0,2.07Z"/>
      <path class="cls-1" d="m61.74,83.92c-.57.57-1.5.57-2.07,0s-.57-1.5,0-2.07,1.5-.57,2.07,0,.57,1.5,0,2.07Z"/>
      <path class="cls-1" d="m68.64,90.83c-.57.57-1.5.57-2.07,0s-.57-1.5,0-2.07,1.5-.57,2.07,0,.57,1.5,0,2.07Z"/>
      <path class="cls-1" d="m27.2,56.29c-.57.57-1.5.57-2.07,0s-.57-1.5,0-2.07c.57-.57,1.5-.57,2.07,0s.57,1.5,0,2.07Z"/>
      <path class="cls-1" d="m34.11,63.2c-.57.57-1.5.57-2.07,0s-.57-1.5,0-2.07,1.5-.57,2.07,0,.57,1.5,0,2.07Z"/>
      <path class="cls-1" d="m41.01,70.11c-.57.57-1.5.57-2.07,0s-.57-1.5,0-2.07,1.5-.57,2.07,0,.57,1.5,0,2.07Z"/>
      <path class="cls-1" d="m47.92,77.01c-.57.57-1.5.57-2.07,0s-.57-1.5,0-2.07,1.5-.57,2.07,0,.57,1.5,0,2.07Z"/>
      <path class="cls-1" d="m54.83,83.92c-.57.57-1.5.57-2.07,0s-.57-1.5,0-2.07c.57-.57,1.5-.57,2.07,0s.57,1.5,0,2.07Z"/>
      <path class="cls-1" d="m61.73,90.83c-.57.57-1.5.57-2.07,0s-.57-1.5,0-2.07,1.5-.57,2.07,0,.57,1.5,0,2.07Z"/>
      <path class="cls-1" d="m20.29,56.29c-.57.57-1.5.57-2.07,0s-.57-1.5,0-2.07,1.5-.57,2.07,0,.57,1.5,0,2.07Z"/>
      <path class="cls-1" d="m27.2,63.2c-.57.57-1.5.57-2.07,0-.57-.57-.57-1.5,0-2.07s1.5-.57,2.07,0,.57,1.5,0,2.07Z"/>
      <path class="cls-1" d="m34.11,70.11c-.57.57-1.5.57-2.07,0s-.57-1.5,0-2.07,1.5-.57,2.07,0,.57,1.5,0,2.07Z"/>
      <path class="cls-1" d="m41.01,77.01c-.57.57-1.5.57-2.07,0-.57-.57-.57-1.5,0-2.07s1.5-.57,2.07,0,.57,1.5,0,2.07Z"/>
      <path class="cls-1" d="m47.92,83.92c-.57.57-1.5.57-2.07,0s-.57-1.5,0-2.07,1.5-.57,2.07,0,.57,1.5,0,2.07Z"/>
      <path class="cls-1" d="m54.83,90.83c-.57.57-1.5.57-2.07,0-.57-.57-.57-1.5,0-2.07s1.5-.57,2.07,0,.57,1.5,0,2.07Z"/>
      <path class="cls-1" d="m61.74,97.74c-.57.57-1.5.57-2.07,0s-.57-1.5,0-2.07,1.5-.57,2.07,0,.57,1.5,0,2.07Z"/>
      <path class="cls-1" d="m20.29,63.2c-.57.57-1.5.57-2.07,0s-.57-1.5,0-2.07,1.5-.57,2.07,0,.57,1.5,0,2.07Z"/>
      <path class="cls-1" d="m27.2,70.11c-.57.57-1.5.57-2.07,0s-.57-1.5,0-2.07,1.5-.57,2.07,0c.57.57.57,1.5,0,2.07Z"/>
      <path class="cls-1" d="m34.11,77.01c-.57.57-1.5.57-2.07,0s-.57-1.5,0-2.07,1.5-.57,2.07,0,.57,1.5,0,2.07Z"/>
      <path class="cls-1" d="m41.01,83.92c-.57.57-1.5.57-2.07,0s-.57-1.5,0-2.07c.57-.57,1.5-.57,2.07,0,.57.57.57,1.5,0,2.07Z"/>
      <path class="cls-1" d="m47.92,90.83c-.57.57-1.5.57-2.07,0s-.57-1.5,0-2.07,1.5-.57,2.07,0c.57.57.57,1.5,0,2.07Z"/>
      <path class="cls-1" d="m54.83,97.74c-.57.57-1.5.57-2.07,0s-.57-1.5,0-2.07c.57-.57,1.5-.57,2.07,0,.57.57.57,1.5,0,2.07Z"/>
      <path class="cls-1" d="m13.38,63.2c-.57.57-1.5.57-2.07,0s-.57-1.5,0-2.07,1.5-.57,2.07,0,.57,1.5,0,2.07Z"/>
      <path class="cls-1" d="m20.29,70.11c-.57.57-1.5.57-2.07,0s-.57-1.5,0-2.07,1.5-.57,2.07,0,.57,1.5,0,2.07Z"/>
      <path class="cls-1" d="m27.2,77.01c-.57.57-1.5.57-2.07,0-.57-.57-.57-1.5,0-2.07s1.5-.57,2.07,0c.57.57.57,1.5,0,2.07Z"/>
      <path class="cls-1" d="m34.11,83.92c-.57.57-1.5.57-2.07,0s-.57-1.5,0-2.07c.57-.57,1.5-.57,2.07,0s.57,1.5,0,2.07Z"/>
      <path class="cls-1" d="m41.01,90.83c-.57.57-1.5.57-2.07,0-.57-.57-.57-1.5,0-2.07s1.5-.57,2.07,0,.57,1.5,0,2.07Z"/>
      <path class="cls-1" d="m47.92,97.74c-.57.57-1.5.57-2.07,0s-.57-1.5,0-2.07,1.5-.57,2.07,0,.57,1.5,0,2.07Z"/>
      <path class="cls-1" d="m54.83,104.64c-.57.57-1.5.57-2.07,0s-.57-1.5,0-2.07,1.5-.57,2.07,0,.57,1.5,0,2.07Z"/>
      <path class="cls-1" d="m13.38,70.11c-.57.57-1.5.57-2.07,0-.57-.57-.57-1.5,0-2.07.57-.57,1.5-.57,2.07,0s.57,1.5,0,2.07Z"/>
      <path class="cls-1" d="m20.29,77.01c-.57.57-1.5.57-2.07,0-.57-.57-.57-1.5,0-2.07s1.5-.57,2.07,0,.57,1.5,0,2.07Z"/>
      <path class="cls-1" d="m27.2,83.92c-.57.57-1.5.57-2.07,0-.57-.57-.57-1.5,0-2.07s1.5-.57,2.07,0,.57,1.5,0,2.07Z"/>
      <path class="cls-1" d="m34.11,90.83c-.57.57-1.5.57-2.07,0-.57-.57-.57-1.5,0-2.07s1.5-.57,2.07,0,.57,1.5,0,2.07Z"/>
      <path class="cls-1" d="m41.01,97.74c-.57.57-1.5.57-2.07,0-.57-.57-.57-1.5,0-2.07.57-.57,1.5-.57,2.07,0s.57,1.5,0,2.07Z"/>
      <path class="cls-1" d="m47.92,104.64c-.57.57-1.5.57-2.07,0-.57-.57-.57-1.5,0-2.07s1.5-.57,2.07,0,.57,1.5,0,2.07Z"/>
      <path class="cls-1" d="m6.48,70.11c-.57.57-1.5.57-2.07,0s-.57-1.5,0-2.07c.57-.57,1.5-.57,2.07,0s.57,1.5,0,2.07Z"/>
      <path class="cls-1" d="m13.38,77.01c-.57.57-1.5.57-2.07,0s-.57-1.5,0-2.07c.57-.57,1.5-.57,2.07,0,.57.57.57,1.5,0,2.07Z"/>
      <path class="cls-1" d="m20.29,83.92c-.57.57-1.5.57-2.07,0-.57-.57-.57-1.5,0-2.07.57-.57,1.5-.57,2.07,0s.57,1.5,0,2.07Z"/>
      <path class="cls-1" d="m27.2,90.83c-.57.57-1.5.57-2.07,0s-.57-1.5,0-2.07,1.5-.57,2.07,0c.57.57.57,1.5,0,2.07Z"/>
      <path class="cls-1" d="m34.11,97.74c-.57.57-1.5.57-2.07,0s-.57-1.5,0-2.07c.57-.57,1.5-.57,2.07,0s.57,1.5,0,2.07Z"/>
      <path class="cls-1" d="m41.01,104.64c-.57.57-1.5.57-2.07,0s-.57-1.5,0-2.07c.57-.57,1.5-.57,2.07,0s.57,1.5,0,2.07Z"/>
      <path class="cls-1" d="m47.92,111.55c-.57.57-1.5.57-2.07,0s-.57-1.5,0-2.07c.57-.57,1.5-.57,2.07,0s.57,1.5,0,2.07Z"/>
    </g>
    <rect class="cls-3" x="125.26" y="39.25" width="19.11" height="19.11" transform="translate(74 -81.03) rotate(45)"/>
    <polygon class="cls-2" points="148.3 66.4 149.15 71.57 154.32 72.42 149.15 73.27 148.3 78.43 147.45 73.27 142.29 72.42 147.45 71.57 148.3 66.4"/>
  </g>
</svg>