<?xml version="1.0" encoding="UTF-8"?>
<svg id="_レイヤー_2" data-name="レイヤー 2" xmlns="http://www.w3.org/2000/svg" xmlns:xlink="http://www.w3.org/1999/xlink" viewBox="0 0 211.04 65.83">
  <defs>
    <style>
      .cls-1 {
        fill: url(#_名称未設定グラデーション_138);
      }

      .cls-2 {
        fill: url(#_名称未設定グラデーション_160);
      }

      .cls-3 {
        fill: #abdad2;
      }
    </style>
    <linearGradient id="_名称未設定グラデーション_138" data-name="名称未設定グラデーション 138" x1="-968.28" y1="678.51" x2="-947.62" y2="638.35" gradientTransform="translate(1201.38 -284.91) rotate(17.78)" gradientUnits="userSpaceOnUse">
      <stop offset="0" stop-color="#abdad2"/>
      <stop offset="1" stop-color="#a5d3f2"/>
    </linearGradient>
    <linearGradient id="_名称未設定グラデーション_160" data-name="名称未設定グラデーション 160" x1="167.28" y1="43.76" x2="201.2" y2="9.84" gradientUnits="userSpaceOnUse">
      <stop offset="0" stop-color="#abdad2"/>
      <stop offset="1" stop-color="#bdddb1"/>
    </linearGradient>
  </defs>
  <g id="_レイヤー_4" data-name="レイヤー 4">
    <path class="cls-1" d="m72.34,2.19h.25s3.07,3.13,3.07,3.13l-3.35-.03.03-3.1Zm-.08,9.1l9.35.08-3.07-3.13-6.25-.05-.03,3.1Zm-.05,6l15.35.13-3.07-3.13-12.25-.1-.03,3.1Zm-.05,6l21.35.18-3.07-3.13-18.25-.16-.03,3.1Zm-.05,6l27.35.23-3.07-3.13-24.24-.21-.03,3.1Zm-.05,6l33.34.29-3.07-3.13-30.24-.26-.03,3.1Zm-.05,6l39.34.34-3.07-3.13-36.24-.31-.03,3.1Zm-.05,6l45.34.39-3.07-3.13-42.24-.36-.03,3.1Zm-.05,6l51.34.44-3.07-3.13-48.24-.41-.03,3.1Zm-.05,6l57.34.49-3.07-3.13-54.24-.46-.03,3.1Zm63.29,6.54l-3.07-3.13-60.24-.52-.03,3.1,63.34.54Z"/>
    <path class="cls-2" d="m179.97,4.32c-.99.99-2.59.99-3.58,0-.99-.99-.99-2.59,0-3.58s2.59-.99,3.58,0c.99.99.99,2.59,0,3.58Zm12.13-3.58c-.99-.99-2.59-.99-3.58,0-.99.99-.99,2.59,0,3.58.99.99,2.59.99,3.58,0,.99-.99.99-2.59,0-3.58Zm6.07,6.07c-.99-.99-2.59-.99-3.58,0-.99.99-.99,2.59,0,3.58.99.99,2.59.99,3.58,0s.99-2.59,0-3.58Zm-12.13,0c-.99-.99-2.59-.99-3.58,0-.99.99-.99,2.59,0,3.58.99.99,2.59.99,3.58,0,.99-.99.99-2.59,0-3.58Zm6.07,6.07c-.99-.99-2.59-.99-3.58,0s-.99,2.59,0,3.58c.99.99,2.59.99,3.58,0,.99-.99.99-2.59,0-3.58Zm-18.2-6.07c-.99-.99-2.59-.99-3.58,0s-.99,2.59,0,3.58c.99.99,2.59.99,3.58,0,.99-.99.99-2.59,0-3.58Zm6.07,6.07c-.99-.99-2.59-.99-3.58,0-.99.99-.99,2.59,0,3.58.99.99,2.59.99,3.58,0,.99-.99.99-2.59,0-3.58Zm6.07,6.07c-.99-.99-2.59-.99-3.58,0-.99.99-.99,2.59,0,3.58.99.99,2.59.99,3.58,0,.99-.99.99-2.59,0-3.58Zm18.2-6.07c-.99-.99-2.59-.99-3.58,0-.99.99-.99,2.59,0,3.58.99.99,2.59.99,3.58,0,.99-.99.99-2.59,0-3.58Zm-6.07,6.07c-.99-.99-2.59-.99-3.58,0-.99.99-.99,2.59,0,3.58s2.59.99,3.58,0c.99-.99.99-2.59,0-3.58Zm12.13,0c-.99-.99-2.59-.99-3.58,0-.99.99-.99,2.59,0,3.58s2.59.99,3.58,0,.99-2.59,0-3.58Zm-6.07,6.07c-.99-.99-2.59-.99-3.58,0-.99.99-.99,2.59,0,3.58.99.99,2.59.99,3.58,0,.99-.99.99-2.59,0-3.58Zm6.07,6.07c-.99-.99-2.59-.99-3.58,0-.99.99-.99,2.59,0,3.58.99.99,2.59.99,3.58,0,.99-.99.99-2.59,0-3.58Zm-18.2-6.07c-.99-.99-2.59-.99-3.58,0-.99.99-.99,2.59,0,3.58s2.59.99,3.58,0,.99-2.59,0-3.58Zm6.07,6.07c-.99-.99-2.59-.99-3.58,0-.99.99-.99,2.59,0,3.58.99.99,2.59.99,3.58,0,.99-.99.99-2.59,0-3.58Zm6.07,6.07c-.99-.99-2.59-.99-3.58,0-.99.99-.99,2.59,0,3.58.99.99,2.59.99,3.58,0,.99-.99.99-2.59,0-3.58Zm-36.4-24.27c-.99-.99-2.59-.99-3.58,0-.99.99-.99,2.59,0,3.58.99.99,2.59.99,3.58,0,.99-.99.99-2.59,0-3.58Zm-6.07,6.07c-.99-.99-2.59-.99-3.58,0s-.99,2.59,0,3.58,2.59.99,3.58,0,.99-2.59,0-3.58Zm12.13,0c-.99-.99-2.59-.99-3.58,0-.99.99-.99,2.59,0,3.58.99.99,2.59.99,3.58,0,.99-.99.99-2.59,0-3.58Zm6.07,6.07c-.99-.99-2.59-.99-3.58,0s-.99,2.59,0,3.58,2.59.99,3.58,0c.99-.99.99-2.59,0-3.58Zm-12.13,0c-.99-.99-2.59-.99-3.58,0-.99.99-.99,2.59,0,3.58s2.59.99,3.58,0c.99-.99.99-2.59,0-3.58Zm6.07,6.07c-.99-.99-2.59-.99-3.58,0s-.99,2.59,0,3.58c.99.99,2.59.99,3.58,0,.99-.99.99-2.59,0-3.58Zm-12.13,0c-.99-.99-2.59-.99-3.58,0-.99.99-.99,2.59,0,3.58.99.99,2.59.99,3.58,0,.99-.99.99-2.59,0-3.58Zm6.07,6.07c-.99-.99-2.59-.99-3.58,0s-.99,2.59,0,3.58,2.59.99,3.58,0c.99-.99.99-2.59,0-3.58Zm18.2-6.07c-.99-.99-2.59-.99-3.58,0-.99.99-.99,2.59,0,3.58.99.99,2.59.99,3.58,0,.99-.99.99-2.59,0-3.58Zm-6.07,6.07c-.99-.99-2.59-.99-3.58,0-.99.99-.99,2.59,0,3.58.99.99,2.59.99,3.58,0,.99-.99.99-2.59,0-3.58Zm12.13,0c-.99-.99-2.59-.99-3.58,0-.99.99-.99,2.59,0,3.58.99.99,2.59.99,3.58,0,.99-.99.99-2.59,0-3.58Zm6.07,6.07c-.99-.99-2.59-.99-3.58,0-.99.99-.99,2.59,0,3.58.99.99,2.59.99,3.58,0,.99-.99.99-2.59,0-3.58Zm-12.13,0c-.99-.99-2.59-.99-3.58,0-.99.99-.99,2.59,0,3.58.99.99,2.59.99,3.58,0,.99-.99.99-2.59,0-3.58Zm6.07,6.07c-.99-.99-2.59-.99-3.58,0-.99.99-.99,2.59,0,3.58.99.99,2.59.99,3.58,0,.99-.99.99-2.59,0-3.58Zm-18.2-6.07c-.99-.99-2.59-.99-3.58,0-.99.99-.99,2.59,0,3.58.99.99,2.59.99,3.58,0,.99-.99.99-2.59,0-3.58Zm6.07,6.07c-.99-.99-2.59-.99-3.58,0-.99.99-.99,2.59,0,3.58s2.59.99,3.58,0,.99-2.59,0-3.58Z"/>
    <rect class="cls-3" x="3.86" y="33.81" width="20.76" height="20.76" transform="translate(49.18 74.75) rotate(149.05)"/>
  </g>
</svg>