<?xml version="1.0" encoding="UTF-8"?>
<svg id="_レイヤー_2" data-name="レイヤー 2" xmlns="http://www.w3.org/2000/svg" xmlns:xlink="http://www.w3.org/1999/xlink" viewBox="0 0 121.84 210.3">
  <defs>
    <style>
      .cls-1 {
        fill: url(#_名称未設定グラデーション_138);
      }

      .cls-2 {
        fill: #bae3f9;
      }

      .cls-3 {
        fill: #a1cbed;
      }

      .cls-4 {
        fill: none;
        stroke: #abdad2;
        stroke-linecap: round;
        stroke-linejoin: round;
        stroke-width: 7.82px;
      }
    </style>
    <linearGradient id="_名称未設定グラデーション_138" data-name="名称未設定グラデーション 138" x1="44" y1="129.12" x2="108.13" y2="64.99" gradientUnits="userSpaceOnUse">
      <stop offset="0" stop-color="#abdad2"/>
      <stop offset="1" stop-color="#a5d3f2"/>
    </linearGradient>
  </defs>
  <g id="_レイヤー_4" data-name="レイヤー 4">
    <rect class="cls-3" x="3.96" y="3.96" width="19.11" height="19.11" transform="translate(13.51 -5.6) rotate(45)"/>
    <polygon class="cls-2" points="27 31.11 27.85 36.28 33.01 37.13 27.85 37.98 27 43.14 26.15 37.98 20.99 37.13 26.15 36.28 27 31.11"/>
    <path class="cls-1" d="m88.71,141.7l8.29-3.26-2.52,5.78-5.77-2.52Zm-5.17-2.26l15.72-6.17,2.71-6.22-24.66,9.68,6.22,2.71Zm-11.4-4.97l32.08-12.6,2.71-6.23-41.02,16.11,6.22,2.71Zm-11.4-4.97l48.45-19.03,2.71-6.22-57.39,22.54,6.22,2.71Zm-11.4-4.97l64.81-25.45,2.71-6.22-73.75,28.96,6.22,2.71Zm-11.4-4.97l81.18-31.88,2.71-6.23L31.73,116.85l6.22,2.71Zm-8.04-6.29l90.84-35.67-6.22-2.71-81.9,32.16-2.71,6.22Zm4.97-11.4l74.47-29.25-6.22-2.71-65.54,25.74-2.71,6.22Zm4.97-11.4l58.11-22.82-6.22-2.71-49.17,19.31-2.71,6.22Zm4.97-11.4l41.74-16.39-6.22-2.71-32.81,12.88-2.71,6.22Zm4.97-11.4l25.38-9.97-6.22-2.71-16.44,6.46-2.71,6.23Zm7.68-17.62l-2.71,6.22,9.02-3.54-6.22-2.71-.08.03Z"/>
    <polygon class="cls-4" points="41.05 171.42 6.24 181.08 32 206.39 41.05 171.42"/>
  </g>
</svg>