<?xml version="1.0" encoding="UTF-8"?>
<svg id="_レイヤー_2" data-name="レイヤー 2" xmlns="http://www.w3.org/2000/svg" viewBox="0 0 55.98 55.19">
  <defs>
    <style>
      .cls-1 {
        fill: none;
        stroke: #040000;
        stroke-linecap: round;
        stroke-linejoin: round;
        stroke-width: 1.66px;
      }
    </style>
  </defs>
  <g id="_レイヤー_4" data-name="レイヤー 4">
    <g>
      <path class="cls-1" d="m24.21,13.63c-.27-.03-.54.05-.73.24l-8.61,8.32c-.19.19-.29.45-.27.72.03.27.17.51.4.66l23.02,15.2c.34.23.8.18,1.1-.1s.35-.74.14-1.09l-14.42-23.52c-.14-.23-.38-.38-.64-.41Z"/>
      <path class="cls-1" d="m4.66,39.51c-.25.1-.43.31-.51.57l-3.29,11.51c-.08.25-.03.53.12.75.15.22.4.36.67.38l27.54,1.65c.41.02.78-.24.9-.64.11-.39-.07-.82-.43-1.01l-24.24-13.16c-.24-.13-.52-.14-.77-.04Z"/>
      <path class="cls-1" d="m41.13,4.25c.11-.24.33-.42.59-.49l11.62-2.9c.26-.06.53,0,.74.15.21.16.34.42.35.68l.73,27.58c0,.41-.27.78-.67.88-.4.1-.82-.09-1-.46l-12.34-24.67c-.12-.24-.12-.52-.01-.76Z"/>
    </g>
  </g>
</svg>