<?xml version="1.0" encoding="UTF-8"?>
<svg id="_レイヤー_2" data-name="レイヤー 2" xmlns="http://www.w3.org/2000/svg" xmlns:xlink="http://www.w3.org/1999/xlink" viewBox="0 0 195.06 149.4">
  <defs>
    <style>
      .cls-1 {
        fill: url(#_名称未設定グラデーション_138);
      }

      .cls-2 {
        fill: #a5d3f2;
      }

      .cls-3 {
        fill: #bdddb1;
      }

      .cls-4 {
        fill: url(#_名称未設定グラデーション_138-2);
      }
    </style>
    <linearGradient id="_名称未設定グラデーション_138" data-name="名称未設定グラデーション 138" x1="13.34" y1="126.26" x2="111.75" y2="27.85" gradientUnits="userSpaceOnUse">
      <stop offset="0" stop-color="#abdad2"/>
      <stop offset="1" stop-color="#a5d3f2"/>
    </linearGradient>
    <linearGradient id="_名称未設定グラデーション_138-2" data-name="名称未設定グラデーション 138" x1="64.12" y1="139.55" x2="108.27" y2="95.4" xlink:href="#_名称未設定グラデーション_138"/>
  </defs>
  <g id="_レイヤー_4" data-name="レイヤー 4">
    <g>
      <path class="cls-1" d="m8.63,117.98c-.14,0-.28,0-.43-.01-.14,0-.28-.02-.42-.03-.14-.01-.28-.03-.42-.05-.14-.02-.28-.05-.42-.07-.14-.03-.28-.06-.41-.09-.14-.04-.27-.07-.41-.11-.27-.08-.54-.18-.79-.29-.26-.11-.52-.23-.77-.36-.12-.07-.25-.14-.37-.21-.12-.07-.24-.15-.36-.22-.12-.08-.23-.16-.35-.24s-.23-.17-.33-.26c-.11-.09-.22-.18-.32-.28-.11-.09-.21-.19-.31-.29-.1-.1-.2-.2-.29-.31-.09-.11-.19-.21-.28-.32-.09-.11-.18-.22-.26-.34-.08-.11-.17-.23-.24-.35-.08-.12-.15-.24-.23-.36-.07-.12-.14-.25-.21-.37-.13-.25-.25-.5-.36-.76-.11-.26-.21-.53-.29-.8-.04-.13-.08-.27-.11-.41-.03-.14-.07-.28-.09-.41-.03-.14-.05-.28-.07-.42-.02-.14-.04-.28-.05-.42-.02-.14-.03-.28-.03-.42,0-.14,0-.28,0-.43s0-.28,0-.42c0-.14.02-.28.03-.42.01-.14.03-.28.05-.42.02-.14.04-.28.07-.42.03-.14.06-.28.09-.41.03-.14.07-.27.11-.41.08-.27.18-.54.29-.8.11-.26.23-.52.36-.76.07-.13.14-.25.21-.37.07-.12.15-.24.23-.36.08-.12.16-.24.24-.35.08-.12.17-.23.26-.34.09-.11.18-.22.28-.32.1-.1.19-.21.29-.31.1-.1.2-.2.31-.29.1-.1.21-.19.32-.28.11-.09.22-.18.33-.26s.23-.16.35-.24c.12-.08.24-.15.36-.22.12-.07.24-.14.37-.21.25-.13.51-.25.77-.36.26-.11.53-.2.79-.29.14-.04.27-.08.41-.11.14-.03.27-.06.41-.09.14-.03.28-.05.42-.07.14-.02.28-.04.42-.05.14-.01.28-.02.42-.03.28-.02.57-.02.85,0,.14,0,.28.02.42.03.14.02.28.03.42.05.14.02.28.05.42.07.14.03.28.06.41.09.14.04.27.07.41.11.27.08.54.18.79.29.26.11.52.23.77.36.12.07.25.14.37.21.12.07.24.15.36.22.12.08.23.16.35.24.11.08.23.17.33.26.11.09.22.18.32.28.11.09.21.19.31.29.1.1.2.2.29.31.09.11.19.21.28.32.09.11.18.22.26.34.08.11.17.23.24.35.08.12.15.24.23.36.07.12.14.24.21.37.13.25.25.5.36.76.11.26.2.53.29.8.04.13.08.27.11.41.04.14.07.28.09.41.03.14.05.28.07.42.02.14.04.28.05.42.01.14.03.28.03.42,0,.14.01.28.01.42s0,.29-.01.43c0,.14-.02.28-.03.42-.01.14-.03.28-.05.42-.02.14-.04.28-.07.42-.03.14-.06.28-.09.41-.03.14-.07.27-.11.41-.08.27-.18.54-.29.8-.11.26-.23.52-.36.76-.07.12-.14.25-.21.37-.07.12-.15.24-.23.36-.08.12-.16.24-.24.35-.08.11-.17.23-.26.34-.09.11-.18.22-.28.32-.1.1-.19.21-.29.31-.1.1-.2.2-.31.29-.1.1-.21.19-.32.28-.11.09-.22.18-.33.26-.11.08-.23.16-.35.24-.12.08-.24.15-.36.22-.12.07-.24.14-.37.21-.25.13-.51.25-.77.36-.26.11-.53.2-.79.29-.14.04-.27.08-.41.11-.13.03-.27.07-.41.09-.14.03-.28.05-.42.07-.14.02-.28.04-.42.05-.14.01-.28.02-.42.03-.14,0-.29.01-.43.01Zm63.38-16.58l50.54-50.54c3.37-3.37,3.37-8.84,0-12.21-3.37-3.37-8.84-3.37-12.21,0l-35.8,35.8v-22.38c0-3.49-2.1-6.64-5.33-7.98-3.23-1.34-6.94-.6-9.41,1.87l-39.96,39.96c-3.37,3.37-3.37,8.84,0,12.21,3.37,3.37,8.84,3.37,12.21,0l25.21-25.21v22.38c0,3.49,2.1,6.64,5.33,7.98,1.07.44,2.19.66,3.3.66,2.25,0,4.46-.88,6.11-2.53Z"/>
      <path class="cls-4" d="m70.23,142.08c-2.21,0-4.42-.84-6.11-2.53-3.37-3.37-3.37-8.84,0-12.21l31.93-31.93c3.37-3.37,8.84-3.37,12.21,0,3.37,3.37,3.37,8.84,0,12.21l-31.93,31.93c-1.69,1.69-3.9,2.53-6.11,2.53Z"/>
    </g>
    <polygon class="cls-2" points="10.39 26.82 36.64 18.64 16.43 0 10.39 26.82"/>
    <g>
      <path class="cls-3" d="m148.93,121.41l18.15-18.15c-4.32.88-8.45,3-11.8,6.35s-5.47,7.48-6.35,11.8Z"/>
      <path class="cls-3" d="m171.46,102.8l-23,23c-.02,1.91.18,3.82.62,5.69l28.06-28.06c-1.87-.44-3.78-.65-5.69-.62Z"/>
      <path class="cls-3" d="m184.32,106.46c-1.34-.86-2.74-1.56-4.19-2.12l-30.12,30.12c.56,1.45,1.26,2.85,2.12,4.19l32.19-32.19Z"/>
      <path class="cls-3" d="m156.94,144.08l32.81-32.81c-.47-.57-.97-1.12-1.5-1.65s-1.09-1.03-1.65-1.5l-32.81,32.81c.47.57.97,1.12,1.5,1.65s1.09,1.03,1.65,1.5Z"/>
      <path class="cls-3" d="m193.51,117.72c-.56-1.45-1.26-2.85-2.12-4.19l-32.19,32.19c1.34.86,2.74,1.56,4.19,2.12l30.12-30.12Z"/>
      <path class="cls-3" d="m194.44,120.71l-28.06,28.06c1.87.44,3.78.65,5.69.62l23-23c.02-1.91-.18-3.82-.62-5.69Z"/>
      <path class="cls-3" d="m194.59,130.78l-18.15,18.15c4.32-.88,8.45-3,11.8-6.35s5.47-7.48,6.35-11.8Z"/>
    </g>
  </g>
</svg>