<?xml version="1.0" encoding="UTF-8"?>
<svg id="_レイヤー_2" data-name="レイヤー 2" xmlns="http://www.w3.org/2000/svg" viewBox="0 0 107.1 145.12">
  <defs>
    <style>
      .cls-1 {
        fill: #7ecef4;
      }

      .cls-2 {
        fill: #bae3f9;
      }

      .cls-3 {
        fill: #d3edfb;
      }
    </style>
  </defs>
  <g id="_レイヤー_4" data-name="レイヤー 4">
    <rect class="cls-3" x="11.45" y="78.37" width="55.3" height="55.3" transform="translate(-63.52 58.7) rotate(-45)"/>
    <g>
      <circle class="cls-1" cx="70.95" cy="1.29" r="1.23"/>
      <path class="cls-1" d="m77.65,7.98c-.48.48-1.26.48-1.75,0s-.48-1.26,0-1.75,1.26-.48,1.75,0,.48,1.26,0,1.75Z"/>
      <path class="cls-1" d="m83.46,13.79c-.48.48-1.26.48-1.75,0s-.48-1.26,0-1.75,1.26-.48,1.75,0,.48,1.26,0,1.75Z"/>
      <path class="cls-1" d="m89.28,19.61c-.48.48-1.26.48-1.75,0-.48-.48-.48-1.26,0-1.75.48-.48,1.26-.48,1.75,0,.48.48.48,1.26,0,1.75Z"/>
      <path class="cls-1" d="m95.1,25.43c-.48.48-1.26.48-1.75,0s-.48-1.26,0-1.75,1.26-.48,1.75,0,.48,1.26,0,1.75Z"/>
      <path class="cls-1" d="m100.92,31.25c-.48.48-1.26.48-1.75,0s-.48-1.26,0-1.75,1.26-.48,1.75,0,.48,1.26,0,1.75Z"/>
      <path class="cls-1" d="m106.73,37.07c-.48.48-1.26.48-1.75,0-.48-.48-.48-1.26,0-1.75.48-.48,1.26-.48,1.75,0,.48.48.48,1.26,0,1.75Z"/>
      <path class="cls-1" d="m71.83,7.98c-.48.48-1.26.48-1.75,0-.48-.48-.48-1.26,0-1.75.48-.48,1.26-.48,1.75,0,.48.48.48,1.26,0,1.75Z"/>
      <path class="cls-1" d="m77.65,13.79c-.48.48-1.26.48-1.75,0-.48-.48-.48-1.26,0-1.75.48-.48,1.26-.48,1.75,0,.48.48.48,1.26,0,1.75Z"/>
      <path class="cls-1" d="m83.46,19.61c-.48.48-1.26.48-1.75,0-.48-.48-.48-1.26,0-1.75.48-.48,1.26-.48,1.75,0,.48.48.48,1.26,0,1.75Z"/>
      <path class="cls-1" d="m89.28,25.43c-.48.48-1.26.48-1.75,0-.48-.48-.48-1.26,0-1.75s1.26-.48,1.75,0c.48.48.48,1.26,0,1.75Z"/>
      <path class="cls-1" d="m95.1,31.25c-.48.48-1.26.48-1.75,0-.48-.48-.48-1.26,0-1.75.48-.48,1.26-.48,1.75,0,.48.48.48,1.26,0,1.75Z"/>
      <path class="cls-1" d="m100.92,37.07c-.48.48-1.26.48-1.75,0-.48-.48-.48-1.26,0-1.75.48-.48,1.26-.48,1.75,0,.48.48.48,1.26,0,1.75Z"/>
      <path class="cls-1" d="m66.01,7.98c-.48.48-1.26.48-1.75,0-.48-.48-.48-1.26,0-1.75.48-.48,1.26-.48,1.75,0,.48.48.48,1.26,0,1.75Z"/>
      <path class="cls-1" d="m71.83,13.79c-.48.48-1.26.48-1.75,0-.48-.48-.48-1.26,0-1.75.48-.48,1.26-.48,1.75,0,.48.48.48,1.26,0,1.75Z"/>
      <path class="cls-1" d="m77.65,19.61c-.48.48-1.26.48-1.75,0s-.48-1.26,0-1.75,1.26-.48,1.75,0,.48,1.26,0,1.75Z"/>
      <path class="cls-1" d="m83.46,25.43c-.48.48-1.26.48-1.75,0-.48-.48-.48-1.26,0-1.75.48-.48,1.26-.48,1.75,0,.48.48.48,1.26,0,1.75Z"/>
      <path class="cls-1" d="m89.28,31.25c-.48.48-1.26.48-1.75,0s-.48-1.26,0-1.75,1.26-.48,1.75,0c.48.48.48,1.26,0,1.75Z"/>
      <path class="cls-1" d="m95.1,37.07c-.48.48-1.26.48-1.75,0s-.48-1.26,0-1.75,1.26-.48,1.75,0,.48,1.26,0,1.75Z"/>
      <path class="cls-1" d="m100.92,42.88c-.48.48-1.26.48-1.75,0-.48-.48-.48-1.26,0-1.75.48-.48,1.26-.48,1.75,0,.48.48.48,1.26,0,1.75Z"/>
      <path class="cls-1" d="m66.01,13.79c-.48.48-1.26.48-1.75,0s-.48-1.26,0-1.75,1.26-.48,1.75,0,.48,1.26,0,1.75Z"/>
      <circle class="cls-1" cx="70.95" cy="18.74" r="1.23"/>
      <path class="cls-1" d="m77.65,25.43c-.48.48-1.26.48-1.75,0-.48-.48-.48-1.26,0-1.75.48-.48,1.26-.48,1.75,0,.48.48.48,1.26,0,1.75Z"/>
      <path class="cls-1" d="m83.46,31.25c-.48.48-1.26.48-1.75,0s-.48-1.26,0-1.75,1.26-.48,1.75,0,.48,1.26,0,1.75Z"/>
      <path class="cls-1" d="m89.28,37.07c-.48.48-1.26.48-1.75,0s-.48-1.26,0-1.75,1.26-.48,1.75,0,.48,1.26,0,1.75Z"/>
      <path class="cls-1" d="m95.1,42.88c-.48.48-1.26.48-1.75,0-.48-.48-.48-1.26,0-1.75s1.26-.48,1.75,0c.48.48.48,1.26,0,1.75Z"/>
      <path class="cls-1" d="m60.19,13.79c-.48.48-1.26.48-1.75,0-.48-.48-.48-1.26,0-1.75.48-.48,1.26-.48,1.75,0,.48.48.48,1.26,0,1.75Z"/>
      <path class="cls-1" d="m66.01,19.61c-.48.48-1.26.48-1.75,0-.48-.48-.48-1.26,0-1.75.48-.48,1.26-.48,1.75,0,.48.48.48,1.26,0,1.75Z"/>
      <path class="cls-1" d="m71.83,25.43c-.48.48-1.26.48-1.75,0s-.48-1.26,0-1.75,1.26-.48,1.75,0,.48,1.26,0,1.75Z"/>
      <path class="cls-1" d="m77.65,31.25c-.48.48-1.26.48-1.75,0-.48-.48-.48-1.26,0-1.75.48-.48,1.26-.48,1.75,0,.48.48.48,1.26,0,1.75Z"/>
      <path class="cls-1" d="m83.46,37.07c-.48.48-1.26.48-1.75,0-.48-.48-.48-1.26,0-1.75.48-.48,1.26-.48,1.75,0,.48.48.48,1.26,0,1.75Z"/>
      <path class="cls-1" d="m89.28,42.88c-.48.48-1.26.48-1.75,0s-.48-1.26,0-1.75,1.26-.48,1.75,0,.48,1.26,0,1.75Z"/>
      <path class="cls-1" d="m95.1,48.7c-.48.48-1.26.48-1.75,0-.48-.48-.48-1.26,0-1.75.48-.48,1.26-.48,1.75,0,.48.48.48,1.26,0,1.75Z"/>
      <path class="cls-1" d="m60.19,19.61c-.48.48-1.26.48-1.75,0s-.48-1.26,0-1.75,1.26-.48,1.75,0,.48,1.26,0,1.75Z"/>
      <circle class="cls-1" cx="65.14" cy="24.56" r="1.23"/>
      <path class="cls-1" d="m71.83,31.25c-.48.48-1.26.48-1.75,0-.48-.48-.48-1.26,0-1.75.48-.48,1.26-.48,1.75,0,.48.48.48,1.26,0,1.75Z"/>
      <path class="cls-1" d="m77.65,37.07c-.48.48-1.26.48-1.75,0s-.48-1.26,0-1.75,1.26-.48,1.75,0,.48,1.26,0,1.75Z"/>
      <path class="cls-1" d="m83.46,42.88c-.48.48-1.26.48-1.75,0-.48-.48-.48-1.26,0-1.75.48-.48,1.26-.48,1.75,0,.48.48.48,1.26,0,1.75Z"/>
      <path class="cls-1" d="m89.28,48.7c-.48.48-1.26.48-1.75,0-.48-.48-.48-1.26,0-1.75.48-.48,1.26-.48,1.75,0,.48.48.48,1.26,0,1.75Z"/>
      <path class="cls-1" d="m54.37,19.61c-.48.48-1.26.48-1.75,0-.48-.48-.48-1.26,0-1.75.48-.48,1.26-.48,1.75,0,.48.48.48,1.26,0,1.75Z"/>
      <path class="cls-1" d="m60.19,25.43c-.48.48-1.26.48-1.75,0-.48-.48-.48-1.26,0-1.75.48-.48,1.26-.48,1.75,0,.48.48.48,1.26,0,1.75Z"/>
      <path class="cls-1" d="m66.01,31.25c-.48.48-1.26.48-1.75,0s-.48-1.26,0-1.75,1.26-.48,1.75,0,.48,1.26,0,1.75Z"/>
      <path class="cls-1" d="m71.83,37.07c-.48.48-1.26.48-1.75,0-.48-.48-.48-1.26,0-1.75.48-.48,1.26-.48,1.75,0,.48.48.48,1.26,0,1.75Z"/>
      <path class="cls-1" d="m77.65,42.88c-.48.48-1.26.48-1.75,0-.48-.48-.48-1.26,0-1.75s1.26-.48,1.75,0,.48,1.26,0,1.75Z"/>
      <path class="cls-1" d="m83.46,48.7c-.48.48-1.26.48-1.75,0s-.48-1.26,0-1.75,1.26-.48,1.75,0,.48,1.26,0,1.75Z"/>
      <path class="cls-1" d="m89.28,54.52c-.48.48-1.26.48-1.75,0-.48-.48-.48-1.26,0-1.75.48-.48,1.26-.48,1.75,0,.48.48.48,1.26,0,1.75Z"/>
      <path class="cls-1" d="m54.37,25.43c-.48.48-1.26.48-1.75,0-.48-.48-.48-1.26,0-1.75.48-.48,1.26-.48,1.75,0,.48.48.48,1.26,0,1.75Z"/>
      <path class="cls-1" d="m60.19,31.25c-.48.48-1.26.48-1.75,0-.48-.48-.48-1.26,0-1.75.48-.48,1.26-.48,1.75,0,.48.48.48,1.26,0,1.75Z"/>
      <path class="cls-1" d="m66.01,37.07c-.48.48-1.26.48-1.75,0-.48-.48-.48-1.26,0-1.75.48-.48,1.26-.48,1.75,0,.48.48.48,1.26,0,1.75Z"/>
      <path class="cls-1" d="m71.83,42.88c-.48.48-1.26.48-1.75,0-.48-.48-.48-1.26,0-1.75.48-.48,1.26-.48,1.75,0,.48.48.48,1.26,0,1.75Z"/>
      <path class="cls-1" d="m77.65,48.7c-.48.48-1.26.48-1.75,0-.48-.48-.48-1.26,0-1.75.48-.48,1.26-.48,1.75,0,.48.48.48,1.26,0,1.75Z"/>
      <path class="cls-1" d="m83.46,54.52c-.48.48-1.26.48-1.75,0-.48-.48-.48-1.26,0-1.75.48-.48,1.26-.48,1.75,0,.48.48.48,1.26,0,1.75Z"/>
      <path class="cls-1" d="m48.56,25.43c-.48.48-1.26.48-1.75,0-.48-.48-.48-1.26,0-1.75.48-.48,1.26-.48,1.75,0,.48.48.48,1.26,0,1.75Z"/>
      <path class="cls-1" d="m54.37,31.25c-.48.48-1.26.48-1.75,0s-.48-1.26,0-1.75,1.26-.48,1.75,0,.48,1.26,0,1.75Z"/>
      <path class="cls-1" d="m60.19,37.07c-.48.48-1.26.48-1.75,0s-.48-1.26,0-1.75,1.26-.48,1.75,0,.48,1.26,0,1.75Z"/>
      <path class="cls-1" d="m66.01,42.88c-.48.48-1.26.48-1.75,0-.48-.48-.48-1.26,0-1.75.48-.48,1.26-.48,1.75,0,.48.48.48,1.26,0,1.75Z"/>
      <path class="cls-1" d="m71.83,48.7c-.48.48-1.26.48-1.75,0s-.48-1.26,0-1.75,1.26-.48,1.75,0,.48,1.26,0,1.75Z"/>
      <path class="cls-1" d="m77.65,54.52c-.48.48-1.26.48-1.75,0s-.48-1.26,0-1.75,1.26-.48,1.75,0,.48,1.26,0,1.75Z"/>
      <path class="cls-1" d="m83.46,60.34c-.48.48-1.26.48-1.75,0-.48-.48-.48-1.26,0-1.75.48-.48,1.26-.48,1.75,0,.48.48.48,1.26,0,1.75Z"/>
      <circle class="cls-1" cx="47.68" cy="30.38" r="1.23"/>
      <path class="cls-1" d="m54.37,37.07c-.48.48-1.26.48-1.75,0-.48-.48-.48-1.26,0-1.75s1.26-.48,1.75,0c.48.48.48,1.26,0,1.75Z"/>
      <path class="cls-1" d="m60.19,42.88c-.48.48-1.26.48-1.75,0-.48-.48-.48-1.26,0-1.75s1.26-.48,1.75,0c.48.48.48,1.26,0,1.75Z"/>
      <circle class="cls-1" cx="65.14" cy="47.83" r="1.23"/>
      <circle class="cls-1" cx="70.95" cy="53.65" r="1.23"/>
      <path class="cls-1" d="m77.65,60.34c-.48.48-1.26.48-1.75,0-.48-.48-.48-1.26,0-1.75s1.26-.48,1.75,0c.48.48.48,1.26,0,1.75Z"/>
      <path class="cls-1" d="m42.74,31.25c-.48.48-1.26.48-1.75,0-.48-.48-.48-1.26,0-1.75.48-.48,1.26-.48,1.75,0,.48.48.48,1.26,0,1.75Z"/>
      <path class="cls-1" d="m48.56,37.07c-.48.48-1.26.48-1.75,0-.48-.48-.48-1.26,0-1.75.48-.48,1.26-.48,1.75,0,.48.48.48,1.26,0,1.75Z"/>
      <path class="cls-1" d="m54.37,42.88c-.48.48-1.26.48-1.75,0-.48-.48-.48-1.26,0-1.75s1.26-.48,1.75,0c.48.48.48,1.26,0,1.75Z"/>
      <path class="cls-1" d="m60.19,48.7c-.48.48-1.26.48-1.75,0-.48-.48-.48-1.26,0-1.75.48-.48,1.26-.48,1.75,0,.48.48.48,1.26,0,1.75Z"/>
      <path class="cls-1" d="m66.01,54.52c-.48.48-1.26.48-1.75,0-.48-.48-.48-1.26,0-1.75.48-.48,1.26-.48,1.75,0,.48.48.48,1.26,0,1.75Z"/>
      <path class="cls-1" d="m71.83,60.34c-.48.48-1.26.48-1.75,0-.48-.48-.48-1.26,0-1.75.48-.48,1.26-.48,1.75,0,.48.48.48,1.26,0,1.75Z"/>
      <path class="cls-1" d="m77.65,66.15c-.48.48-1.26.48-1.75,0-.48-.48-.48-1.26,0-1.75.48-.48,1.26-.48,1.75,0,.48.48.48,1.26,0,1.75Z"/>
      <path class="cls-1" d="m42.74,37.07c-.48.48-1.26.48-1.75,0s-.48-1.26,0-1.75,1.26-.48,1.75,0,.48,1.26,0,1.75Z"/>
      <path class="cls-1" d="m48.56,42.88c-.48.48-1.26.48-1.75,0-.48-.48-.48-1.26,0-1.75.48-.48,1.26-.48,1.75,0,.48.48.48,1.26,0,1.75Z"/>
      <path class="cls-1" d="m54.37,48.7c-.48.48-1.26.48-1.75,0-.48-.48-.48-1.26,0-1.75.48-.48,1.26-.48,1.75,0,.48.48.48,1.26,0,1.75Z"/>
      <path class="cls-1" d="m60.19,54.52c-.48.48-1.26.48-1.75,0s-.48-1.26,0-1.75,1.26-.48,1.75,0,.48,1.26,0,1.75Z"/>
      <path class="cls-1" d="m66.01,60.34c-.48.48-1.26.48-1.75,0-.48-.48-.48-1.26,0-1.75.48-.48,1.26-.48,1.75,0,.48.48.48,1.26,0,1.75Z"/>
      <path class="cls-1" d="m71.83,66.15c-.48.48-1.26.48-1.75,0-.48-.48-.48-1.26,0-1.75.48-.48,1.26-.48,1.75,0,.48.48.48,1.26,0,1.75Z"/>
      <path class="cls-1" d="m36.92,37.07c-.48.48-1.26.48-1.75,0s-.48-1.26,0-1.75,1.26-.48,1.75,0c.48.48.48,1.26,0,1.75Z"/>
      <path class="cls-1" d="m42.74,42.88c-.48.48-1.26.48-1.75,0-.48-.48-.48-1.26,0-1.75.48-.48,1.26-.48,1.75,0,.48.48.48,1.26,0,1.75Z"/>
      <path class="cls-1" d="m48.56,48.7c-.48.48-1.26.48-1.75,0s-.48-1.26,0-1.75,1.26-.48,1.75,0,.48,1.26,0,1.75Z"/>
      <path class="cls-1" d="m54.37,54.52c-.48.48-1.26.48-1.75,0-.48-.48-.48-1.26,0-1.75s1.26-.48,1.75,0c.48.48.48,1.26,0,1.75Z"/>
      <path class="cls-1" d="m60.19,60.34c-.48.48-1.26.48-1.75,0s-.48-1.26,0-1.75c.48-.48,1.26-.48,1.75,0s.48,1.26,0,1.75Z"/>
      <path class="cls-1" d="m66.01,66.15c-.48.48-1.26.48-1.75,0s-.48-1.26,0-1.75,1.26-.48,1.75,0,.48,1.26,0,1.75Z"/>
      <path class="cls-1" d="m71.83,71.97c-.48.48-1.26.48-1.75,0-.48-.48-.48-1.26,0-1.75s1.26-.48,1.75,0c.48.48.48,1.26,0,1.75Z"/>
    </g>
    <rect class="cls-3" x="7.63" y="4.72" width="22.78" height="22.78" transform="translate(16.96 -8.73) rotate(45)"/>
    <polygon class="cls-2" points="84.89 76.61 85.84 82.41 91.64 83.36 85.84 84.32 84.89 90.11 83.94 84.32 78.14 83.36 83.94 82.41 84.89 76.61"/>
  </g>
</svg>