<?xml version="1.0" encoding="UTF-8"?>
<svg id="_レイヤー_2" data-name="レイヤー 2" xmlns="http://www.w3.org/2000/svg" viewBox="0 0 134.61 189.95">
  <defs>
    <style>
      .cls-1 {
        fill: #7ecef4;
      }

      .cls-2 {
        fill: #bae3f9;
      }

      .cls-3 {
        fill: #d3edfb;
      }

      .cls-4 {
        fill: none;
        stroke: #040000;
        stroke-linecap: round;
        stroke-linejoin: round;
        stroke-width: 2.65px;
      }
    </style>
  </defs>
  <g id="_レイヤー_4" data-name="レイヤー 4">
    <g>
      <line class="cls-4" x1="30.56" y1="3.28" x2="33.58" y2="11.66"/>
      <line class="cls-4" x1="11.32" y1="16.65" x2="18.11" y2="22.4"/>
      <line class="cls-4" x1="1.33" y1="37.86" x2="10.09" y2="39.44"/>
      <line class="cls-4" x1="53.93" y1="1.33" x2="52.35" y2="10.09"/>
      <line class="cls-4" x1="75.13" y1="11.32" x2="69.38" y2="18.11"/>
    </g>
    <rect class="cls-3" x="38.97" y="123.2" width="55.3" height="55.3" transform="translate(-87.16 91.29) rotate(-45)"/>
    <g>
      <circle class="cls-1" cx="98.47" cy="46.12" r="1.23"/>
      <path class="cls-1" d="m105.16,52.81c-.48.48-1.26.48-1.75,0s-.48-1.26,0-1.75,1.26-.48,1.75,0,.48,1.26,0,1.75Z"/>
      <path class="cls-1" d="m110.98,58.62c-.48.48-1.26.48-1.75,0s-.48-1.26,0-1.75,1.26-.48,1.75,0,.48,1.26,0,1.75Z"/>
      <path class="cls-1" d="m116.79,64.44c-.48.48-1.26.48-1.75,0-.48-.48-.48-1.26,0-1.75.48-.48,1.26-.48,1.75,0,.48.48.48,1.26,0,1.75Z"/>
      <path class="cls-1" d="m122.61,70.26c-.48.48-1.26.48-1.75,0s-.48-1.26,0-1.75,1.26-.48,1.75,0,.48,1.26,0,1.75Z"/>
      <path class="cls-1" d="m128.43,76.08c-.48.48-1.26.48-1.75,0s-.48-1.26,0-1.75,1.26-.48,1.75,0,.48,1.26,0,1.75Z"/>
      <path class="cls-1" d="m134.25,81.9c-.48.48-1.26.48-1.75,0-.48-.48-.48-1.26,0-1.75.48-.48,1.26-.48,1.75,0,.48.48.48,1.26,0,1.75Z"/>
      <path class="cls-1" d="m99.34,52.81c-.48.48-1.26.48-1.75,0-.48-.48-.48-1.26,0-1.75.48-.48,1.26-.48,1.75,0,.48.48.48,1.26,0,1.75Z"/>
      <path class="cls-1" d="m105.16,58.62c-.48.48-1.26.48-1.75,0-.48-.48-.48-1.26,0-1.75.48-.48,1.26-.48,1.75,0,.48.48.48,1.26,0,1.75Z"/>
      <path class="cls-1" d="m110.98,64.44c-.48.48-1.26.48-1.75,0-.48-.48-.48-1.26,0-1.75.48-.48,1.26-.48,1.75,0,.48.48.48,1.26,0,1.75Z"/>
      <path class="cls-1" d="m116.79,70.26c-.48.48-1.26.48-1.75,0-.48-.48-.48-1.26,0-1.75s1.26-.48,1.75,0c.48.48.48,1.26,0,1.75Z"/>
      <path class="cls-1" d="m122.61,76.08c-.48.48-1.26.48-1.75,0-.48-.48-.48-1.26,0-1.75.48-.48,1.26-.48,1.75,0,.48.48.48,1.26,0,1.75Z"/>
      <path class="cls-1" d="m128.43,81.9c-.48.48-1.26.48-1.75,0-.48-.48-.48-1.26,0-1.75.48-.48,1.26-.48,1.75,0,.48.48.48,1.26,0,1.75Z"/>
      <path class="cls-1" d="m93.52,52.81c-.48.48-1.26.48-1.75,0-.48-.48-.48-1.26,0-1.75.48-.48,1.26-.48,1.75,0,.48.48.48,1.26,0,1.75Z"/>
      <path class="cls-1" d="m99.34,58.62c-.48.48-1.26.48-1.75,0-.48-.48-.48-1.26,0-1.75.48-.48,1.26-.48,1.75,0,.48.48.48,1.26,0,1.75Z"/>
      <path class="cls-1" d="m105.16,64.44c-.48.48-1.26.48-1.75,0s-.48-1.26,0-1.75,1.26-.48,1.75,0,.48,1.26,0,1.75Z"/>
      <path class="cls-1" d="m110.98,70.26c-.48.48-1.26.48-1.75,0-.48-.48-.48-1.26,0-1.75.48-.48,1.26-.48,1.75,0,.48.48.48,1.26,0,1.75Z"/>
      <path class="cls-1" d="m116.79,76.08c-.48.48-1.26.48-1.75,0s-.48-1.26,0-1.75,1.26-.48,1.75,0c.48.48.48,1.26,0,1.75Z"/>
      <path class="cls-1" d="m122.61,81.9c-.48.48-1.26.48-1.75,0s-.48-1.26,0-1.75,1.26-.48,1.75,0,.48,1.26,0,1.75Z"/>
      <path class="cls-1" d="m128.43,87.71c-.48.48-1.26.48-1.75,0-.48-.48-.48-1.26,0-1.75.48-.48,1.26-.48,1.75,0,.48.48.48,1.26,0,1.75Z"/>
      <path class="cls-1" d="m93.52,58.62c-.48.48-1.26.48-1.75,0s-.48-1.26,0-1.75,1.26-.48,1.75,0,.48,1.26,0,1.75Z"/>
      <circle class="cls-1" cx="98.47" cy="63.57" r="1.23"/>
      <path class="cls-1" d="m105.16,70.26c-.48.48-1.26.48-1.75,0-.48-.48-.48-1.26,0-1.75.48-.48,1.26-.48,1.75,0,.48.48.48,1.26,0,1.75Z"/>
      <path class="cls-1" d="m110.98,76.08c-.48.48-1.26.48-1.75,0s-.48-1.26,0-1.75,1.26-.48,1.75,0,.48,1.26,0,1.75Z"/>
      <path class="cls-1" d="m116.79,81.9c-.48.48-1.26.48-1.75,0s-.48-1.26,0-1.75,1.26-.48,1.75,0,.48,1.26,0,1.75Z"/>
      <path class="cls-1" d="m122.61,87.71c-.48.48-1.26.48-1.75,0-.48-.48-.48-1.26,0-1.75s1.26-.48,1.75,0c.48.48.48,1.26,0,1.75Z"/>
      <path class="cls-1" d="m87.71,58.62c-.48.48-1.26.48-1.75,0-.48-.48-.48-1.26,0-1.75.48-.48,1.26-.48,1.75,0,.48.48.48,1.26,0,1.75Z"/>
      <path class="cls-1" d="m93.52,64.44c-.48.48-1.26.48-1.75,0-.48-.48-.48-1.26,0-1.75.48-.48,1.26-.48,1.75,0,.48.48.48,1.26,0,1.75Z"/>
      <path class="cls-1" d="m99.34,70.26c-.48.48-1.26.48-1.75,0s-.48-1.26,0-1.75,1.26-.48,1.75,0,.48,1.26,0,1.75Z"/>
      <path class="cls-1" d="m105.16,76.08c-.48.48-1.26.48-1.75,0-.48-.48-.48-1.26,0-1.75.48-.48,1.26-.48,1.75,0,.48.48.48,1.26,0,1.75Z"/>
      <path class="cls-1" d="m110.98,81.9c-.48.48-1.26.48-1.75,0-.48-.48-.48-1.26,0-1.75.48-.48,1.26-.48,1.75,0,.48.48.48,1.26,0,1.75Z"/>
      <path class="cls-1" d="m116.79,87.71c-.48.48-1.26.48-1.75,0s-.48-1.26,0-1.75,1.26-.48,1.75,0,.48,1.26,0,1.75Z"/>
      <path class="cls-1" d="m122.61,93.53c-.48.48-1.26.48-1.75,0-.48-.48-.48-1.26,0-1.75.48-.48,1.26-.48,1.75,0,.48.48.48,1.26,0,1.75Z"/>
      <path class="cls-1" d="m87.71,64.44c-.48.48-1.26.48-1.75,0s-.48-1.26,0-1.75,1.26-.48,1.75,0,.48,1.26,0,1.75Z"/>
      <circle class="cls-1" cx="92.65" cy="69.39" r="1.23"/>
      <path class="cls-1" d="m99.34,76.08c-.48.48-1.26.48-1.75,0-.48-.48-.48-1.26,0-1.75.48-.48,1.26-.48,1.75,0,.48.48.48,1.26,0,1.75Z"/>
      <path class="cls-1" d="m105.16,81.9c-.48.48-1.26.48-1.75,0s-.48-1.26,0-1.75,1.26-.48,1.75,0,.48,1.26,0,1.75Z"/>
      <path class="cls-1" d="m110.98,87.71c-.48.48-1.26.48-1.75,0-.48-.48-.48-1.26,0-1.75.48-.48,1.26-.48,1.75,0,.48.48.48,1.26,0,1.75Z"/>
      <path class="cls-1" d="m116.79,93.53c-.48.48-1.26.48-1.75,0-.48-.48-.48-1.26,0-1.75.48-.48,1.26-.48,1.75,0,.48.48.48,1.26,0,1.75Z"/>
      <path class="cls-1" d="m81.89,64.44c-.48.48-1.26.48-1.75,0-.48-.48-.48-1.26,0-1.75.48-.48,1.26-.48,1.75,0,.48.48.48,1.26,0,1.75Z"/>
      <path class="cls-1" d="m87.71,70.26c-.48.48-1.26.48-1.75,0-.48-.48-.48-1.26,0-1.75.48-.48,1.26-.48,1.75,0,.48.48.48,1.26,0,1.75Z"/>
      <path class="cls-1" d="m93.52,76.08c-.48.48-1.26.48-1.75,0s-.48-1.26,0-1.75,1.26-.48,1.75,0,.48,1.26,0,1.75Z"/>
      <path class="cls-1" d="m99.34,81.9c-.48.48-1.26.48-1.75,0-.48-.48-.48-1.26,0-1.75.48-.48,1.26-.48,1.75,0,.48.48.48,1.26,0,1.75Z"/>
      <path class="cls-1" d="m105.16,87.71c-.48.48-1.26.48-1.75,0-.48-.48-.48-1.26,0-1.75s1.26-.48,1.75,0,.48,1.26,0,1.75Z"/>
      <path class="cls-1" d="m110.98,93.53c-.48.48-1.26.48-1.75,0s-.48-1.26,0-1.75,1.26-.48,1.75,0,.48,1.26,0,1.75Z"/>
      <path class="cls-1" d="m116.79,99.35c-.48.48-1.26.48-1.75,0-.48-.48-.48-1.26,0-1.75.48-.48,1.26-.48,1.75,0,.48.48.48,1.26,0,1.75Z"/>
      <path class="cls-1" d="m81.89,70.26c-.48.48-1.26.48-1.75,0-.48-.48-.48-1.26,0-1.75.48-.48,1.26-.48,1.75,0,.48.48.48,1.26,0,1.75Z"/>
      <path class="cls-1" d="m87.71,76.08c-.48.48-1.26.48-1.75,0-.48-.48-.48-1.26,0-1.75.48-.48,1.26-.48,1.75,0,.48.48.48,1.26,0,1.75Z"/>
      <path class="cls-1" d="m93.52,81.9c-.48.48-1.26.48-1.75,0-.48-.48-.48-1.26,0-1.75.48-.48,1.26-.48,1.75,0,.48.48.48,1.26,0,1.75Z"/>
      <path class="cls-1" d="m99.34,87.71c-.48.48-1.26.48-1.75,0-.48-.48-.48-1.26,0-1.75.48-.48,1.26-.48,1.75,0,.48.48.48,1.26,0,1.75Z"/>
      <path class="cls-1" d="m105.16,93.53c-.48.48-1.26.48-1.75,0-.48-.48-.48-1.26,0-1.75.48-.48,1.26-.48,1.75,0,.48.48.48,1.26,0,1.75Z"/>
      <path class="cls-1" d="m110.98,99.35c-.48.48-1.26.48-1.75,0-.48-.48-.48-1.26,0-1.75.48-.48,1.26-.48,1.75,0,.48.48.48,1.26,0,1.75Z"/>
      <path class="cls-1" d="m76.07,70.26c-.48.48-1.26.48-1.75,0-.48-.48-.48-1.26,0-1.75.48-.48,1.26-.48,1.75,0,.48.48.48,1.26,0,1.75Z"/>
      <path class="cls-1" d="m81.89,76.08c-.48.48-1.26.48-1.75,0s-.48-1.26,0-1.75,1.26-.48,1.75,0,.48,1.26,0,1.75Z"/>
      <path class="cls-1" d="m87.71,81.9c-.48.48-1.26.48-1.75,0s-.48-1.26,0-1.75,1.26-.48,1.75,0,.48,1.26,0,1.75Z"/>
      <path class="cls-1" d="m93.52,87.71c-.48.48-1.26.48-1.75,0-.48-.48-.48-1.26,0-1.75.48-.48,1.26-.48,1.75,0,.48.48.48,1.26,0,1.75Z"/>
      <path class="cls-1" d="m99.34,93.53c-.48.48-1.26.48-1.75,0s-.48-1.26,0-1.75,1.26-.48,1.75,0,.48,1.26,0,1.75Z"/>
      <path class="cls-1" d="m105.16,99.35c-.48.48-1.26.48-1.75,0s-.48-1.26,0-1.75,1.26-.48,1.75,0,.48,1.26,0,1.75Z"/>
      <path class="cls-1" d="m110.98,105.17c-.48.48-1.26.48-1.75,0-.48-.48-.48-1.26,0-1.75.48-.48,1.26-.48,1.75,0,.48.48.48,1.26,0,1.75Z"/>
      <circle class="cls-1" cx="75.2" cy="75.2" r="1.23"/>
      <path class="cls-1" d="m81.89,81.9c-.48.48-1.26.48-1.75,0-.48-.48-.48-1.26,0-1.75s1.26-.48,1.75,0c.48.48.48,1.26,0,1.75Z"/>
      <path class="cls-1" d="m87.71,87.71c-.48.48-1.26.48-1.75,0-.48-.48-.48-1.26,0-1.75s1.26-.48,1.75,0c.48.48.48,1.26,0,1.75Z"/>
      <circle class="cls-1" cx="92.65" cy="92.66" r="1.23"/>
      <circle class="cls-1" cx="98.47" cy="98.48" r="1.23"/>
      <path class="cls-1" d="m105.16,105.17c-.48.48-1.26.48-1.75,0-.48-.48-.48-1.26,0-1.75s1.26-.48,1.75,0c.48.48.48,1.26,0,1.75Z"/>
      <path class="cls-1" d="m70.25,76.08c-.48.48-1.26.48-1.75,0-.48-.48-.48-1.26,0-1.75.48-.48,1.26-.48,1.75,0,.48.48.48,1.26,0,1.75Z"/>
      <path class="cls-1" d="m76.07,81.9c-.48.48-1.26.48-1.75,0-.48-.48-.48-1.26,0-1.75.48-.48,1.26-.48,1.75,0,.48.48.48,1.26,0,1.75Z"/>
      <path class="cls-1" d="m81.89,87.71c-.48.48-1.26.48-1.75,0-.48-.48-.48-1.26,0-1.75s1.26-.48,1.75,0c.48.48.48,1.26,0,1.75Z"/>
      <path class="cls-1" d="m87.71,93.53c-.48.48-1.26.48-1.75,0-.48-.48-.48-1.26,0-1.75.48-.48,1.26-.48,1.75,0,.48.48.48,1.26,0,1.75Z"/>
      <path class="cls-1" d="m93.52,99.35c-.48.48-1.26.48-1.75,0-.48-.48-.48-1.26,0-1.75.48-.48,1.26-.48,1.75,0,.48.48.48,1.26,0,1.75Z"/>
      <path class="cls-1" d="m99.34,105.17c-.48.48-1.26.48-1.75,0-.48-.48-.48-1.26,0-1.75.48-.48,1.26-.48,1.75,0,.48.48.48,1.26,0,1.75Z"/>
      <path class="cls-1" d="m105.16,110.98c-.48.48-1.26.48-1.75,0-.48-.48-.48-1.26,0-1.75.48-.48,1.26-.48,1.75,0,.48.48.48,1.26,0,1.75Z"/>
      <path class="cls-1" d="m70.25,81.9c-.48.48-1.26.48-1.75,0s-.48-1.26,0-1.75,1.26-.48,1.75,0,.48,1.26,0,1.75Z"/>
      <path class="cls-1" d="m76.07,87.71c-.48.48-1.26.48-1.75,0-.48-.48-.48-1.26,0-1.75.48-.48,1.26-.48,1.75,0,.48.48.48,1.26,0,1.75Z"/>
      <path class="cls-1" d="m81.89,93.53c-.48.48-1.26.48-1.75,0-.48-.48-.48-1.26,0-1.75.48-.48,1.26-.48,1.75,0,.48.48.48,1.26,0,1.75Z"/>
      <path class="cls-1" d="m87.71,99.35c-.48.48-1.26.48-1.75,0s-.48-1.26,0-1.75,1.26-.48,1.75,0,.48,1.26,0,1.75Z"/>
      <path class="cls-1" d="m93.52,105.17c-.48.48-1.26.48-1.75,0-.48-.48-.48-1.26,0-1.75.48-.48,1.26-.48,1.75,0,.48.48.48,1.26,0,1.75Z"/>
      <path class="cls-1" d="m99.34,110.98c-.48.48-1.26.48-1.75,0-.48-.48-.48-1.26,0-1.75.48-.48,1.26-.48,1.75,0,.48.48.48,1.26,0,1.75Z"/>
      <path class="cls-1" d="m64.43,81.9c-.48.48-1.26.48-1.75,0s-.48-1.26,0-1.75,1.26-.48,1.75,0c.48.48.48,1.26,0,1.75Z"/>
      <path class="cls-1" d="m70.25,87.71c-.48.48-1.26.48-1.75,0-.48-.48-.48-1.26,0-1.75.48-.48,1.26-.48,1.75,0,.48.48.48,1.26,0,1.75Z"/>
      <path class="cls-1" d="m76.07,93.53c-.48.48-1.26.48-1.75,0s-.48-1.26,0-1.75,1.26-.48,1.75,0,.48,1.26,0,1.75Z"/>
      <path class="cls-1" d="m81.89,99.35c-.48.48-1.26.48-1.75,0-.48-.48-.48-1.26,0-1.75s1.26-.48,1.75,0c.48.48.48,1.26,0,1.75Z"/>
      <path class="cls-1" d="m87.71,105.17c-.48.48-1.26.48-1.75,0s-.48-1.26,0-1.75c.48-.48,1.26-.48,1.75,0s.48,1.26,0,1.75Z"/>
      <path class="cls-1" d="m93.52,110.98c-.48.48-1.26.48-1.75,0s-.48-1.26,0-1.75,1.26-.48,1.75,0,.48,1.26,0,1.75Z"/>
      <path class="cls-1" d="m99.34,116.8c-.48.48-1.26.48-1.75,0-.48-.48-.48-1.26,0-1.75s1.26-.48,1.75,0c.48.48.48,1.26,0,1.75Z"/>
    </g>
    <rect class="cls-3" x="35.14" y="49.55" width="22.78" height="22.78" transform="translate(56.72 -15.05) rotate(45)"/>
    <polygon class="cls-2" points="112.4 121.44 113.36 127.24 119.15 128.19 113.36 129.14 112.4 134.94 111.45 129.14 105.66 128.19 111.45 127.24 112.4 121.44"/>
  </g>
</svg>