<?xml version="1.0" encoding="UTF-8"?><svg id="_レイヤー_2" xmlns="http://www.w3.org/2000/svg" viewBox="0 0 252.29 172.86"><defs><style>.cls-1,.cls-2,.cls-3,.cls-4{fill:#fff;}.cls-5{fill:#9fd0c7;}.cls-5,.cls-2,.cls-3,.cls-4,.cls-6,.cls-7,.cls-8{stroke:#191919;stroke-linecap:round;stroke-linejoin:round;}.cls-5,.cls-4,.cls-7,.cls-8{stroke-width:1.39px;}.cls-2,.cls-6{stroke-width:1.39px;}.cls-3{stroke-width:1.04px;}.cls-9,.cls-8{fill:#b7cdda;}.cls-6,.cls-7{fill:none;}.cls-10{fill:#191919;}</style></defs><g id="_テキスト"><g><g><path class="cls-4" d="m22.46,143.7c-.53,2.09-5.83,2.55-11.82,1.02-6-1.53-10.43-4.46-9.9-6.55.53-2.09,5.83-2.55,11.83-1.02,6,1.53,10.43,4.46,9.9,6.55Z"/><path class="cls-4" d="m22.27,142.75c-1.53,18.34-8.71,14.96-12.91,14.26-4.19-.7-5.08-6.35-3.56-15,3.48-19.91,9.29-25.98,13.49-25.31,8.5,1.34,4.82,3.99,2.98,26.05Z"/><path class="cls-4" d="m22.72,97.93s-8.32,1.85-14.44,21.85l-7.32,17.44s12.99-.08,21.59,6.77l5.25-26.66-5.07-19.4Z"/></g><g><path class="cls-4" d="m83.72,143.64c.53,2.09,5.83,2.55,11.82,1.02,6-1.53,10.43-4.46,9.9-6.55-.53-2.09-5.83-2.55-11.82-1.02-6,1.53-10.43,4.46-9.9,6.55Z"/><path class="cls-4" d="m83.18,142.9c-2,18.3,5.7,16.35,9.95,16.46,4.25.11,6.19-5.26,6.36-14.05.37-20.21-4.17-27.27-8.42-27.42-8.6-.3-5.49,3-7.89,25Z"/><path class="cls-4" d="m83.46,97.87s8.32,1.85,14.44,21.85l7.32,17.44s-12.99-.08-21.59,6.77l-5.25-26.66,5.07-19.4Z"/></g><g><path class="cls-1" d="m21.85,170.09h61.86l-.97-14.46,1.99-57.26s-17.28-6.56-18.74-7.35c-5.81-3.17-19.3-2.2-25.83.06-1.56.54-18.2,7.22-18.2,7.22l.73,57.33-.85,14.46Z"/><path class="cls-7" d="m84.73,98.37s-17.28-6.56-18.74-7.35c-5.81-3.17-19.3-2.2-25.83.06-1.56.54-18.2,7.22-18.2,7.22"/><polyline class="cls-7" points="21.49 169.41 22.7 155.63 23.23 137.82 22.55 127.97"/><polyline class="cls-7" points="83.89 134.19 82.74 155.63 83.65 169.58"/><circle class="cls-4" cx="52.92" cy="108.75" r="1.91"/><path class="cls-4" d="m54.84,117.89c0,1.06-.86,1.91-1.91,1.91s-1.91-.86-1.91-1.91.86-1.91,1.91-1.91,1.91.86,1.91,1.91Z"/><path class="cls-4" d="m64.71,102.23c-3.7-11.1-2.85-27.1-2.85-27.1h-17.56s1.29,15.23-2.66,27.1h23.06Z"/><path class="cls-4" d="m39.4,95.26c-.02,2.02-.16-3.1.51-5.23.96-3.02,4.14-4.19,4.12-3.98-.33,3.27,1.57,10.31,8.97,15.58.53.37-2.33,1.35-5.32,3.13-2.93,1.75-5.97,3.57-5.97,3.57-2.83-11.29-2.32-13.07-2.32-13.07Z"/><path class="cls-4" d="m66.63,95.26c.02,2.02.16-3.1-.51-5.23-.96-3.02-4.14-4.19-4.12-3.98.33,3.27-1.57,10.31-8.97,15.58-.53.37,2.38,1.35,5.36,3.13,2.93,1.75,5.92,3.57,5.92,3.57,2.83-11.29,2.32-13.07,2.32-13.07Z"/></g><g><rect class="cls-8" x="24.55" y="114.2" width="41.29" height="56.29" transform="translate(-12.13 4.43) rotate(-4.95)"/><circle class="cls-5" cx="35.95" cy="118.37" r="1.65"/><path class="cls-5" d="m51.53,117.25c0,.91-.74,1.65-1.65,1.65s-1.65-.74-1.65-1.65.74-1.65,1.65-1.65,1.65.74,1.65,1.65Z"/></g><g><path class="cls-4" d="m61.89,138.14c1.25-.01,3.16.95,3.97,1.24,1.64.59,4.71.11,4.08,1.75-.49,1.29-.75.98-.75.98.66.57,1.51,2.54,0,3.25,0,0,1.52.79.17,3.05,0,0,1.47,1.86.03,3.72,0,0,1.16,2,.04,3.07,0,0-3.82,1.51-7.59,1.27-1.83-.12-4.2.01-6.35-.36-3.81-.65-7.17-1.9-7.32-1.89l-.71-5.08v-5.12c.1.02,3.77-1.94,8.21-3.55,2.94-1.06,5.08-2.33,6.23-2.34Z"/><path class="cls-7" d="m69.13,148.61s-2.81.38-3.55.3"/><path class="cls-7" d="m69.56,152.17s-2.66.39-3.82.42"/><path class="cls-7" d="m69.59,142.11s-5.81,0-7.17-.34"/><line class="cls-7" x1="65.22" y1="145.75" x2="69.11" y2="145.5"/></g><g><path class="cls-1" d="m49.16,143.93l-18.6,1.05s-10.1-.57-15.28-.68l-10.02,2.24s-2.43,9.28,1.98,11.32c4.42,2.04,9.32,1.81,9.32,1.81l19.93-3.17,13.02-2.26-.34-10.3Z"/><path class="cls-7" d="m48.56,143.65l-18,1.33s-10.1-.57-15.28-.68"/><path class="cls-7" d="m5.29,145.46s-2.46,10.27,1.95,12.31c4.42,2.04,9.32,1.9,9.32,1.9l19.93-3.17,12.91-2.01"/></g><g><path class="cls-4" d="m95.55,102.85c1.52.77,4.87,1.07,5.39-.06.52-1.12-.77-3.98-2.41-3.55-2.23.59-4.26-1.34-4.78-.22-.52,1.12.28,3.06,1.8,3.82Z"/><path class="cls-4" d="m99.91,121.46c4.36-3.48,6.51-14.33,6.51-14.33.52-2.23-.09-3.41-.09-3.41-.65-.92-1.93-1.37-2.69-2.05-1.62-1.44-3.05-2.58-3.05-2.58-2.14-1.52-2.78,1.73-2.78,1.73-1.79-.67-3,1.17-3,1.17-2.21-.58-2.35,1.27-2.89,1.29-.54.03-1.74.4-1.74.4-.61.52-2.05,1.58-2.04,3.26.01,1.63-.28,3.55,1.5,4.21-1.31,3.41.08,9.26.08,9.26.41,1.99.29,2.38-.61,5.2-3.14,9.82-7.71,29.52-2.96,33.26,2.47,1.94,4.94,3.09,7.17,2.02,1.81-.87,4.07-3.31,5.11-5.19,2.69-4.86.64-21.24,1.07-29.67.14-2.81.41-4.57.41-4.57Z"/><path class="cls-7" d="m90.07,107.81s.2.96.5,1.4c0,0-.34.37-.71,1.75"/><path class="cls-7" d="m91.07,103.64s1.5,1.73,2.87,2.66"/><path class="cls-7" d="m94.07,102s1.76,1.65,3.72,2.5"/><path class="cls-7" d="m98.07,100.9s1.46,1.74,3.06,2.23"/></g><g><path class="cls-8" d="m71.13,83.44c-.9,2.73-3.93,10.02-7.71,10.67.79-2.05,1.92-2.54.9-4.28-7.82-13.27,1.91-24.72,3.33-23.47.73.64,6.53,7.79,3.48,17.08Z"/><path class="cls-7" d="m36.72,73.56s-1.93,3.64.37,6.8"/><path class="cls-7" d="m68.93,74.25s2.29,4.01-.06,7.12"/><g><path class="cls-4" d="m68.18,63.8c-1.09,3.19-3.38,8.73-.44,9.74,2.94,1.01,6.14-.19,9.04-6.37,1.43-3.05.27-7.14-2.68-8.15-2.94-1.01-4.84,1.58-5.93,4.78Z"/><path class="cls-4" d="m37.79,63.85c1.04,3.21,3.23,8.79.26,9.74-2.96.96-6.14-.3-8.93-6.53-1.38-3.08-.14-7.14,2.82-8.1,2.96-.96,4.81,1.67,5.85,4.88Z"/><path class="cls-1" d="m72.76,51.28c-.53-14.66-8.9-21.53-19.11-21.82-10.33-.28-19.41,5.85-20.15,21.02-.6,12.2,2.52,26.91,9.9,33.68,6.76,6.21,14.91,2.91,17.16,1.35,8.44-5.85,12.68-20.95,12.2-34.23Z"/><path class="cls-7" d="m40.12,59.19s3.29-2.91,7.04-.42"/><path class="cls-7" d="m65.65,59.44s-3.13-2.99-7.04-.6"/><path class="cls-10" d="m63.48,63.87c-.01,1.21-.84,2.18-1.85,2.17-1.01,0-1.82-1-1.81-2.21.01-1.21.84-2.18,1.85-2.17,1.01,0,1.82,1,1.81,2.21Z"/><path class="cls-10" d="m46.11,63.71c-.01,1.21-.84,2.18-1.85,2.17-1.01,0-1.82-1-1.81-2.21.01-1.21.84-2.18,1.85-2.17,1.01,0,1.82,1,1.81,2.21Z"/><path class="cls-7" d="m34.1,62.74s1.86,22.96,17.87,25.04"/><path class="cls-7" d="m71.49,61.66s-.2,23.3-17.03,26.13"/><line class="cls-7" x1="52.96" y1="70.75" x2="52.95" y2="71.83"/><path class="cls-3" d="m57.23,76.81c-4.22,9.34-8.48.07-8.48.07l8.48-.07Z"/></g><g><path class="cls-9" d="m43.26,31.25c-15.38,8.13-9.38,29.08-9.38,29.08,4.87-5.75,6.54-8.38,11.54-19.68,1.75,7.31,11.14,14.82,26.87,19,0,0,5.7-19.19-9.09-28.19-6.05-3.68-13.69-3.51-19.95-.21Z"/><path class="cls-7" d="m55.77,28.88c-3.51-.76-8.68.63-11.38,1.83-17.45,7.74-10.46,29.52-10.46,29.52,4.64-6.16,7.01-7.96,11.8-19.57,1.75,7.31,11.14,14.82,26.87,19,0,0,4.59-18.77-8.92-27.74-1.51-1-3.77-1.92-5.47-2.45"/><path class="cls-7" d="m65.68,42.48s7.02,7.16,6.94,16.32"/><path class="cls-7" d="m36.26,43.98s-1.5,1.83-1.87,7.03"/><path class="cls-7" d="m60.99,47.4s1.24,3.05,3.99,4.76"/></g></g></g><g><path class="cls-2" d="m143.79,124.72c0,2.16-6.07,3.9-13.56,3.9s-13.13-1.49-13.13-3.65,5.65-4.16,13.13-4.16,13.56,1.75,13.56,3.9Z"/><path class="cls-2" d="m143.23,130.12c1.28,8.69-1.59,13.72-7.18,14.51-5.59.8-10.39-3.29-11.52-11.99-2.62-20.03.96-25.34,6.55-26.14,5.59-.8,8.93,1.73,12.15,23.62Z"/><path class="cls-2" d="m142.49,72.79s-7.83-.69-13.67,10.41c-1.96,3.72-3.64,8.97-4.52,15.39,0,0-5.42,22.77-7.23,25.91,0,0,8.84-5.62,25.19,2.26l.23-53.97Z"/><g><path class="cls-1" d="m142.91,133.98l-2.9,34.92h72.67l-2.9-34.92,3.81-41.85,1.64-17.97s-23.48-8.7-25.03-9.55c-6.22-3.41-20.69-2.36-27.69.07-1.68.58-25.03,9.48-25.03,9.48l1.84,20.24,3.6,39.58Z"/><path class="cls-6" d="m215.22,74.16s-23.48-8.7-25.03-9.55c-6.22-3.41-20.69-2.36-27.69.07-1.68.58-25.03,9.48-25.03,9.48"/><polyline class="cls-6" points="212.07 166.86 209.78 133.98 211.91 107.58"/><polyline class="cls-6" points="141.42 117.76 142.91 133.98 140.41 167.54"/><circle class="cls-2" cx="176.17" cy="83.65" r="2.05"/><circle class="cls-2" cx="176.17" cy="93.83" r="2.05"/><path class="cls-2" d="m188.81,76.64c-3.96-11.92-3.05-29.09-3.05-29.09h-18.82s1.38,16.35-2.85,29.09h24.72Z"/><path class="cls-2" d="m161.68,69.16c-.02,2.17-.18-3.33.55-5.61,1.03-3.24,4.44-4.5,4.42-4.27-.35,3.51,1.68,11.07,9.62,16.72.56.4-2.52,2.43-5.72,4.34-3.14,1.87-6.38,3.64-6.38,3.64-3.04-12.12-2.48-14.82-2.48-14.82Z"/><path class="cls-2" d="m190.86,69.16c.02,2.17.18-3.33-.55-5.61-1.03-3.24-4.44-4.5-4.42-4.27.35,3.51-1.68,11.07-9.62,16.72-.56.4,2.52,2.43,5.72,4.34,3.14,1.87,6.38,3.64,6.38,3.64,3.04-12.12,2.48-14.82,2.48-14.82Z"/></g><g><rect class="cls-4" x="165.28" y="120.94" width="22.15" height="14.36" rx="1.15" ry="1.15"/><rect class="cls-9" x="177.35" y="124.97" width="8.33" height=".59"/><rect class="cls-9" x="177.35" y="126.73" width="5.46" height=".59"/><rect class="cls-9" x="177.35" y="129.13" width="7.23" height=".59"/><rect class="cls-9" x="177.35" y="131.53" width="5.46" height=".59"/><rect class="cls-9" x="167.54" y="124.33" width="7.22" height="7.9"/><path class="cls-8" d="m167.01,56.27s-13.12,18.9-.01,45.14c2.8,5.61,7.67,11.2,7.67,11.2l-.37-3.41s-17.49-22.91-7.69-48.92l.4-4.01Z"/><path class="cls-8" d="m185.68,55.93s13.12,18.9.01,45.14c-2.8,5.61-7.67,11.2-7.67,11.2v-3.14s17.52-22.16,8.06-49.19l-.4-4.01Z"/><rect class="cls-5" x="174.72" y="108.94" width="3.3" height="6.34"/><path class="cls-4" d="m177.67,122.28h-2.59s-.63-6.87-.63-6.87c-.04-.34.34-.64.82-.64h2.21c.48,0,.86.3.82.64l-.62,6.87Z"/></g><g><path class="cls-2" d="m190.95,100.4s.46-3.7-3.1-3.23c0,0,.23-1.64-1.3-2.71-.7-.49-1.26-.85-2.6-.54,0,0,.57-2.4-.51-3.13-.79-.54-1.98-1.24-3.5,0-.61.5-2.27,1.46-3.16,2.35-.07-.04,1.14-1.4,1.07-1.42-1.35-.35-4.6.74-5.76,2.55-1.33,2.07-1.34,5.87-1.86,8.49-.91,4.56-1.69,7.72-1.69,7.72l1.83,5.49,5.51,1.74s6.34-3.06,7.74-3.83c3.51-1.94,6.09-3.25,7.46-5.71.56-1.02,1.53-3,1.53-3,0,0,1.87-3.6-1.64-4.75Z"/><path class="cls-6" d="m176.78,93.13s-2.72,2.94-2.91,4.79"/></g><g><path class="cls-1" d="m170.45,107.98s-16.15,9.31-23.89,12.79c-7.63,3.43-11.83,7.17-15.02,9.28l2.2,6.51,2.55,7.98c8.13-.79,25.53-15.95,25.53-15.95l14.12-11.48-3.05-4.7-2.43-4.41Z"/><path class="cls-6" d="m168.42,108.32s-14.11,8.97-21.86,12.45c-7.63,3.43-9.99,4.31-13.19,6.42"/><path class="cls-6" d="m135.94,144.64c8.13-.79,25.87-16.07,25.87-16.07l14.35-11.06"/></g><path class="cls-6" d="m137.86,98.93s3.5,8.37,3.5,17.65c0,0-5.82-10.69-6.72-11.71"/><g><path class="cls-2" d="m237.85,108.98c-4.09,6.6-10.48,12.85-12.38,11.67-1.9-1.18-2.2-11.54,3.72-16.55,9.32-7.89,11.65-6.43,13.55-5.25,1.9,1.18-.81,3.53-4.9,10.13Z"/><g><path class="cls-2" d="m250.82,111.8c-1.68-3.55-7.7-10.59-12.28-14.82-3.2,4.57-7.53,4.64-11.64,13.24.72.69,3.81,2.29,6.25,6.45-1.66,2.32-4.7,14.27-8.71,22.07-1.19,2.31-3.82,4.19-4.83,5.43l8.67,7.37s28.31-27.51,22.53-39.73Z"/><path class="cls-6" d="m235.9,112.53s-3.2,4.29-4.44,7.46"/></g><g><path class="cls-1" d="m211.95,74.23s4.41-.73,13.28,7.49c0,0,10.05,13.11,17.87,17.2,0,0-12.01,9.26-17.45,21.98l-14.92-15.76,1.23-30.92Z"/><path class="cls-6" d="m214.24,73.78s2.92,1.36,5.83,3.78c6.74,5.62,17.43,18.49,23.27,21.45,0,0-11.42,7.71-17.95,21.64l-13.42-14.5-.91-3.66"/></g><g><path class="cls-1" d="m220.61,143.43l-3.49,1.85-5.89.65-.4,1.24c-2.01.38-7.14,3.25-7.99,3.83-.7.48-2.08,2.71-3.21,4.54-.97,1.55-2.18,2.89-2.18,2.89,0,0-1.2,1.84-.54,2.53.67.69,2.51-.48,2.51-.48,0,0,1.53-1.97,2.47-3.2.94-1.23,2.15-2.63,2.15-2.63,0,0,1.04-.48,2.95-1.05-1.31,1.05-2.91,2.59-3.34,3.08-.46.53-1.66,2.8-2.15,4.58-.47,1.71-1.72,3.39-1.72,3.39,0,0-.77,1.44.07,1.92.84.48,2.24-.69,2.24-.69,0,0,2.13-2.57,2.64-3.81.51-1.24,1.31-3.09,1.31-3.09l2.99-2.4-.99,1.2-3.02,6.84s-1.09,2.62-.24,3.1c.84.48,1.83-.36,2.37-.88.22-.21,1.39-2.53,2.01-3.65.9-1.64,1.72-2.39,1.72-2.39l1.86-2.72c.14.04-.13-.04,0,0l-1.32,4.9-1.06,2.22s-.93,2.03-.15,2.35c.78.32,1.58.04,1.58.04l3.42-5.27,2.19-3.2c3.88-.65,4.98-1.49,6.83-3.04,4.05-3.42,4.88-5.28,4.88-5.28l-8.51-7.37Z"/><path class="cls-6" d="m220.61,143.43l-3.49,1.85-5.8.73-.59,1.19c-2.01.38-7.03,3.22-7.87,3.8-.7.48-2.08,2.71-3.21,4.54-.97,1.55-2.18,2.89-2.18,2.89,0,0-1.2,1.84-.54,2.53.67.69,2.51-.48,2.51-.48,0,0,1.53-1.97,2.47-3.2.94-1.23,2.15-2.63,2.15-2.63,0,0,1.04-.48,2.95-1.05-1.31,1.05-2.91,2.59-3.34,3.08-.46.53-1.66,2.8-2.15,4.58-.47,1.71-1.72,3.39-1.72,3.39,0,0-.77,1.44.07,1.92.84.48,2.24-.69,2.24-.69,0,0,2.13-2.57,2.64-3.81.51-1.24,1.31-3.09,1.31-3.09l2.99-2.4-.99,1.2-3.02,6.84s-1.09,2.62-.24,3.1c.84.48,1.83-.36,2.37-.88.22-.21,1.39-2.53,2.01-3.65.9-1.64,1.72-2.39,1.72-2.39l1.86-2.72c.14.04-.13-.04,0,0l-1.32,4.9-1.06,2.22s-.93,2.03-.15,2.35c.78.32,1.58.04,1.58.04l3.42-5.27,2.19-3.2c3.88-.65,4.98-1.49,6.83-3.04,4.05-3.42,4.88-5.28,4.88-5.28"/></g></g><g><g><path class="cls-4" d="m160.69,37.44c1.05,3.15,3.25,8.61.34,9.58-2.9.97-6.04-.24-8.84-6.34-1.38-3.01-.2-7.02,2.7-7.99,2.9-.97,4.74,1.6,5.79,4.75Z"/><path class="cls-4" d="m192.8,37.44c-1.05,3.15-3.25,8.61-.34,9.58,2.9.97,6.04-.24,8.84-6.34,1.38-3.01.2-7.02-2.7-7.99-2.9-.97-4.74,1.6-5.79,4.75Z"/><path class="cls-1" d="m196.26,27.23c-.28,17.3-4,35.84-19.55,35.84-16.55,0-19.55-20.93-19.55-35.84S166.44,1.82,177.24,1.82s19.27,10.5,19.02,25.41Z"/><path class="cls-7" d="m157.56,36.22s.76,24.33,17.74,26.79"/><path class="cls-7" d="m195.19,36.22s-.34,24.39-17.32,26.84"/><ellipse class="cls-10" cx="185.29" cy="36.63" rx="1.76" ry="1.92"/><ellipse class="cls-10" cx="168.13" cy="36.63" rx="1.76" ry="1.92"/><path class="cls-7" d="m171.1,31.36s-3.41-2.58-7.49.81"/><path class="cls-7" d="m182.17,31.36s3.41-2.58,7.49.81"/><line class="cls-7" x1="176.74" y1="45.62" x2="176.74" y2="46.69"/><path class="cls-3" d="m181.6,51.06c-1.68,2.75-3.3,4.25-4.71,4.26-2.82.01-4.82-4.21-4.82-4.21l9.54-.05Z"/></g><g><path class="cls-8" d="m195.31,9.43c-2.32-3.2-4.58-6.08-9.54-7.49-7.95-2.26-14.83-1.65-18.42,3.59-3.1,0-5.87-.5-9.4,3.89-2.08,2.6-4.39,5.81-4.39,10.57,0,6.95,1.73,11.35,3.97,13.79.21.23,1.06-7.23,4.78-13.47,2.3-2.41,7.07-7.59,7.24-7.6,1.68,3.17,7.08,8.7,13.58,11.75,0,0,7.38,2.46,10.48,1.46,1.81,3.64,1.77,7.54,1.98,7.3,2.23-2.44,3.2-7.07,3.2-14.02,0-3.34-.03-5.02-3.48-9.79Z"/><path class="cls-7" d="m169.21,12.12s-.95,3.38,1.4,6.51"/><path class="cls-7" d="m186.53,17.67s5.56,2.77,7.17,8.55"/><path class="cls-7" d="m192.91,14.95s2.94,1.78,4.08,6.02"/><path class="cls-7" d="m167.31,5.48s1.82,2.6,1.9,6.63"/><path class="cls-7" d="m168.68,8.58s-3.79-.56-6.36,1.75"/><path class="cls-7" d="m177.78,8.75s-4.38-2.34-8.76,1.58"/><path class="cls-7" d="m175.08,3.94s-3.98-.57-6.59,3.08"/></g></g></g></g></svg>