<?xml version="1.0" encoding="UTF-8"?><svg id="_レイヤー_2" xmlns="http://www.w3.org/2000/svg" viewBox="0 0 92.74 63.54"><defs><style>.cls-1,.cls-2,.cls-3,.cls-4{fill:#fff;}.cls-5,.cls-6,.cls-2,.cls-3,.cls-7,.cls-8,.cls-4{stroke:#191919;stroke-linecap:round;stroke-linejoin:round;}.cls-5,.cls-2{stroke-width:.51px;}.cls-5,.cls-8{fill:none;}.cls-6,.cls-9{fill:#b7cdda;}.cls-6,.cls-3,.cls-7,.cls-8{stroke-width:.51px;}.cls-7{fill:#9fd0c7;}.cls-10{fill:#191919;}.cls-4{stroke-width:.38px;}</style></defs><g id="_テキスト"><g><g><path class="cls-3" d="m8.26,52.82c-.2.77-2.14.94-4.35.37s-3.83-1.64-3.64-2.41c.2-.77,2.14-.94,4.35-.37,2.21.56,3.83,1.64,3.64,2.41Z"/><path class="cls-3" d="m8.19,52.47c-.56,6.74-3.2,5.5-4.74,5.24-1.54-.26-1.87-2.33-1.31-5.51,1.28-7.32,3.42-9.55,4.96-9.31,3.12.49,1.77,1.47,1.1,9.58Z"/><path class="cls-3" d="m8.35,36s-3.06.68-5.31,8.03l-2.69,6.41s4.78-.03,7.93,2.49l1.93-9.8-1.87-7.13Z"/></g><g><path class="cls-3" d="m30.78,52.8c.2.77,2.14.94,4.35.37s3.83-1.64,3.64-2.41c-.2-.77-2.14-.94-4.35-.37-2.21.56-3.83,1.64-3.64,2.41Z"/><path class="cls-3" d="m30.58,52.53c-.73,6.73,2.1,6.01,3.66,6.05,1.56.04,2.28-1.93,2.34-5.16.14-7.43-1.53-10.03-3.09-10.08-3.16-.11-2.02,1.1-2.9,9.19Z"/><path class="cls-3" d="m30.68,35.98s3.06.68,5.31,8.03l2.69,6.41s-4.78-.03-7.93,2.49l-1.93-9.8,1.87-7.13Z"/></g><g><path class="cls-1" d="m8.03,62.53h22.74l-.36-5.32.73-21.05s-6.35-2.41-6.89-2.7c-2.13-1.17-7.1-.81-9.5.02-.57.2-6.69,2.65-6.69,2.65l.27,21.07-.31,5.32Z"/><path class="cls-8" d="m31.15,36.16s-6.35-2.41-6.89-2.7c-2.13-1.17-7.1-.81-9.5.02-.57.2-6.69,2.65-6.69,2.65"/><polyline class="cls-8" points="7.9 62.28 8.34 57.21 8.54 50.66 8.29 47.04"/><polyline class="cls-8" points="30.84 49.33 30.42 57.21 30.75 62.34"/><circle class="cls-3" cx="19.45" cy="39.98" r=".7"/><path class="cls-3" d="m20.16,43.34c0,.39-.32.7-.7.7s-.7-.32-.7-.7.32-.7.7-.7.7.32.7.7Z"/><path class="cls-3" d="m23.79,37.58c-1.36-4.08-1.05-9.96-1.05-9.96h-6.45s.47,5.6-.98,9.96h8.48Z"/><path class="cls-3" d="m14.48,35.02c0,.74-.06-1.14.19-1.92.35-1.11,1.52-1.54,1.52-1.46-.12,1.2.58,3.79,3.3,5.73.19.14-.86.5-1.95,1.15-1.08.64-2.2,1.31-2.2,1.31-1.04-4.15-.85-4.8-.85-4.8Z"/><path class="cls-3" d="m24.49,35.02c0,.74.06-1.14-.19-1.92-.35-1.11-1.52-1.54-1.52-1.46.12,1.2-.58,3.79-3.3,5.73-.19.14.88.5,1.97,1.15,1.08.64,2.18,1.31,2.18,1.31,1.04-4.15.85-4.8.85-4.8Z"/></g><g><rect class="cls-6" x="9.02" y="41.98" width="15.18" height="20.69" transform="translate(-4.46 1.63) rotate(-4.95)"/><circle class="cls-7" cx="13.22" cy="43.51" r=".61"/><path class="cls-7" d="m18.94,43.1c0,.34-.27.61-.61.61s-.61-.27-.61-.61.27-.61.61-.61.61.27.61.61Z"/></g><g><path class="cls-3" d="m22.75,50.78c.46,0,1.16.35,1.46.46.6.22,1.73.04,1.5.64-.18.48-.28.36-.28.36.24.21.55.94,0,1.19,0,0,.56.29.06,1.12,0,0,.54.68.01,1.37,0,0,.43.74.01,1.13,0,0-1.4.55-2.79.47-.67-.04-1.54,0-2.34-.13-1.4-.24-2.64-.7-2.69-.69l-.26-1.87v-1.88s1.39-.71,3.02-1.3c1.08-.39,1.87-.86,2.29-.86Z"/><path class="cls-8" d="m25.41,54.63s-1.03.14-1.31.11"/><path class="cls-8" d="m25.57,55.94s-.98.14-1.4.15"/><path class="cls-8" d="m25.58,52.24s-2.14,0-2.64-.12"/><line class="cls-8" x1="23.98" y1="53.58" x2="25.41" y2="53.49"/></g><g><path class="cls-1" d="m18.07,52.91l-6.84.38s-3.71-.21-5.62-.25l-3.68.82s-.89,3.41.73,4.16c1.62.75,3.42.67,3.42.67l7.32-1.17,4.79-.83-.12-3.79Z"/><path class="cls-8" d="m17.85,52.81l-6.62.49s-3.71-.21-5.62-.25"/><path class="cls-8" d="m1.94,53.47s-.91,3.78.72,4.53c1.62.75,3.42.7,3.42.7l7.32-1.17,4.75-.74"/></g><g><path class="cls-3" d="m35.12,37.81c.56.28,1.79.39,1.98-.02.19-.41-.28-1.46-.89-1.3-.82.22-1.57-.49-1.76-.08-.19.41.1,1.12.66,1.41Z"/><path class="cls-3" d="m36.73,44.65c1.6-1.28,2.39-5.27,2.39-5.27.19-.82-.03-1.25-.03-1.25-.24-.34-.71-.5-.99-.75-.6-.53-1.12-.95-1.12-.95-.79-.56-1.02.64-1.02.64-.66-.25-1.1.43-1.1.43-.81-.21-.86.47-1.06.48-.2,0-.64.15-.64.15-.22.19-.75.58-.75,1.2,0,.6-.1,1.31.55,1.55-.48,1.25.03,3.4.03,3.4.15.73.11.87-.22,1.91-1.16,3.61-2.83,10.85-1.09,12.22.91.71,1.82,1.14,2.63.74.67-.32,1.5-1.22,1.88-1.91.99-1.79.23-7.81.39-10.91.05-1.03.15-1.68.15-1.68Z"/><path class="cls-8" d="m33.11,39.63s.07.35.19.51c0,0-.13.14-.26.64"/><path class="cls-8" d="m33.48,38.1s.55.63,1.06.98"/><path class="cls-8" d="m34.58,37.5s.65.61,1.37.92"/><path class="cls-8" d="m36.05,37.09s.54.64,1.13.82"/></g><g><path class="cls-6" d="m26.15,30.67c-.33,1-1.44,3.68-2.83,3.92.29-.75.71-.93.33-1.57-2.87-4.88.7-9.09,1.22-8.63.27.24,2.4,2.86,1.28,6.28Z"/><path class="cls-8" d="m13.5,27.04s-.71,1.34.14,2.5"/><path class="cls-8" d="m25.34,27.29s.84,1.47-.02,2.62"/><g><path class="cls-3" d="m25.06,23.45c-.4,1.17-1.24,3.21-.16,3.58,1.08.37,2.26-.07,3.32-2.34.53-1.12.1-2.62-.98-2.99-1.08-.37-1.78.58-2.18,1.76Z"/><path class="cls-3" d="m13.89,23.47c.38,1.18,1.19,3.23.1,3.58-1.09.35-2.26-.11-3.28-2.4-.51-1.13-.05-2.62,1.04-2.98,1.09-.35,1.77.61,2.15,1.79Z"/><path class="cls-1" d="m26.75,18.85c-.19-5.39-3.27-7.92-7.02-8.02-3.8-.1-7.13,2.15-7.41,7.73-.22,4.49.93,9.89,3.64,12.38,2.49,2.28,5.48,1.07,6.31.49,3.1-2.15,4.66-7.7,4.48-12.58Z"/><path class="cls-8" d="m14.75,21.76s1.21-1.07,2.59-.16"/><path class="cls-8" d="m24.13,21.85s-1.15-1.1-2.59-.22"/><path class="cls-10" d="m23.33,23.48c0,.44-.31.8-.68.8-.37,0-.67-.37-.67-.81,0-.44.31-.8.68-.8.37,0,.67.37.67.81Z"/><path class="cls-10" d="m16.95,23.42c0,.44-.31.8-.68.8-.37,0-.67-.37-.67-.81s.31-.8.68-.8.67.37.67.81Z"/><path class="cls-8" d="m12.53,23.07s.68,8.44,6.57,9.2"/><path class="cls-8" d="m26.28,22.67s-.08,8.56-6.26,9.61"/><line class="cls-8" x1="19.47" y1="26.01" x2="19.46" y2="26.4"/><path class="cls-4" d="m21.04,28.24c-1.55,3.43-3.12.03-3.12.03l3.12-.03Z"/></g><g><path class="cls-9" d="m15.9,11.49c-5.65,2.99-3.45,10.69-3.45,10.69,1.79-2.11,2.4-3.08,4.24-7.24.64,2.69,4.09,5.45,9.88,6.98,0,0,2.09-7.06-3.34-10.36-2.22-1.35-5.03-1.29-7.33-.08Z"/><path class="cls-8" d="m20.5,10.61c-1.29-.28-3.19.23-4.18.67-6.41,2.85-3.85,10.85-3.85,10.85,1.7-2.26,2.58-2.93,4.34-7.19.64,2.69,4.09,5.45,9.88,6.98,0,0,1.69-6.9-3.28-10.2-.55-.37-1.38-.71-2.01-.9"/><path class="cls-8" d="m24.14,15.62s2.58,2.63,2.55,6"/><path class="cls-8" d="m13.33,16.17s-.55.67-.69,2.58"/><path class="cls-8" d="m22.42,17.43s.46,1.12,1.47,1.75"/></g></g></g><g><path class="cls-2" d="m52.86,45.85c0,.79-2.23,1.43-4.98,1.43s-4.83-.55-4.83-1.34,2.08-1.53,4.83-1.53,4.98.64,4.98,1.43Z"/><path class="cls-2" d="m52.65,47.83c.47,3.19-.58,5.04-2.64,5.34-2.05.29-3.82-1.21-4.24-4.41-.96-7.36.35-9.32,2.41-9.61,2.05-.29,3.28.64,4.47,8.68Z"/><path class="cls-2" d="m52.38,26.76s-2.88-.26-5.02,3.83c-.72,1.37-1.34,3.3-1.66,5.66,0,0-1.99,8.37-2.66,9.52,0,0,3.25-2.07,9.26.83l.08-19.84Z"/><g><path class="cls-1" d="m52.53,49.25l-1.06,12.84h26.71l-1.06-12.84,1.4-15.38.6-6.61s-8.63-3.2-9.2-3.51c-2.29-1.25-7.61-.87-10.18.03-.62.21-9.2,3.48-9.2,3.48l.68,7.44,1.32,14.55Z"/><path class="cls-5" d="m79.12,27.26s-8.63-3.2-9.2-3.51c-2.29-1.25-7.61-.87-10.18.03-.62.21-9.2,3.48-9.2,3.48"/><polyline class="cls-5" points="77.96 61.34 77.11 49.25 77.9 39.55"/><polyline class="cls-5" points="51.98 43.29 52.53 49.25 51.61 61.59"/><circle class="cls-2" cx="64.76" cy="30.75" r=".76"/><circle class="cls-2" cx="64.76" cy="34.49" r=".76"/><path class="cls-2" d="m69.41,28.17c-1.46-4.38-1.12-10.7-1.12-10.7h-6.92s.51,6.01-1.05,10.7h9.09Z"/><path class="cls-2" d="m59.43,25.42c0,.8-.06-1.23.2-2.06.38-1.19,1.63-1.65,1.62-1.57-.13,1.29.62,4.07,3.54,6.15.21.15-.93.89-2.1,1.6-1.15.69-2.35,1.34-2.35,1.34-1.12-4.45-.91-5.45-.91-5.45Z"/><path class="cls-2" d="m70.16,25.42c0,.8.06-1.23-.2-2.06-.38-1.19-1.63-1.65-1.62-1.57.13,1.29-.62,4.07-3.54,6.15-.21.15.93.89,2.1,1.6,1.15.69,2.35,1.34,2.35,1.34,1.12-4.45.91-5.45.91-5.45Z"/></g><g><rect class="cls-3" x="60.76" y="44.46" width="8.14" height="5.28" rx=".42" ry=".42"/><rect class="cls-9" x="65.19" y="45.94" width="3.06" height=".22"/><rect class="cls-9" x="65.19" y="46.59" width="2.01" height=".22"/><rect class="cls-9" x="65.19" y="47.47" width="2.66" height=".22"/><rect class="cls-9" x="65.19" y="48.35" width="2.01" height=".22"/><rect class="cls-9" x="61.59" y="45.7" width="2.65" height="2.9"/><path class="cls-6" d="m61.39,20.69s-4.82,6.95,0,16.59c1.03,2.06,2.82,4.12,2.82,4.12l-.14-1.25s-6.43-8.42-2.83-17.98l.15-1.48Z"/><path class="cls-6" d="m68.26,20.56s4.82,6.95,0,16.59c-1.03,2.06-2.82,4.12-2.82,4.12v-1.15s6.44-8.14,2.96-18.08l-.15-1.48Z"/><rect class="cls-7" x="64.23" y="40.05" width="1.21" height="2.33"/><path class="cls-3" d="m65.31,44.95h-.95s-.23-2.52-.23-2.52c-.01-.13.12-.23.3-.23h.81c.18,0,.32.11.3.23l-.23,2.52Z"/></g><g><path class="cls-2" d="m70.19,36.91s.17-1.36-1.14-1.19c0,0,.08-.6-.48-.99-.26-.18-.46-.31-.96-.2,0,0,.21-.88-.19-1.15-.29-.2-.73-.46-1.29,0-.23.18-.83.54-1.16.86-.03-.01.42-.51.39-.52-.5-.13-1.69.27-2.12.94-.49.76-.49,2.16-.69,3.12-.33,1.67-.62,2.84-.62,2.84l.67,2.02,2.03.64s2.33-1.12,2.85-1.41c1.29-.71,2.24-1.2,2.74-2.1.21-.37.56-1.1.56-1.1,0,0,.69-1.32-.6-1.75Z"/><path class="cls-5" d="m64.99,34.23s-1,1.08-1.07,1.76"/></g><g><path class="cls-1" d="m62.66,39.69s-5.94,3.42-8.78,4.7c-2.8,1.26-4.35,2.64-5.52,3.41l.81,2.39.94,2.93c2.99-.29,9.39-5.86,9.39-5.86l5.19-4.22-1.12-1.73-.89-1.62Z"/><path class="cls-5" d="m61.91,39.82s-5.19,3.3-8.04,4.58c-2.8,1.26-3.67,1.58-4.85,2.36"/><path class="cls-5" d="m49.97,53.17c2.99-.29,9.51-5.91,9.51-5.91l5.27-4.07"/></g><path class="cls-5" d="m50.68,36.36s1.29,3.08,1.29,6.49c0,0-2.14-3.93-2.47-4.3"/><g><path class="cls-2" d="m87.43,40.06c-1.5,2.42-3.85,4.72-4.55,4.29-.7-.43-.81-4.24,1.37-6.08,3.43-2.9,4.28-2.36,4.98-1.93.7.43-.3,1.3-1.8,3.72Z"/><g><path class="cls-2" d="m92.2,41.1c-.62-1.31-2.83-3.89-4.51-5.45-1.18,1.68-2.77,1.71-4.28,4.87.27.25,1.4.84,2.3,2.37-.61.85-1.73,5.24-3.2,8.11-.44.85-1.41,1.54-1.78,2l3.19,2.71s10.41-10.11,8.28-14.6Z"/><path class="cls-5" d="m86.72,41.36s-1.17,1.58-1.63,2.74"/></g><g><path class="cls-1" d="m77.91,27.29s1.62-.27,4.88,2.75c0,0,3.69,4.82,6.57,6.32,0,0-4.41,3.4-6.42,8.08l-5.49-5.79.45-11.37Z"/><path class="cls-5" d="m78.75,27.12s1.07.5,2.14,1.39c2.48,2.07,6.41,6.8,8.56,7.88,0,0-4.2,2.83-6.6,7.95l-4.93-5.33-.33-1.35"/></g><g><path class="cls-1" d="m81.1,52.73l-1.28.68-2.16.24-.15.46c-.74.14-2.62,1.19-2.94,1.41-.26.18-.76,1-1.18,1.67-.36.57-.8,1.06-.8,1.06,0,0-.44.68-.2.93.25.25.92-.18.92-.18,0,0,.56-.72.91-1.18.35-.45.79-.97.79-.97,0,0,.38-.18,1.09-.39-.48.39-1.07.95-1.23,1.13-.17.2-.61,1.03-.79,1.68-.17.63-.63,1.25-.63,1.25,0,0-.28.53.03.71.31.18.82-.25.82-.25,0,0,.78-.95.97-1.4.19-.46.48-1.14.48-1.14l1.1-.88-.36.44-1.11,2.51s-.4.96-.09,1.14c.31.18.67-.13.87-.32.08-.08.51-.93.74-1.34.33-.6.63-.88.63-.88l.68-1c.05.02-.05-.01,0,0l-.48,1.8-.39.82s-.34.75-.05.86c.29.12.58.02.58.02l1.26-1.94.8-1.18c1.43-.24,1.83-.55,2.51-1.12,1.49-1.26,1.79-1.94,1.79-1.94l-3.13-2.71Z"/><path class="cls-5" d="m81.1,52.73l-1.28.68-2.13.27-.22.44c-.74.14-2.58,1.18-2.89,1.4-.26.18-.76,1-1.18,1.67-.36.57-.8,1.06-.8,1.06,0,0-.44.68-.2.93.25.25.92-.18.92-.18,0,0,.56-.72.91-1.18.35-.45.79-.97.79-.97,0,0,.38-.18,1.09-.39-.48.39-1.07.95-1.23,1.13-.17.2-.61,1.03-.79,1.68-.17.63-.63,1.25-.63,1.25,0,0-.28.53.03.71.31.18.82-.25.82-.25,0,0,.78-.95.97-1.4.19-.46.48-1.14.48-1.14l1.1-.88-.36.44-1.11,2.51s-.4.96-.09,1.14c.31.18.67-.13.87-.32.08-.08.51-.93.74-1.34.33-.6.63-.88.63-.88l.68-1c.05.02-.05-.01,0,0l-.48,1.8-.39.82s-.34.75-.05.86c.29.12.58.02.58.02l1.26-1.94.8-1.18c1.43-.24,1.83-.55,2.51-1.12,1.49-1.26,1.79-1.94,1.79-1.94"/></g></g><g><g><path class="cls-3" d="m59.07,13.76c.39,1.16,1.19,3.17.13,3.52-1.07.36-2.22-.09-3.25-2.33-.51-1.11-.07-2.58.99-2.94,1.07-.36,1.74.59,2.13,1.74Z"/><path class="cls-3" d="m70.87,13.76c-.39,1.16-1.19,3.17-.13,3.52,1.07.36,2.22-.09,3.25-2.33.51-1.11.07-2.58-.99-2.94-1.07-.36-1.74.59-2.13,1.74Z"/><path class="cls-1" d="m72.14,10.01c-.1,6.36-1.47,13.17-7.19,13.17-6.09,0-7.19-7.69-7.19-13.17s3.41-9.34,7.38-9.34,7.08,3.86,6.99,9.34Z"/><path class="cls-8" d="m57.92,13.32s.28,8.94,6.52,9.85"/><path class="cls-8" d="m71.75,13.32s-.13,8.96-6.37,9.87"/><ellipse class="cls-10" cx="68.11" cy="13.46" rx=".65" ry=".71"/><ellipse class="cls-10" cx="61.81" cy="13.46" rx=".65" ry=".71"/><path class="cls-8" d="m62.9,11.53s-1.25-.95-2.75.3"/><path class="cls-8" d="m66.97,11.53s1.25-.95,2.75.3"/><line class="cls-8" x1="64.97" y1="16.77" x2="64.97" y2="17.16"/><path class="cls-4" d="m66.76,18.77c-.62,1.01-1.21,1.56-1.73,1.57-1.04,0-1.77-1.55-1.77-1.55l3.51-.02Z"/></g><g><path class="cls-6" d="m71.8,3.47c-.85-1.18-1.68-2.24-3.51-2.75-2.92-.83-5.45-.61-6.77,1.32-1.14,0-2.16-.18-3.45,1.43-.77.95-1.61,2.14-1.61,3.89,0,2.55.64,4.17,1.46,5.07.08.08.39-2.66,1.76-4.95.85-.88,2.6-2.79,2.66-2.79.62,1.16,2.6,3.2,4.99,4.32,0,0,2.71.91,3.85.54.67,1.34.65,2.77.73,2.69.82-.9,1.17-2.6,1.17-5.15,0-1.23-.01-1.85-1.28-3.6Z"/><path class="cls-8" d="m62.2,4.45s-.35,1.24.52,2.39"/><path class="cls-8" d="m68.57,6.5s2.04,1.02,2.64,3.14"/><path class="cls-8" d="m70.91,5.5s1.08.65,1.5,2.21"/><path class="cls-8" d="m61.5,2.02s.67.95.7,2.44"/><path class="cls-8" d="m62.01,3.15s-1.39-.21-2.34.64"/><path class="cls-8" d="m65.35,3.22s-1.61-.86-3.22.58"/><path class="cls-8" d="m64.36,1.45s-1.46-.21-2.42,1.13"/></g></g></g></g></svg>