<?xml version="1.0" encoding="UTF-8"?><svg id="_レイヤー_2" xmlns="http://www.w3.org/2000/svg" viewBox="0 0 210.52 88.39"><defs><style>.cls-1{fill:#61bccc;}</style></defs><g id="_テキスト"><g><path class="cls-1" d="m106.6,20.83c-.33,1.08-1.32,1.86-2.54,1.86-1.72,0-2.73-1.32-2.73-2.69,0-1.5,1.14-2.69,2.69-2.69,1.14,0,2.24.68,2.59,1.9h-.72c-.32-.86-1.13-1.26-1.84-1.26-.6,0-1.01.18-1.44.58-.34.33-.58.88-.58,1.47,0,1.2.91,2.03,2.01,2.03.97,0,1.63-.6,1.84-1.21h.73Z"/><path class="cls-1" d="m111.33,15.55h.7v2.74c.31-.67,1.1-.99,1.82-.97.8,0,1.33.26,1.68.7.35.44.48,1.06.48,1.79v2.74h-.69v-2.72c0-.55-.11-1.01-.37-1.34-.27-.33-.67-.52-1.28-.52-.56,0-.97.2-1.24.5-.27.3-.41.72-.41,1.18v2.9h-.7v-7Z"/><path class="cls-1" d="m121.14,15.55h.7v.97h-.7v-.97Zm0,1.91h.7v5.09h-.7v-5.09Z"/><path class="cls-1" d="m127,15.55h.7v4l2.29-2.09h.86l-2.45,2.23,2.56,2.86h-.82l-2.44-2.71v2.71h-.7v-7Z"/><path class="cls-1" d="m140.25,22.55h-.66v-.91c-.28.66-.97,1.06-1.88,1.05-1.59-.03-2.15-1.11-2.15-2.35v-2.89h.69v2.75c0,1.1.49,1.84,1.64,1.83,1.06,0,1.67-.64,1.67-1.7v-2.88h.7v5.09Z"/><path class="cls-1" d="m147.69,18.74c0-.54-.36-.84-.87-.84-.56,0-.9.38-.88.82.02.48.39.68,1,.86.73.2,1.54.41,1.58,1.49.04.94-.72,1.62-1.68,1.62-.82,0-1.73-.52-1.74-1.59h.69c.03.7.55,1.01,1.06,1.01.59,0,.99-.44.98-.96-.02-.58-.4-.81-1.28-1.07-.73-.22-1.3-.51-1.31-1.32,0-.92.73-1.46,1.59-1.46.71,0,1.5.39,1.55,1.42h-.69Z"/><path class="cls-1" d="m153.44,15.55h.7v2.74c.31-.67,1.1-.99,1.82-.97.8,0,1.33.26,1.68.7.35.44.48,1.06.48,1.79v2.74h-.69v-2.72c0-.55-.11-1.01-.37-1.34-.27-.33-.67-.52-1.28-.52-.56,0-.97.2-1.24.5-.27.3-.41.72-.41,1.18v2.9h-.7v-7Z"/><path class="cls-1" d="m163.24,15.55h.7v.97h-.7v-.97Zm0,1.91h.7v5.09h-.7v-5.09Z"/><path class="cls-1" d="m169.09,17.46h.66c0,.28,0,.57,0,.91.29-.66.98-1.07,1.89-1.05,1.58.02,2.14,1.1,2.14,2.34v2.9h-.69v-2.75c0-1.1-.49-1.84-1.64-1.83-1.05,0-1.66.64-1.66,1.7v2.88h-.7v-5.09Z"/><path class="cls-1" d="m178.59,20c0-1.42,1.06-2.68,2.7-2.68s2.71,1.26,2.71,2.69-1.06,2.68-2.71,2.68-2.7-1.25-2.7-2.68h0Zm.69,0c0,1.15.88,2.02,2.01,2.02s2.01-.87,2.01-2.03-.87-2.03-2.01-2.03-2.01.87-2.01,2.03h0Z"/></g><g><path class="cls-1" d="m106.4,46.86c0-.96-.64-1.5-1.55-1.5-1,0-1.6.67-1.57,1.47.03.86.69,1.22,1.79,1.54,1.3.35,2.75.73,2.82,2.67.07,1.67-1.28,2.89-3.01,2.89-1.47,0-3.09-.93-3.11-2.84h1.23c.05,1.25.98,1.81,1.89,1.81,1.05,0,1.77-.78,1.76-1.7-.03-1.03-.71-1.45-2.28-1.91-1.3-.39-2.31-.91-2.35-2.35,0-1.64,1.3-2.6,2.84-2.6,1.27,0,2.69.69,2.77,2.53h-1.23Z"/><path class="cls-1" d="m116.67,41.17h1.25v1.74h-1.25v-1.74Zm0,3.41h1.25v9.09h-1.25v-9.09Z"/><path class="cls-1" d="m127.12,44.58h1.18c0,.51,0,1.01-.02,1.62.52-1.18,1.76-1.91,3.38-1.87,2.82.03,3.82,1.96,3.82,4.17v5.17h-1.23v-4.91c0-1.96-.88-3.29-2.92-3.26-1.87.02-2.96,1.15-2.96,3.04v5.13h-1.25v-9.09Z"/><path class="cls-1" d="m144.88,45.58h-1.34v-1h1.34v-.74c0-2.8,2.21-2.89,3.19-2.89v1c-.62.03-1.96.03-1.96,2.01v.63h1.96v1h-1.96v8.09h-1.23v-8.09Z"/><path class="cls-1" d="m155.13,49.11c0-2.53,1.89-4.78,4.81-4.78s4.83,2.25,4.83,4.8-1.89,4.78-4.83,4.78-4.81-2.23-4.81-4.78v-.02Zm1.23.03c0,2.06,1.57,3.61,3.58,3.61s3.58-1.55,3.58-3.63-1.55-3.63-3.58-3.63-3.58,1.55-3.58,3.63v.02Z"/><path class="cls-1" d="m173.42,44.58h1.18c0,.51,0,1.01-.02,1.62.52-1.18,1.76-1.91,3.38-1.87,2.82.03,3.82,1.96,3.82,4.17v5.17h-1.23v-4.91c0-1.96-.88-3.29-2.92-3.26-1.87.02-2.96,1.15-2.96,3.04v5.13h-1.25v-9.09Z"/><path class="cls-1" d="m190.96,41.17h1.25v1.74h-1.25v-1.74Zm0,3.41h1.25v9.09h-1.25v-9.09Z"/><path class="cls-1" d="m210.52,53.67h-1.25v-1.87c-.71,1.37-2.09,2.13-3.71,2.13-2.96,0-4.71-2.3-4.71-4.8,0-2.67,1.94-4.8,4.71-4.8,1.94,0,3.28,1.13,3.71,2.16v-1.91h1.25v9.09Zm-8.44-4.53c.02,1.64,1.15,3.61,3.65,3.61,1.6,0,2.79-.93,3.28-2.21.2-.44.31-.95.31-1.44.02-.51-.09-1.01-.29-1.45-.51-1.25-1.72-2.18-3.33-2.18-2.09,0-3.61,1.62-3.61,3.65v.02Z"/><path class="cls-1" d="m106.4,69.58c0-.96-.64-1.5-1.55-1.5-1,0-1.6.67-1.57,1.47.03.86.69,1.22,1.79,1.54,1.3.35,2.75.73,2.82,2.67.07,1.67-1.28,2.89-3.01,2.89-1.47,0-3.09-.93-3.11-2.84h1.23c.05,1.25.98,1.81,1.89,1.81,1.05,0,1.77-.78,1.76-1.7-.03-1.03-.71-1.45-2.28-1.91-1.3-.39-2.31-.91-2.35-2.35,0-1.64,1.3-2.6,2.84-2.6,1.27,0,2.69.69,2.77,2.53h-1.23Z"/><path class="cls-1" d="m116.11,71.82c0-2.53,1.89-4.78,4.81-4.78s4.83,2.25,4.83,4.8-1.89,4.78-4.83,4.78-4.81-2.23-4.81-4.78v-.02Zm1.23.03c0,2.06,1.57,3.61,3.58,3.61s3.58-1.55,3.58-3.63-1.55-3.63-3.58-3.63-3.58,1.55-3.58,3.63v.02Z"/><path class="cls-1" d="m134.4,67.29h1.18v1.49c.66-1.35,1.84-1.71,2.91-1.74v1.23h-.12c-1.76,0-2.74,1.1-2.74,3.16v4.95h-1.23v-9.09Z"/><path class="cls-1" d="m155.01,76.38h-1.25v-1.87c-.71,1.37-2.09,2.13-3.71,2.13-2.96,0-4.71-2.3-4.71-4.8,0-2.67,1.94-4.8,4.71-4.8,1.94,0,3.28,1.13,3.71,2.16v-1.91h1.25v9.09Zm-8.44-4.53c.02,1.64,1.15,3.61,3.65,3.61,1.6,0,2.79-.93,3.28-2.21.2-.44.31-.95.31-1.44.02-.51-.09-1.01-.29-1.45-.51-1.25-1.72-2.18-3.33-2.18-2.09,0-3.61,1.62-3.61,3.65v.02Z"/></g><path class="cls-1" d="m44.2,0C19.79,0,0,19.79,0,44.2s19.79,44.2,44.2,44.2,44.2-19.79,44.2-44.2S68.6,0,44.2,0Zm0,80.97c-20.31,0-36.77-16.46-36.77-36.77S23.89,7.42,44.2,7.42s36.77,16.46,36.77,36.77-16.46,36.77-36.77,36.77Z"/><g><path class="cls-1" d="m35.59,18.16c4.47,5.35,4.66,12.52,1.78,21,4.64,4.18,11.06-4.53,12.53-14.43-1.55-.65-2.94.09-4.06,3.13-2.7-6.96-6.28-9.34-10.25-9.71Z"/><path class="cls-1" d="m19.93,38.51s4.68-1.86-.31-8.28c0,0-4.49,5.76.31,8.28Z"/><path class="cls-1" d="m16.12,37.19c8.81,4.89,10.81,18.1,10.81,18.1h-1.24c-1.57-9.01-5.37-13.92-9.89-17.53-4.6,3.43-8.03-3.55-8.03-3.55,7.46-2.14,8.26,1.8,8.34,2.98Z"/><path class="cls-1" d="m19.25,42.02s-1.96-5.11-8.97.25c0,0,6.2,4.94,8.97-.25Z"/><path class="cls-1" d="m22.2,47.32s-1.96-5.11-8.97.25c0,0,6.2,4.94,8.97-.25Z"/><path class="cls-1" d="m20.74,41.95c10.95,2.01.66,16.25,25.76,18.45,11.35,5.9,17.93,14.83,27.27-3.13-8.98.24-18.8-.85-21.93-4.06,9.75-.77,14-7.5,7.43-7.66,5.57-1.82,6.23-9.01.81-7.54,4.6-5.57,1.55-10.1-3.13-5.92,1.09-7-.72-11.15-4.18-13.69.12,9.17-3.05,20.43-10.33,23.56-7.39,3.17-8.7-6.77-14.51-6.5-4.46.21-3.91,4.26-7.19,6.5Zm5.26-2.85c0-.63.51-1.14,1.14-1.14s1.14.51,1.14,1.14-.51,1.14-1.14,1.14-1.14-.51-1.14-1.14Z"/></g></g></svg>