<?xml version="1.0" encoding="UTF-8"?><svg id="_レイヤー_2" xmlns="http://www.w3.org/2000/svg" viewBox="0 0 234.01 88.54"><defs><style>.cls-1{fill:#b5c97d;}</style></defs><g id="_テキスト"><g><path class="cls-1" d="m111.36,57.97h-1.22v-1.83c-.69,1.34-2.05,2.08-3.64,2.08-2.89,0-4.61-2.25-4.61-4.69,0-2.61,1.9-4.69,4.61-4.69,1.9,0,3.21,1.11,3.64,2.12v-1.87h1.22v8.89Zm-8.26-4.43c.02,1.6,1.12,3.54,3.57,3.54,1.57,0,2.73-.91,3.21-2.16.2-.43.3-.93.3-1.41.02-.5-.08-.99-.28-1.42-.5-1.22-1.69-2.13-3.26-2.13-2.05,0-3.54,1.59-3.54,3.57v.02Z"/><path class="cls-1" d="m119.54,45.74h1.22v12.23h-1.22v-12.23Z"/><path class="cls-1" d="m128.38,53.5c0-2.48,1.85-4.68,4.71-4.68s4.73,2.2,4.73,4.69-1.85,4.68-4.73,4.68-4.71-2.18-4.71-4.68v-.02Zm1.21.03c0,2.02,1.54,3.54,3.5,3.54s3.5-1.52,3.5-3.55-1.52-3.55-3.5-3.55-3.5,1.52-3.5,3.55v.02Z"/><path class="cls-1" d="m145.46,45.74h1.22v4.79c.55-1.17,1.92-1.74,3.17-1.7,1.41,0,2.33.45,2.94,1.22s.84,1.85.84,3.12v4.79h-1.21v-4.74c0-.96-.2-1.77-.64-2.35-.48-.58-1.17-.91-2.23-.91-.98,0-1.7.35-2.17.88-.48.53-.71,1.26-.71,2.07v5.06h-1.22v-12.23Z"/><path class="cls-1" d="m170.71,57.97h-1.22v-1.83c-.69,1.34-2.05,2.08-3.64,2.08-2.89,0-4.61-2.25-4.61-4.69,0-2.61,1.9-4.69,4.61-4.69,1.9,0,3.21,1.11,3.64,2.12v-1.87h1.22v8.89Zm-8.26-4.43c.02,1.6,1.12,3.54,3.57,3.54,1.57,0,2.73-.91,3.21-2.16.2-.43.3-.93.3-1.41.02-.5-.08-.99-.28-1.42-.5-1.22-1.69-2.13-3.26-2.13-2.05,0-3.54,1.59-3.54,3.57v.02Z"/><path class="cls-1" d="m187.88,45.74h1.22v6.99l4-3.65h1.5l-4.28,3.9,4.48,4.99h-1.44l-4.26-4.73v4.73h-1.22v-12.23Z"/><path class="cls-1" d="m202.04,45.74h1.22v1.7h-1.22v-1.7Zm0,3.34h1.22v8.89h-1.22v-8.89Z"/><path class="cls-1" d="m220.34,57.97h-1.17v-1.83c-.63,1.17-1.82,2.08-3.67,2.08-2.84,0-4.59-2.21-4.59-4.71,0-2.64,1.92-4.68,4.58-4.68,1.95,0,3.24,1.12,3.64,2.05v-5.14h1.22v12.23Zm-8.23-4.45c.02,1.79,1.26,3.55,3.57,3.55.99,0,1.9-.4,2.53-1.04.64-.66,1.03-1.57.99-2.56,0-1.01-.38-1.87-1.02-2.5-.63-.64-1.52-1.02-2.51-1.02-2.05,0-3.55,1.55-3.55,3.55v.02Z"/><path class="cls-1" d="m232.55,51.31c0-.94-.63-1.47-1.52-1.47-.98,0-1.57.66-1.54,1.44.03.84.68,1.19,1.75,1.5,1.27.35,2.69.71,2.76,2.61.07,1.64-1.26,2.83-2.94,2.83-1.44,0-3.02-.91-3.04-2.78h1.21c.05,1.22.96,1.77,1.85,1.77,1.03,0,1.74-.76,1.72-1.67-.03-1.01-.69-1.42-2.23-1.87-1.27-.38-2.26-.89-2.3-2.3,0-1.6,1.27-2.55,2.78-2.55,1.24,0,2.63.68,2.71,2.48h-1.21Z"/></g><g><path class="cls-1" d="m106.47,25.12c-.33,1.08-1.33,1.87-2.55,1.87-1.72,0-2.74-1.33-2.74-2.69,0-1.51,1.15-2.69,2.69-2.69,1.15,0,2.25.68,2.6,1.9h-.72c-.32-.86-1.13-1.26-1.85-1.26-.6,0-1.01.18-1.44.58-.34.33-.58.88-.58,1.47,0,1.2.91,2.04,2.01,2.04.98,0,1.63-.6,1.85-1.21h.73Z"/><path class="cls-1" d="m111.22,19.83h.7v2.75c.31-.67,1.1-.99,1.82-.98.81,0,1.34.26,1.69.7s.48,1.06.48,1.79v2.75h-.69v-2.72c0-.55-.11-1.01-.37-1.35-.27-.33-.67-.52-1.28-.52-.56,0-.98.2-1.24.5-.27.3-.41.72-.41,1.18v2.9h-.7v-7.01Z"/><path class="cls-1" d="m121.04,19.83h.7v.98h-.7v-.98Zm0,1.91h.7v5.1h-.7v-5.1Z"/><path class="cls-1" d="m126.91,19.83h.7v4.01l2.29-2.09h.86l-2.45,2.24,2.57,2.86h-.82l-2.44-2.71v2.71h-.7v-7.01Z"/><path class="cls-1" d="m140.19,26.85h-.66v-.91c-.28.66-.98,1.06-1.89,1.05-1.59-.03-2.15-1.11-2.15-2.35v-2.89h.69v2.76c0,1.1.49,1.84,1.64,1.83,1.06,0,1.67-.64,1.67-1.71v-2.88h.7v5.1Z"/><path class="cls-1" d="m147.63,23.03c0-.54-.36-.84-.87-.84-.56,0-.9.38-.88.82.02.48.39.68,1,.86.73.2,1.54.41,1.58,1.5.04.94-.72,1.62-1.69,1.62-.82,0-1.73-.52-1.74-1.59h.69c.03.7.55,1.01,1.06,1.01.59,0,.99-.44.99-.96-.02-.58-.4-.81-1.28-1.07-.73-.22-1.3-.51-1.32-1.32,0-.92.73-1.46,1.59-1.46.71,0,1.51.39,1.55,1.42h-.69Z"/><path class="cls-1" d="m153.39,19.83h.7v2.75c.31-.67,1.1-.99,1.82-.98.81,0,1.34.26,1.69.7s.48,1.06.48,1.79v2.75h-.69v-2.72c0-.55-.11-1.01-.37-1.35-.27-.33-.67-.52-1.28-.52-.56,0-.98.2-1.24.5-.27.3-.41.72-.41,1.18v2.9h-.7v-7.01Z"/><path class="cls-1" d="m163.21,19.83h.7v.98h-.7v-.98Zm0,1.91h.7v5.1h-.7v-5.1Z"/><path class="cls-1" d="m169.07,21.75h.66c0,.28,0,.57,0,.91.29-.66.99-1.07,1.9-1.05,1.58.02,2.14,1.1,2.14,2.34v2.9h-.69v-2.76c0-1.1-.49-1.85-1.64-1.83-1.05,0-1.66.64-1.66,1.71v2.88h-.7v-5.1Z"/><path class="cls-1" d="m178.59,24.29c0-1.42,1.06-2.68,2.7-2.68s2.71,1.26,2.71,2.69-1.06,2.68-2.71,2.68-2.7-1.25-2.7-2.68h0Zm.69,0c0,1.16.88,2.03,2.01,2.03s2.01-.87,2.01-2.04-.87-2.04-2.01-2.04-2.01.87-2.01,2.04h0Z"/></g><g><path class="cls-1" d="m106.27,73.95c0-.97-.64-1.51-1.56-1.51-1,0-1.61.68-1.57,1.47.03.86.69,1.22,1.79,1.54,1.3.36,2.76.73,2.83,2.67.07,1.68-1.29,2.89-3.01,2.89-1.47,0-3.09-.93-3.11-2.84h1.23c.05,1.25.98,1.81,1.9,1.81,1.05,0,1.78-.78,1.76-1.71-.03-1.03-.71-1.46-2.28-1.91-1.3-.39-2.32-.91-2.35-2.35,0-1.64,1.3-2.61,2.84-2.61,1.27,0,2.69.69,2.78,2.54h-1.23Z"/><path class="cls-1" d="m115.2,76.2c0-2.54,1.89-4.79,4.82-4.79s4.84,2.25,4.84,4.81-1.89,4.79-4.84,4.79-4.82-2.23-4.82-4.79v-.02Zm1.23.03c0,2.06,1.57,3.62,3.59,3.62s3.59-1.56,3.59-3.64-1.56-3.64-3.59-3.64-3.59,1.56-3.59,3.64v.02Z"/><path class="cls-1" d="m132.71,71.66h1.18v1.49c.66-1.35,1.84-1.71,2.91-1.74v1.24h-.12c-1.76,0-2.74,1.1-2.74,3.16v4.96h-1.23v-9.1Z"/><path class="cls-1" d="m152.55,80.77h-1.25v-1.88c-.71,1.37-2.1,2.13-3.72,2.13-2.96,0-4.72-2.3-4.72-4.81,0-2.67,1.95-4.81,4.72-4.81,1.94,0,3.28,1.13,3.72,2.17v-1.91h1.25v9.1Zm-8.46-4.53c.02,1.64,1.15,3.62,3.65,3.62,1.61,0,2.79-.93,3.28-2.22.2-.44.31-.95.31-1.44.02-.51-.09-1.01-.29-1.45-.51-1.25-1.73-2.18-3.33-2.18-2.1,0-3.62,1.62-3.62,3.65v.02Z"/></g><path class="cls-1" d="m44.27,0C19.82,0,0,19.82,0,44.27s19.82,44.27,44.27,44.27,44.27-19.82,44.27-44.27S68.72,0,44.27,0Zm0,81.1c-20.34,0-36.83-16.49-36.83-36.83S23.93,7.44,44.27,7.44s36.83,16.49,36.83,36.83-16.49,36.83-36.83,36.83Z"/><path class="cls-1" d="m42.16,30.73l-.02-.78c0-.31.23-.58.54-.58,1.86-.03,3.73.34,5.52,1.06.4.16.48.7.14.97-.63.52-1.24,1.06-1.84,1.63-.17.17-.43.2-.64.08l-3.41-1.91c-.17-.1-.28-.28-.29-.48Z"/><path class="cls-1" d="m56.11,37.36s0,0,0,0c.17.29.06.66-.24.81-1.42.68-2.82,1.42-4.18,2.2-.15.09-.34.1-.5.02l-3.55-1.66c-.2-.1-.33-.31-.32-.54l.1-2.81c0-.15.07-.29.17-.39,1.02-1,2.09-1.92,3.2-2.76.19-.14.45-.14.64,0,1.81,1.3,3.41,3.03,4.67,5.12Z"/><path class="cls-1" d="m28.86,28.05c-2.52-1.68-3.95-4.29-4.01-7.37-.02-1.13.25-2.2.53-3.33.09-.38.19-.76.28-1.16.18-.82.51-1.09.74-1.23l.06-.04c.22-.15.61-.32,1.4-.12.39.1.77.19,1.14.27,1.11.25,2.16.49,3.14,1.03,2.64,1.46,4.26,3.95,4.57,7.02.02.21.02.34.01.41-.09.03-.19.06-.28.09-.75.17-1.51.56-2.2.95-.38.19-.75.39-1.11.61-.09.05-.24.13-.39.23-.15.09-.29.18-.37.25-.39.26-.78.53-1.15.82-.65.46-1.32.97-1.79,1.56-.07.07-.13.13-.2.2-.06-.03-.17-.08-.35-.2Z"/><path class="cls-1" d="m64.28,18.16s.25.94-2.56,3.33c-2.94,2.5-4.2,5.08-4.75,6.85-1.31-1.24-3.47-2.95-6.34-4.19.48-1.14,1.58-3.13,3.81-4.59,3.45-2.26,5.22-2.26,7.83-2.09,1.34.09,1.95.46,2.02.68Z"/><path class="cls-1" d="m64.34,51.74c-.09-5.76-1.78-11.64-4.87-16.82-.25-.41-.51-.82-.78-1.21h0s-1.87-2.35-1.87-2.35c-.73-.79-1.51-1.53-2.35-2.21-1.96-1.59-4.13-2.77-6.43-3.51-3.52-1.13-7.11-1.15-10.43-.09-.17.08-.36.14-.56.19-.63.23-1.24.49-1.85.8-.1.06-.2.11-.29.16-.27.15-.53.3-.78.43-.09.05-.17.1-.26.16l-.03.02-.04.02c-.08.05-.16.1-.23.15h0c-.23.17-.48.35-.76.54-.12.08-.24.16-.36.25-.53.41-1.03.85-1.5,1.31-.13.15-.26.28-.39.4-2.43,2.55-4.06,5.84-4.68,9.59-.05.3-.09.61-.13.92,0,0,0,0,0,0-.26,2.15-.17,4.35.25,6.55.21,1.09.5,2.16.87,3.2l.95,2.27c.28.58.59,1.16.93,1.72,3.55,5.96,8.75,10.65,14.64,13.21,1.11.48,2.23.88,3.34,1.18l.36.09h0c1.41.37,2.8.58,4.12.63,2.6.09,4.92-.46,6.71-1.59h0c1.79-1.13,3.32-3,4.43-5.41.65-1.41,1.14-3.01,1.48-4.71.08-.42.38-2.1.48-4.09.02-.53.03-1.06.03-1.6v-.19Zm-2.07,1.97c-.09,1.31-.28,2.56-.55,3.74-.88,3.76-2.66,6.71-5.04,8.21-3.12,1.96-7.95,1.84-12.91-.32-5.31-2.31-10-6.55-13.21-11.93-2.35-3.94-3.28-8.72-2.56-13.12.77-4.65,3.27-8.52,7.05-10.9,3.78-2.38,8.28-2.91,12.66-1.5,4.14,1.33,7.87,4.36,10.22,8.3,3.21,5.38,4.75,11.59,4.34,17.5Z"/><path class="cls-1" d="m45.17,38.33c0,.19-.11.36-.26.46l-5.82,3.66-.36.23c-.16.1-.35.11-.52.03l-2.36-1.13c-.19-.09-.31-.28-.32-.5l-.12-4.16c0-.2.09-.39.26-.5l2.6-1.63,2.6-1.63c.17-.11.38-.11.55-.01l3.56,2c.18.1.29.3.29.52l-.1,2.67Z"/><path class="cls-1" d="m48.62,63.76c.09.4-.27.77-.66.68-1.09-.25-2.22-.63-3.35-1.12-.37-.16-.73-.33-1.09-.51-.33-.16-.41-.61-.16-.89.46-.51.88-1.02,1.27-1.55.14-.2.4-.28.63-.19l2.65.98c.2.07.34.26.36.47.08.7.2,1.41.36,2.14Z"/><path class="cls-1" d="m39.85,44.56l6.18-3.88c.16-.1.35-.11.52-.03l3.7,1.73c.2.09.33.31.32.53l-.15,4.24c0,.19-.11.36-.26.46l-6.16,3.87c-.16.1-.35.11-.52.03l-3.75-1.8c-.2-.1-.33-.31-.32-.54l.18-4.16c0-.19.11-.36.26-.46Z"/><path class="cls-1" d="m42.94,54l.38,4.22c.01.13-.02.26-.09.37-.55.82-1.22,1.63-1.98,2.4-.19.19-.48.22-.7.07-2.33-1.6-4.45-3.63-6.25-5.97-.19-.25-.15-.6.09-.8,1.16-.93,2.36-1.82,3.57-2.67.16-.11.37-.13.54-.04l4.12,1.97c.18.09.3.26.32.46Z"/><path class="cls-1" d="m54.65,55.18c-.02.17-.12.32-.26.41l-3.35,2.11-2.05,1.29c-.14.09-.32.11-.47.05l-2.75-1.02c-.2-.07-.34-.26-.36-.48l-.34-3.78c-.02-.21.08-.42.26-.53l5.73-3.6c.18-.11.41-.11.58,0l3.13,2.03c.18.12.28.33.25.55l-.37,2.97Z"/><path class="cls-1" d="m56.33,50.07l-3.51-2.28c-.17-.11-.26-.3-.26-.5l.16-4.67c0-.2.11-.38.28-.48,1.28-.73,2.6-1.42,3.94-2.06.28-.13.6,0,.73.28,1.23,2.74,2.03,5.62,2.35,8.51.03.26-.12.51-.36.6-.92.34-1.92.57-2.99.68-.12.01-.24-.02-.35-.09Z"/><path class="cls-1" d="m40,30.41v.37c.02.2-.08.39-.25.5l-2.6,1.63-2.6,1.63c-.17.11-.38.11-.55.01l-.33-.19c-.32-.18-.38-.62-.14-.89.77-.84,1.66-1.58,2.65-2.2.99-.62,2.04-1.09,3.12-1.4.35-.1.69.16.7.53Z"/><path class="cls-1" d="m30.12,40.67c.06-.34.12-.67.2-1,.28-1.18.69-2.3,1.22-3.33.14-.28.48-.38.75-.23l.69.39c.17.1.28.28.29.48l.11,3.97c0,.24-.14.46-.36.55-.77.29-1.53.61-2.27.95-.39.18-.82-.13-.78-.57.03-.4.09-.81.15-1.21Z"/><path class="cls-1" d="m30.37,45.07c1.22-.64,2.5-1.2,3.82-1.67.14-.05.29-.04.42.02l2.51,1.2c.2.1.33.31.32.54l-.17,4.01c0,.18-.1.34-.24.44-1.29.9-2.56,1.84-3.81,2.83-.26.21-.64.14-.81-.15,0,0,0-.01-.01-.02-1.21-2.03-1.99-4.3-2.32-6.6-.03-.24.08-.48.29-.59Z"/><path class="cls-1" d="m51,64.42c-.32-1.17-.53-2.27-.63-3.33-.02-.22.08-.43.26-.54l4.35-2.73c.19-.12.42-.11.6.01.83.58,1.7,1.27,2.6,2.1.19.17.24.46.12.69-.74,1.4-1.67,2.49-2.73,3.16-1.07.67-2.45,1.02-4.02,1.06-.25,0-.47-.17-.54-.42Z"/><path class="cls-1" d="m60.14,53.56c-.09,1.28-.28,2.5-.57,3.63-.1.4-.57.55-.88.29-.58-.49-1.14-.93-1.7-1.33-.17-.12-.26-.33-.23-.53l.35-2.87c.03-.25.22-.45.47-.49.66-.1,1.29-.23,1.91-.41.36-.1.71.18.7.56,0,.38-.03.76-.05,1.14Z"/><path class="cls-1" d="m16.1,50.11c-3.37,1.46-4.06.81-4.06.8-.1-.11-.16-.48-.01-1.1.07-.29.18-.65.36-1.05,1.05-2.46,1.87-4.07,5.41-6.17,2.29-1.36,4.52-1.45,5.72-1.36-.25,3.2.23,5.96.69,7.73-1.79-.33-4.6-.38-8.11,1.15Z"/><path class="cls-1" d="m47.35,79.73c-.18,1.68-.63,2.73-1.26,2.95-.8.28-2.37-.57-3.73-2.01-1.33-1.41-2.52-3.04-2.48-7.43,0-.98.11-1.76.26-2.39.25-1.08.64-1.7.92-2.03,2,1.02,3.86,1.6,4.7,1.83.56,1.02,2.1,4.34,1.59,9.09Z"/><path class="cls-1" d="m66.49,52.78c.69-.18,2.14-.27,4.45.92,3.48,1.79,4.58,3.43,5.32,5.64.64,1.9.66,3.73.05,4.33-.48.48-1.59.41-3.13-.19-4.4-1.71-6.58-4.77-7.19-5.74.2-1.06.34-2.16.41-3.28.02-.25.03-.5.04-.75.02-.3.03-.61.03-.93Z"/></g></svg>