<?xml version="1.0" encoding="UTF-8"?><svg id="_レイヤー_2" xmlns="http://www.w3.org/2000/svg" xmlns:xlink="http://www.w3.org/1999/xlink" viewBox="0 0 317.22 86.09"><defs><style>.cls-1{fill:#595757;font-family:KozGoPr6N-Regular-90ms-RKSJ-H, 'Kozuka Gothic Pr6N';font-size:12px;letter-spacing:.1em;}.cls-2{fill:#dcdddd;}.cls-3{fill:url(#_新規グラデーションスウォッチ_1-7);}.cls-4{fill:url(#_新規グラデーションスウォッチ_1-11);}.cls-5{fill:url(#_新規グラデーションスウォッチ_1-5);}.cls-6{fill:url(#_新規グラデーションスウォッチ_1-8);}.cls-7{fill:url(#_新規グラデーションスウォッチ_1);}.cls-8{fill:url(#_新規グラデーションスウォッチ_1-3);}.cls-9{fill:url(#_新規グラデーションスウォッチ_1-4);}.cls-10{fill:url(#_新規グラデーションスウォッチ_1-2);}.cls-11{fill:url(#_新規グラデーションスウォッチ_1-12);}.cls-12{fill:url(#_新規グラデーションスウォッチ_1-9);}.cls-13{clip-path:url(#clippath);}.cls-14{fill:none;}.cls-15{fill:url(#_新規グラデーションスウォッチ_2);}.cls-16{fill:url(#_新規グラデーションスウォッチ_1-10);}.cls-17{fill:url(#_新規グラデーションスウォッチ_1-6);}</style><linearGradient id="_新規グラデーションスウォッチ_1" x1="38.17" y1="79.93" x2="38.17" y2="-50.26" gradientUnits="userSpaceOnUse"><stop offset="0" stop-color="#2aa7d5"/><stop offset="1" stop-color="#205099"/></linearGradient><clipPath id="clippath"><circle class="cls-14" cx="38.17" cy="38.17" r="31.5"/></clipPath><linearGradient id="_新規グラデーションスウォッチ_2" x1="235.76" y1="-107.26" x2="-32.07" y2="89.67" gradientTransform="translate(.43 76.24) rotate(-90)" gradientUnits="userSpaceOnUse"><stop offset="0" stop-color="#6ab09c"/><stop offset=".32" stop-color="#65adac"/><stop offset=".66" stop-color="#47a5a6"/><stop offset=".91" stop-color="#c0d0e1"/></linearGradient><linearGradient id="_新規グラデーションスウォッチ_1-2" x1="47.83" y1="79.93" x2="47.83" y2="-50.26" gradientTransform="translate(9.68 85.98) rotate(-90)" xlink:href="#_新規グラデーションスウォッチ_1"/><linearGradient id="_新規グラデーションスウォッチ_1-3" x1="26.45" y1="79.93" x2="26.45" y2="-50.26" gradientTransform="translate(-26.22 79.13) rotate(-90)" xlink:href="#_新規グラデーションスウォッチ_1"/><linearGradient id="_新規グラデーションスウォッチ_1-4" x1="38.13" y1="79.93" x2="38.13" y2="-50.26" gradientTransform="translate(76.26 76.23) rotate(-180)" xlink:href="#_新規グラデーションスウォッチ_1"/><linearGradient id="_新規グラデーションスウォッチ_1-5" x1="38.33" y1="79.93" x2="38.33" y2="-50.26" gradientTransform="translate(0 76.67) rotate(-90)" xlink:href="#_新規グラデーションスウォッチ_1"/><linearGradient id="_新規グラデーションスウォッチ_1-6" x1="26.1" y1="79.93" x2="26.1" y2="-50.26" gradientTransform="translate(-3.66 134.84) rotate(-135)" xlink:href="#_新規グラデーションスウォッチ_1"/><linearGradient id="_新規グラデーションスウォッチ_1-7" x1="37.5" y1="79.93" x2="37.5" y2="-50.26" gradientTransform="translate(87.54 30.27) rotate(135)" xlink:href="#_新規グラデーションスウォッチ_1"/><linearGradient id="_新規グラデーションスウォッチ_1-8" x1="27.13" y1="79.93" x2="27.13" y2="-50.26" xlink:href="#_新規グラデーションスウォッチ_1"/><linearGradient id="_新規グラデーションスウォッチ_1-9" x1="118.09" y1="79.93" x2="118.09" y2="-50.26" xlink:href="#_新規グラデーションスウォッチ_1"/><linearGradient id="_新規グラデーションスウォッチ_1-10" x1="177.23" y1="79.93" x2="177.23" y2="-50.26" xlink:href="#_新規グラデーションスウォッチ_1"/><linearGradient id="_新規グラデーションスウォッチ_1-11" x1="296.17" y1="79.93" x2="296.17" y2="-50.26" xlink:href="#_新規グラデーションスウォッチ_1"/><linearGradient id="_新規グラデーションスウォッチ_1-12" x1="239.42" y1="79.93" x2="239.42" y2="-50.26" xlink:href="#_新規グラデーションスウォッチ_1"/></defs><g id="_テキスト"><path class="cls-7" d="m38.17,0C17.09,0,0,17.09,0,38.17s17.09,38.17,38.17,38.17,38.17-17.09,38.17-38.17S59.25,0,38.17,0Zm0,69.67c-17.39,0-31.5-14.1-31.5-31.5S20.78,6.68,38.17,6.68s31.5,14.1,31.5,31.5-14.1,31.5-31.5,31.5Z"/><g class="cls-13"><rect class="cls-15" x="4.18" y="35.68" width="68.3" height="4.45" transform="translate(76.24 -.43) rotate(90)"/><rect class="cls-10" x="13.68" y="32.56" width="68.3" height="11.19" transform="translate(85.98 -9.68) rotate(90)"/><rect class="cls-8" x="6.82" y="49.32" width="39.27" height="6.71" transform="translate(79.13 26.22) rotate(90)"/><rect class="cls-9" x="3.98" y="32.52" width="68.3" height="11.19" transform="translate(76.26 76.23) rotate(180)"/><rect class="cls-5" x="4.18" y="36.11" width="68.3" height="4.45" transform="translate(76.67 0) rotate(90)"/><rect class="cls-17" x="9.47" y="65.94" width="33.26" height="4.48" transform="translate(92.76 97.93) rotate(135)"/><rect class="cls-3" x="1.74" y="32.14" width="71.53" height="2.25" transform="translate(40.5 83.31) rotate(-135)"/></g><polygon class="cls-6" points="39.11 45.03 36.87 42.79 15.15 64.51 19.9 69.25 39.11 50.05 39.11 45.03"/><g><path class="cls-12" d="m124.9,29c0-4.18-2.79-6.52-6.75-6.52-4.33,0-6.96,2.93-6.82,6.37.15,3.74,3.01,5.28,7.77,6.67,5.64,1.54,11.94,3.15,12.24,11.58.29,7.26-5.57,12.54-13.05,12.54-6.37,0-13.4-4.03-13.48-12.32h5.35c.22,5.42,4.25,7.84,8.21,7.84,4.54,0,7.69-3.37,7.62-7.4-.14-4.48-3.08-6.31-9.9-8.28-5.64-1.68-10.04-3.96-10.18-10.19,0-7.1,5.64-11.29,12.31-11.29,5.5,0,11.66,3.01,12.02,11h-5.35Z"/><g><path class="cls-2" d="m124.71,29.86c-.48,2.41-2.32,3.78-5.23,4.87l.07.02c2.1.57,4.39,1.2,6.44,2.25,2.4-1.54,4.01-3.7,4.24-7.14h-5.52Z"/><path class="cls-2" d="m110.32,46.46c.52-2.83,2.53-4.46,6.41-5.9-.28-.09-.57-.17-.87-.26-1.87-.56-3.93-1.26-5.72-2.33-2.8,1.54-4.94,3.99-5.27,8.48h5.46Z"/></g><path class="cls-16" d="m156.3,38.76c0-11,8.21-20.75,20.9-20.75s20.97,9.76,20.97,20.83-8.21,20.75-20.97,20.75-20.9-9.68-20.9-20.75v-.07Zm5.35.14c0,8.95,6.82,15.69,15.55,15.69s15.55-6.74,15.55-15.76-6.75-15.76-15.55-15.76-15.55,6.74-15.55,15.76v.07Z"/></g><path class="cls-4" d="m311.77,17.91v6.6c-3.68-4.02-9.05-6.6-15.63-6.6-12.76,0-21.02,9.81-21.02,20.87v.07c0,11.13,8.26,20.87,21.02,20.87,6.58,0,11.96-2.57,15.63-6.56v6.32h5.45V17.91h-5.45Zm-15.63,36.79c-8.78,0-15.63-6.78-15.63-15.78v-.07c0-9.07,6.86-15.85,15.63-15.85s15.63,6.78,15.63,15.85-6.79,15.85-15.63,15.85Z"/><path class="cls-11" d="m234.11,24.91v-7h-5.46v41.56h5.68v-20.68c.17-9.02,7.06-15.72,15.84-15.72v-5.16c-6.8,0-12.34,2.75-16.07,7Z"/><text class="cls-1" transform="translate(155.81 82.02)"><tspan x="0" y="0">一般社団法人 空</tspan></text></g></svg>