<?xml version="1.0" encoding="UTF-8"?><svg id="_レイヤー_2" xmlns="http://www.w3.org/2000/svg" viewBox="0 0 354.52 110.1"><defs><style>.cls-1{fill:none;stroke:#595757;stroke-linecap:round;stroke-linejoin:round;stroke-width:.59px;}</style></defs><g id="_写真"><g><path class="cls-1" d="m139.24,75.48c.02-4.94,1.88-10.65,6.89-11.39,5.1-.74,6.32-1.82,3.52.88-2.81,2.69-5.86,3.85-9.35,2.81-2.41-.72-4.48-5.39-3.59-10.3.57-3.12.48-.47,2.39,1.99,3.02,3.87.74,8.32,1.55,6.39.92-2.19,4.23-7.43,7.61-7.78,6.36-.66,5.56-1.36,4.84-.13-1.8,3.08-6.01,5.27-9.44,4.06-6.09-2.14-2.38-10.12-.91-11.77,1.05-1.17-.86,1.22.29,4.64,1.15,3.42-.16,6.19.74,4.6,1.97-3.46,6.61-2.13,7.24-8.99.29-3.16.65-1.58-2.92.23-3.57,1.81-1.8,6.1-1.8,6.1"/><path class="cls-1" d="m.29,109.81c27.81-8.79,28.15-20.64,50.54-27.33,23.29-6.95,34.68,4.49,45.88-2.54,4.59-2.88,7.91.2,4.17,1.07-6.27,1.46-9.52-2.86-9.66-7.67-.2-6.87,11.7-2.87,7.4-1.21-4.31,1.66-11.04-3.37-11.87-10.36-.83-7,13.75-1.95,6.29-1.45-7.45.5-12.49-11.11-12.9-16.26-.4-5.05,20.52,3.84,10.25,2.51-10.27-1.32-12.31-24.64-9.11-20.04,1.9,2.73,18.22,17.44,8.06,4.86-10.16-12.59-9.05-26.06-5.3-13.91,3.75,12.14,27.38,24.95,28.26,36.43.88,11.48,10.38,19.6,14.24,16.45,3.86-3.15,8.17-3.26,10.1-1.21,1.93,2.04,5.75,2.78,4.58,1.52-1.25-1.34-2.59.25-4.19,1.35-2.28,1.57-2.43,9.72-5.52,13.47-3.09,3.75-9.72,8.8-24.73,10.92-5.26.74-9.27,2.15-11.69,3.88-4.49,3.23-4.49,3.19-6.99,2.33-4.81-1.65-.41.19,5.29-5.29,1.68-1.62-7.31,3.82-9.21,3.44-1.93-.38-8.47-3.36-8.11-4.46.24-.75,3.31-.69,11.32-3.33,4.48-1.47-13.79,1.92-14.76,1.42-3.5-1.79-5.32-3.26-6.33-4.01-2.17-1.6-3.15-3.31,24.5-4,16.01-.4,24.72,3.46,25.74,9.43.59,3.44,2.96,6.47,5.96,7.38,4.71,1.43,9.26.68,6.35-3.48-1.93-2.76-3.73-.67-2.65,1.27,1.08,1.95,3.58,3.78,6.4,5.02,5.63,2.48,10.2-1.75,8.11-5.13-2.82-4.58-6.31-.1-.5,5.47,6.57,6.29,15.85,1.28,15.07-1.16-1.38-4.31-6.4-3.7-4.14-.5,5.28,7.46,20.19,3.55,19.03,2.23-2.26-2.59-12.44-7.17-8.43-7.2,5.3-.03,7.84,2.76,14.41,3.15,8.31.49,14.91-2.2,14.25-3.19s-2.65.42-11.1.54c-9.11.13-17.7-9.73-32.32-13.67-8.45-2.28-14.41-2.7-12.44.11,2.06,2.95,21.91-5.49,39.7-24.58,22.32-23.95,48.83-6.26,72.84-19.95,20.5-11.7,23.35-23.91,45.06-33.46,26.2-11.53,33.01,1.57,62.07-8.38"/></g></g></svg>