<?xml version="1.0" encoding="UTF-8"?><svg id="_レイヤー_2" xmlns="http://www.w3.org/2000/svg" viewBox="0 0 280.15 149.54"><defs><style>.cls-1{fill:#4c4948;}.cls-2{fill:none;stroke:#595757;stroke-linecap:round;stroke-linejoin:round;stroke-width:.59px;}</style></defs><g id="_写真"><path class="cls-2" d="m.29,148.67c2.06,2.95,21.91-5.49,39.7-24.58,22.32-23.95,48.83-6.26,72.84-19.95,20.5-11.7,23.35-23.91,45.06-33.46,26.2-11.53,33.01,1.57,62.07-8.38"/><path class="cls-2" d="m219.96,62.3c26.5-9.27,31.2-26.57,59.89-37.47"/><g><path class="cls-1" d="m187.79,1.22h.03c-.22.08-.43.16-.64.25-.21.09-.42.19-.62.29-.42.19-.82.4-1.21.63-.8.45-1.55.97-2.28,1.51-1.46,1.1-2.8,2.35-4.04,3.7-1.26,1.32-2.71,2.47-4.28,3.4-.2.12-.4.23-.6.33-.2.11-.4.22-.61.32-.41.2-.82.39-1.25.57-.85.35-1.69.7-2.52,1.08h-.03s.03.01.03.01c.41,0,.82-.02,1.23-.03l1.23-.02h.62s.62-.01.62-.01c.41,0,.81,0,1.22,0-.58.89-1.25,1.72-2,2.46-.38.37-.77.74-1.19,1.06-.21.17-.42.33-.63.49-.11.08-.22.15-.33.23-.11.07-.22.15-.33.22-.89.59-1.85,1.06-2.83,1.47-.21.09-.41.18-.62.27-.02.01-.05.02-.07.03l-.1.05-.68.29-.37.16c-.12.05-.24.12-.36.18-.24.12-.47.26-.7.39h0s0,0,0,0l.02.03.87-.44c.29-.14.59-.28.88-.41l.44-.2c.15-.06.3-.12.45-.18.31-.11.61-.21.92-.31.31-.1.62-.2.93-.29.31-.08.63-.16.94-.25.61-.17,1.23-.29,1.85-.41l-.54,1.02-.55,1.07c-.37.71-.72,1.44-1.06,2.16-.08.18-.18.36-.27.53-.09.18-.19.35-.29.53-.2.35-.42.68-.65,1-.47.65-1.02,1.23-1.6,1.78-.59.54-1.22,1.04-1.86,1.52-.32.24-.63.5-.94.75-.31.25-.62.51-.93.77-.3.26-.6.53-.9.8-.3.27-.6.53-.89.81-.29.28-.57.56-.86.84-.14.14-.28.28-.43.43l-.41.44-.1.1.14-.03.81-.16c.27-.06.53-.12.8-.18.53-.13,1.06-.27,1.59-.43l1.56-.5.77-.28.65-.25c-.21.52-.39,1.05-.51,1.59-.14.58-.21,1.18-.33,1.76-.12.58-.27,1.16-.46,1.72-.2.56-.42,1.11-.67,1.65-.06.14-.12.27-.18.41l-.2.4c-.14.26-.27.53-.41.79-.14.26-.29.52-.45.77-.15.26-.32.5-.48.76-.31.51-.63,1.01-.94,1.52-.31.51-.6,1.03-.9,1.55h0s0,0,0,0c-.29.74-.8,1.39-1.47,1.82-.17.11-.34.2-.52.28l-.55.26-1.09.52c-.73.35-1.46.69-2.19,1.03l-2.2,1.02-.39.18h.43c.51-.02,1.02-.05,1.53-.07.25,0,.51-.03.76-.05l.76-.05c.25-.02.51-.03.76-.05l.76-.07,1.34-.12-.23.46-.31.61-.64,1.22c-.44.79-.98,1.53-1.63,2.16-.33.3-.68.6-1.05.86-.37.26-.76.5-1.16.7l-.13.07-.08.03-.12.06-.29.12c-.21.09-.42.18-.63.28-.42.19-.83.4-1.23.64l.11.2c.37-.19.75-.37,1.13-.54l1.13-.54,1.16-.45.59-.21.26-.09c-.13.21-.26.41-.39.62-.2.3-.39.6-.59.9-.2.3-.4.59-.61.89-.21.29-.41.59-.62.88-.42.58-.86,1.15-1.3,1.71-.45.56-.9,1.12-1.37,1.66-.23.27-.47.54-.71.81-.24.27-.48.53-.73.79-.49.52-.99,1.04-1.51,1.53-.26.25-.52.5-.78.74-.26.24-.52.49-.79.73-.43.38-.87.75-1.31,1.12.94-4.23,1.98-8.43,3.17-12.59,1.22-4.3,2.59-8.56,4.13-12.75l.59-1.57.3-.78.31-.78.62-1.56.65-1.54c.11-.26.22-.51.33-.77l.34-.77c.23-.51.45-1.03.69-1.53l.71-1.52c.24-.5.49-1,.74-1.5,1-2,2.05-3.97,3.18-5.89,1.13-1.92,2.34-3.8,3.63-5.62l-.34-.25c-1.48,1.88-2.86,3.84-4.16,5.85l-.48.76-.24.38c-.08.13-.16.26-.24.38l-.93,1.53-.9,1.55-.44.78-.43.78-.22.39c-.07.13-.15.26-.21.4l-.42.79-.42.79c-.14.27-.27.54-.41.8-.27.54-.54,1.06-.8,1.6l-.77,1.61-.19.4-.19.41-.37.81-.74,1.64-.71,1.64c-.24.55-.46,1.1-.69,1.66l-.34.83c-.12.28-.22.56-.33.83l-.66,1.67c-.22.56-.42,1.12-.63,1.68l-.31.84-.16.42-.15.42-.6,1.69c-.1.28-.2.56-.3.85l-.29.85-.58,1.69-.55,1.71c-1.41,4.37-2.67,8.79-3.82,13.24l-.03-.06-.14.54-.78,3.09-.75,3.1-1.5,6.2-.03.11.07.08,1,1.08-2.14,1.85-.57.5-.29.25-.04.03s-.01.01-.02.01c0,0,0,0,0,0,0,0,0,0-.01,0,0,0,0,0-.01,0-.02,0-.04,0-.06,0-.02,0-.04-.02-.05-.04,0-.02-.01-.03-.01-.06,0,0,0,0,0,0,0,0,0,0,0,0h0s.01-.06.01-.06l.02-.09.04-.19.16-.74.61-2.97c.1-.5.21-.99.32-1.48l.32-1.48.32-1.48.34-1.48.34-1.48.17-.74.18-.74.72-2.94.75-2.94v-.06s0-.05,0-.05l-.19-.47-.18-.47c-.12-.32-.23-.64-.34-.95-.22-.64-.42-1.28-.6-1.93l-.13-.49c-.04-.16-.08-.32-.12-.49-.08-.33-.15-.66-.22-.99-.15-.66-.26-1.33-.37-1.99-.05-.33-.1-.67-.14-1-.04-.33-.07-.67-.11-1.01-.04-.34-.06-.67-.08-1.01-.03-.34-.05-.67-.06-1.01,0-.17-.01-.34,0-.51v-.51s0-1.01,0-1.01c0-.47.01-.93.04-1.39.17.38.33.76.51,1.13l.39.85.4.85.4.85.1.21.09.22c.06.14.13.29.19.43l.2.43c.07.14.13.28.21.42.14.28.29.56.46.83l.25-.14-.56-1.12c-.17-.35-.34-.69-.51-1.04l-.06-.14-.04-.09c-.3-.72-.57-1.45-.81-2.19-.13-.4-.23-.8-.34-1.2l-.13-.61c-.04-.2-.08-.41-.11-.61-.12-.82-.18-1.65-.16-2.48.01-.42.04-.83.08-1.24.02-.21.05-.41.08-.62l.04-.31c.01-.1.03-.21.05-.31.03-.21.07-.41.11-.61.04-.2.09-.41.13-.61.09-.41.2-.81.31-1.21.22-.81.46-1.6.72-2.4.13-.4.26-.79.39-1.19.03-.1.07-.2.11-.29l.11-.29.13-.35.28.57.2.4.21.39c.29.52.58,1.03.9,1.54.31.5.64,1,.99,1.48l.53.72.28.35.28.34.26.32-.09-.41c-.11-.54-.2-1.09-.28-1.64-.08-.55-.14-1.1-.2-1.65-.1-1.1-.16-2.22-.2-3.33v-.42s0-.42,0-.42v-.83s0-.83,0-.83v-.42c0-.14.01-.28.01-.42.02-.56.04-1.11.08-1.67.01-.28.03-.56.05-.83l.02-.21c0-.07.02-.13.03-.2.03-.13.07-.26.13-.37h0s0-.02,0-.02c.17-.58.32-1.17.54-1.74.22-.56.47-1.12.75-1.65.07-.13.14-.27.22-.4.07-.13.15-.26.23-.39.08-.13.16-.26.24-.38.08-.13.17-.25.26-.37l.26-.37c.09-.12.18-.24.27-.36.09-.12.18-.24.28-.36l.29-.35c.19-.23.39-.46.59-.69l.6-.69,1.21-1.37c.19-.24.39-.47.58-.71.18-.24.37-.48.55-.73.17-.25.35-.5.51-.76l.24-.39.15-.25c.05.38.1.75.16,1.13.07.43.14.86.21,1.29.07.43.15.86.23,1.29.08.43.17.86.26,1.28.18.85.36,1.71.57,2.56.17.85.36,1.71.66,2.54l.08-.03c-.06-.23-.13-.45-.19-.68l-.17-.68-.17-.68c-.03-.11-.06-.23-.09-.34,0-.05-.02-.1-.03-.14,0-.03-.01-.06-.02-.08,0-.04-.02-.08-.02-.12-.04-.23-.08-.46-.12-.69l-.1-.7c-.03-.23-.06-.47-.09-.7-.03-.23-.06-.47-.08-.7-.02-.23-.05-.47-.07-.7-.02-.23-.03-.47-.04-.7l-.08-1.41-.02-.35c0-.12,0-.23,0-.35v-.71s-.02-1.4-.02-1.4c.19-.28.38-.56.58-.84.1-.14.2-.28.3-.42.1-.14.2-.28.31-.41.2-.28.43-.54.64-.81l.33-.4.33-.39c.23-.26.46-.51.7-.76.24-.25.47-.5.71-.75.24-.24.49-.48.74-.72l.38-.35.38-.35c.52-.45,1.04-.9,1.58-1.32.55-.41,1.09-.84,1.67-1.22l.86-.57c.29-.18.59-.36.88-.53.3-.17.59-.35.9-.5.3-.15.6-.3.9-.44l-.07.85c-.02.29-.05.59-.06.88-.03.59-.05,1.18-.07,1.76,0,.29,0,.59,0,.88l-.02.88c0,.15,0,.29,0,.44,0,.15,0,.29.02.44.02.29.04.59.08.88h.02s0,0,0,0c-.03-.65-.07-1.31-.06-1.96v-.49s0-.06,0-.1v-.05c0-.11.02-.23.03-.34.02-.33.09-.65.18-.97.09-.32.19-.63.32-.93.06-.15.13-.3.21-.44l.12-.22c.04-.07.08-.14.12-.21.09-.14.17-.28.26-.42l.28-.4c.2-.26.41-.51.62-.76.88-.97,1.88-1.83,2.96-2.58l.4-.28c.13-.1.28-.18.41-.27.28-.18.55-.36.84-.52.29-.16.57-.32.86-.47.29-.15.59-.29.88-.43,1.19-.55,2.43-1,3.69-1.34,1.27-.34,2.57-.56,3.87-.66,1.31-.1,2.63-.08,3.93.09.65.09,1.3.21,1.93.38.32.09.63.18.94.29.31.11.61.24.9.39-.29-.15-.59-.28-.9-.39-.31-.11-.62-.21-.94-.3-.63-.17-1.28-.3-1.93-.38-1.3-.17-2.62-.19-3.93-.09-1.31.1-2.61.33-3.87.66-1.27.34-2.51.79-3.7,1.34-.3.14-.59.28-.88.43-.29.15-.58.31-.86.47-.29.16-.56.34-.84.52-.14.09-.28.17-.41.27l-.4.28c-1.07.75-2.08,1.61-2.96,2.58-.22.25-.43.5-.62.76l-.28.4c-.09.14-.17.28-.26.42-.04.07-.08.14-.12.21l-.12.22c-.08.14-.15.29-.21.44-.13.3-.24.61-.33.93-.09.32-.15.64-.18.97v.11c0-.23,0-.46,0-.69.02-.59.04-1.18.07-1.76.01-.29.04-.59.06-.88l.07-.88v-.03s-.02.01-.02.01c-.31.15-.62.3-.93.45-.31.15-.6.33-.9.5-.3.17-.59.35-.89.53l-.86.57c-.58.38-1.12.8-1.67,1.22-.55.42-1.06.87-1.59,1.32l-.38.35-.38.35c-.25.24-.5.47-.74.72-.24.24-.48.5-.71.75-.24.25-.47.5-.7.76l-.34.39-.33.4c-.22.27-.44.53-.65.81-.11.14-.21.27-.31.41-.1.14-.2.28-.3.42-.2.28-.4.56-.59.85h0v1.43s.02.71.02.71c0,.12,0,.24,0,.35l.02.35.08,1.41c.01.24.02.47.04.71.02.24.04.47.07.7.02.23.05.47.08.7.03.23.05.47.08.7l.05.34c-.09-.43-.19-.87-.27-1.31-.09-.43-.17-.86-.25-1.28-.08-.43-.15-.86-.22-1.29-.07-.43-.14-.86-.21-1.29-.07-.43-.12-.86-.18-1.3l-.02-.17-.09.14-.24.39-.25.38c-.17.25-.34.5-.51.75-.18.25-.37.48-.55.72-.19.24-.38.47-.58.71l-1.21,1.37-.61.68c-.2.23-.4.46-.6.69l-.3.35c-.09.12-.19.24-.28.36-.09.12-.19.24-.28.36l-.26.37c-.09.13-.18.25-.26.38-.08.13-.17.25-.25.39-.08.13-.16.26-.24.39-.08.13-.15.27-.22.4-.28.54-.54,1.1-.76,1.67-.22.57-.37,1.16-.55,1.74-.06.13-.11.26-.14.4-.02.07-.03.14-.04.22l-.02.21c-.02.28-.04.56-.05.83-.03.56-.06,1.11-.08,1.67,0,.14-.02.28-.02.42v.42s0,.84,0,.84v.84s0,.42,0,.42v.42c.04,1.12.1,2.23.2,3.34.05.56.12,1.11.19,1.66.06.42.12.84.2,1.26l-.03-.03-.27-.35-.52-.71c-.34-.48-.67-.97-.98-1.47-.31-.5-.61-1.01-.89-1.53l-.21-.39-.2-.39-.39-.79-.11-.23-.09.24-.22.59-.11.29c-.04.1-.07.2-.11.3-.13.4-.27.8-.4,1.19-.26.8-.51,1.6-.73,2.41-.11.4-.22.81-.32,1.22-.05.2-.09.41-.14.62-.04.21-.08.42-.11.62-.02.1-.04.21-.05.31l-.04.31c-.03.21-.06.42-.08.63-.04.42-.07.84-.09,1.26-.04,1.48.15,2.96.55,4.38-.25-.55-.49-1.1-.73-1.66l-.24-.57-.05.62c-.05.68-.08,1.36-.08,2.04v1.02s0,.51,0,.51c0,.17,0,.34,0,.51.02.34.03.68.06,1.02.03.34.05.68.08,1.02.03.34.06.68.1,1.02.04.34.08.68.14,1.01.11.67.22,1.34.37,2.01.07.33.14.67.22,1,.04.17.08.33.12.5l.13.49c.18.66.38,1.31.6,1.95.11.32.22.64.34.96l.18.48.17.42-.75,2.88-.73,2.95-.18.74-.17.74-.34,1.48-.34,1.48-.33,1.48-.33,1.48c-.11.49-.22.99-.32,1.48l-.62,2.97-.16.74-.04.18-.02.09v.05s-.01.01-.01.01v.02s0,.04,0,.04c-.01.1.01.22.07.31.06.09.14.16.24.2.1.04.21.04.31.01.03,0,.05-.02.07-.03.02-.01.05-.02.07-.04l.03-.02s.01-.01.02-.02l.04-.03.29-.25.57-.49,2.3-1.98.16-.14-.14-.15-1.07-1.15,1.48-6.09.75-3.1.64-2.55.02.05.14-.54c1.19-4.62,2.5-9.21,3.97-13.75l.55-1.7.58-1.7.29-.85c.09-.28.2-.56.3-.84l.6-1.69.15-.42.16-.42.31-.84c.21-.56.42-1.12.63-1.67l.66-1.67c.11-.28.22-.56.33-.83l.34-.83c.23-.55.45-1.11.69-1.65l.71-1.64.73-1.63.37-.81.19-.4.19-.4.77-1.62c.26-.53.53-1.06.8-1.6.14-.27.26-.53.4-.79l.42-.79.42-.79c.14-.26.28-.52.43-.78l.43-.78.44-.78.9-1.55.93-1.53c.06-.1.12-.19.18-.29-.78,1.41-1.53,2.84-2.25,4.29-.25.5-.49,1-.74,1.51l-.71,1.52c-.24.51-.46,1.02-.69,1.53l-.34.77c-.11.26-.22.52-.33.78l-.65,1.55-.62,1.56-.31.78-.3.79-.59,1.57c-1.54,4.21-2.9,8.48-4.11,12.79-1.21,4.31-2.28,8.66-3.23,13.04l-.09.41.33-.26c.56-.45,1.11-.92,1.65-1.4.27-.24.53-.49.8-.73.27-.24.52-.5.78-.75.52-.5,1.03-1.02,1.52-1.54.25-.26.49-.53.73-.8.24-.27.48-.54.71-.81.48-.54.93-1.11,1.37-1.67.45-.56.88-1.14,1.31-1.72.21-.29.42-.59.62-.88.21-.29.41-.59.61-.89.21-.3.39-.6.59-.91.19-.3.38-.61.57-.91l.19-.3-.33.11-.6.2-.4.14c.42-.29.83-.62,1.2-.98.33-.32.64-.67.91-1.05.14-.19.27-.37.39-.57.12-.2.24-.4.35-.6l.64-1.22.31-.61.3-.62.08-.16-.18.02-1.52.14-.76.07c-.25.02-.51.04-.76.06l-.76.05c-.25.02-.51.04-.76.05-.36.02-.72.04-1.08.05l1.79-.84c.73-.34,1.46-.69,2.19-1.04l1.09-.53.55-.26c.18-.09.37-.18.54-.3.69-.45,1.23-1.13,1.52-1.89.3-.52.58-1.04.89-1.54.31-.51.62-1.02.93-1.52.16-.25.32-.5.48-.76.15-.26.3-.52.45-.78.14-.26.28-.53.41-.79l.2-.4c.06-.14.12-.27.18-.41.25-.54.47-1.1.67-1.66.2-.57.34-1.15.46-1.74.12-.59.19-1.18.33-1.76.13-.58.32-1.14.55-1.69l.05-.12-.12.05-.77.29-.77.28-1.56.51c-.52.16-1.05.31-1.58.44-.27.06-.53.13-.8.18l-.66.14.31-.33c.14-.14.28-.28.42-.43.29-.28.57-.56.86-.84.28-.28.58-.55.88-.82.3-.27.59-.54.9-.8.3-.26.61-.51.92-.77.31-.25.62-.51.94-.75.64-.49,1.26-.99,1.86-1.53.59-.55,1.14-1.13,1.61-1.79.24-.32.46-.66.66-1.01.1-.18.19-.35.29-.53.09-.18.19-.35.27-.54.35-.72.69-1.45,1.06-2.16l.54-1.07.57-1.06.02-.04h-.05c-.64.14-1.28.26-1.91.44-.31.08-.63.16-.94.25-.31.09-.62.19-.93.29-.27.09-.54.18-.8.27.04-.02.08-.04.13-.05.98-.41,1.94-.89,2.83-1.48.11-.07.22-.15.33-.22.11-.08.22-.15.33-.23.22-.16.42-.32.63-.49.42-.33.81-.69,1.19-1.07.75-.75,1.43-1.59,2.01-2.48h0s-.01-.01-.01-.01c-.41,0-.82,0-1.23,0h-.62s-.62.01-.62.01l-1.23.02c-.4.01-.8.02-1.2.03.82-.37,1.65-.72,2.49-1.07.42-.17.84-.37,1.25-.57.2-.1.41-.21.61-.32.2-.11.4-.22.6-.33,1.57-.93,3.02-2.08,4.28-3.4,1.24-1.34,2.58-2.6,4.04-3.7.73-.55,1.49-1.06,2.28-1.52.39-.23.8-.45,1.21-.63.21-.09.41-.2.62-.29.21-.09.43-.17.64-.24h0s-.03-.01-.03-.01Zm-23.77,10.74c0,.56.02,1.13.05,1.69-.02-.2-.04-.4-.05-.6,0-.15-.01-.29-.02-.44,0-.15,0-.29,0-.44v-.34s.01.14.01.14Zm1.32,8.14l-.29.15s.09-.05.13-.07c.12-.06.24-.12.36-.18l.1-.04c-.1.05-.2.09-.29.14Z"/><path class="cls-1" d="m137.07,82.76c0,.15.08.31.19.39.12.09.27.11.39.08.13-.03.22-.11.28-.2.06-.09.09-.18.09-.28,0,.1-.05.19-.13.24-.08.05-.17.05-.24.02-.07-.03-.11-.09-.13-.13-.02-.05-.02-.09-.02-.13,0-.04,0-.08.02-.12.02-.05.06-.1.12-.13.07-.03.16-.03.24.02.08.05.13.14.13.24,0-.1-.03-.19-.09-.28-.06-.09-.15-.17-.28-.2-.12-.03-.28,0-.39.08-.12.09-.19.24-.19.39Z"/><path class="cls-1" d="m148.31,35.72l-.05-.77-.06-.77c-.05-.51-.08-1.02-.13-1.53l-.16-1.53c-.06-.5-.11-1.02-.18-1.53-.13-1.02-.31-2.02-.49-3.04l-.22-1.22-.2,1.22c-.08.47-.12.93-.14,1.4-.01.23-.02.47-.02.7,0,.23,0,.47.01.7,0,.93.09,1.86.2,2.78.07.46.13.92.21,1.38.09.46.18.91.28,1.36.21.9.45,1.8.74,2.68-.07-.22-.14-.44-.2-.66-.06-.22-.13-.44-.19-.67-.12-.45-.21-.9-.3-1.35-.04-.23-.09-.45-.12-.68l-.1-.69c-.06-.46-.09-.92-.14-1.38-.06-.92-.09-1.84-.05-2.76,0-.43.03-.86.06-1.29v.07s.14.76.14.76l.12.76c.09.5.16,1.01.23,1.52l.23,1.51c.08.5.15,1.01.22,1.52l.11.76.09.76c.13,1,.24,2,.31,3l-.42-1.17.42,1.22.02.05v-.05c-.07-1.02-.14-2.04-.22-3.06Z"/><path class="cls-1" d="m157.57,38.3c-.37.13-.73.28-1.09.45-.36.16-.7.35-1.04.55-.17.1-.34.2-.5.31l-.25.17-.24.17c-.16.12-.31.24-.47.36l-.45.38-.22.19c-.07.06-.14.14-.22.2l-.21.21s-.07.07-.11.11c-.03.04-.07.07-.11.12l-.35.41.54-.05c.4-.04.78-.12,1.16-.23.37-.11.74-.24,1.1-.38.36-.14.7-.32,1.05-.48.34-.17.69-.34,1.02-.54.33-.19.67-.38,1-.57.33-.2.65-.4.97-.61.32-.21.64-.42.95-.64l.12-.08.12-.09.24-.18c.15-.12.3-.23.45-.33-.17.11-.34.21-.51.3l-.24.14-.12.07-.13.07c-.33.18-.66.37-1,.55-.33.19-.67.37-1,.55-.34.17-.68.34-1.01.51-.68.34-1.37.66-2.06.93-.49.19-.99.36-1.5.46.05-.05.09-.09.14-.13l.22-.19.43-.38.45-.35c.6-.46,1.26-.86,1.94-1.22.68-.35,1.39-.65,2.12-.87.74-.22,1.5-.37,2.27-.45-.78-.02-1.56.07-2.32.24-.38.09-.76.19-1.13.32Z"/></g></g></svg>